<svg width="300" height="52" viewBox="0 0 300 52" fill="none" xmlns="http://www.w3.org/2000/svg">
<rect width="300" height="52" rx="8" fill="#FEE500"/>
<path d="M95.3888 19.016H97.4528C97.4528 20.168 97.3621 21.2667 97.1808 22.312C97.0101 23.3573 96.6901 24.3493 96.2208 25.288C95.7515 26.2267 95.0848 27.1067 94.2208 27.928C93.3568 28.7493 92.2315 29.512 90.8448 30.216L89.7088 28.584C90.8608 28.008 91.8048 27.3947 92.5408 26.744C93.2875 26.0827 93.8635 25.3787 94.2688 24.632C94.6848 23.8747 94.9728 23.0533 95.1328 22.168C95.3035 21.2827 95.3888 20.3227 95.3888 19.288V19.016ZM90.6368 19.016H96.6368V20.712H90.6368V19.016ZM95.4368 22.648V24.28L90.1248 24.792L89.8528 22.984L95.4368 22.648ZM99.2448 17.576H101.389V32.392H99.2448V17.576ZM100.845 23.256H103.453V25H100.845V23.256ZM110.108 19.016H112.172C112.172 20.168 112.081 21.2667 111.9 22.312C111.729 23.3573 111.409 24.3493 110.94 25.288C110.47 26.2267 109.804 27.1067 108.94 27.928C108.076 28.7493 106.95 29.512 105.564 30.216L104.428 28.584C105.58 28.008 106.524 27.3947 107.26 26.744C108.006 26.0827 108.582 25.3787 108.988 24.632C109.404 23.8747 109.692 23.0533 109.852 22.168C110.022 21.2827 110.108 20.3227 110.108 19.288V19.016ZM105.356 19.016H111.356V20.712H105.356V19.016ZM110.156 22.648V24.28L104.844 24.792L104.572 22.984L110.156 22.648ZM113.964 17.576H116.108V32.392H113.964V17.576ZM115.564 23.256H118.172V25H115.564V23.256ZM124.858 25.928H126.97V29.304H124.858V25.928ZM125.914 18.36C126.97 18.36 127.914 18.5307 128.746 18.872C129.589 19.2027 130.25 19.672 130.73 20.28C131.21 20.888 131.45 21.608 131.45 22.44C131.45 23.2613 131.21 23.9813 130.73 24.6C130.25 25.2187 129.589 25.6987 128.746 26.04C127.914 26.3707 126.97 26.536 125.914 26.536C124.869 26.536 123.925 26.3707 123.082 26.04C122.25 25.6987 121.589 25.2187 121.098 24.6C120.618 23.9813 120.378 23.2613 120.378 22.44C120.378 21.608 120.618 20.888 121.098 20.28C121.589 19.672 122.25 19.2027 123.082 18.872C123.925 18.5307 124.869 18.36 125.914 18.36ZM125.914 20.04C125.242 20.04 124.645 20.136 124.122 20.328C123.61 20.52 123.205 20.792 122.906 21.144C122.618 21.496 122.474 21.928 122.474 22.44C122.474 22.9413 122.618 23.3733 122.906 23.736C123.205 24.088 123.61 24.36 124.122 24.552C124.645 24.744 125.242 24.84 125.914 24.84C126.597 24.84 127.194 24.744 127.706 24.552C128.229 24.36 128.634 24.088 128.922 23.736C129.21 23.3733 129.354 22.9413 129.354 22.44C129.354 21.928 129.21 21.496 128.922 21.144C128.634 20.792 128.229 20.52 127.706 20.328C127.194 20.136 126.597 20.04 125.914 20.04ZM119.226 28.968H132.65V30.696H119.226V28.968ZM133.945 29.064H147.369V30.792H133.945V29.064ZM139.577 26.248H141.689V29.752H139.577V26.248ZM135.465 18.552H145.849V23.496H137.593V25.976H135.481V21.832H143.737V20.248H135.465V18.552ZM135.481 25.144H146.185V26.84H135.481V25.144ZM156.248 18.744H157.992V20.888C157.992 21.848 157.907 22.7707 157.736 23.656C157.566 24.5307 157.304 25.352 156.952 26.12C156.611 26.8773 156.168 27.5493 155.624 28.136C155.091 28.712 154.456 29.1707 153.72 29.512L152.456 27.752C153.107 27.464 153.667 27.0853 154.136 26.616C154.616 26.136 155.011 25.592 155.32 24.984C155.63 24.3653 155.859 23.7093 156.008 23.016C156.168 22.3227 156.248 21.6133 156.248 20.888V18.744ZM156.664 18.744H158.392V20.888C158.392 21.5813 158.467 22.2587 158.616 22.92C158.766 23.5813 158.99 24.2053 159.288 24.792C159.598 25.3787 159.982 25.9013 160.44 26.36C160.91 26.808 161.459 27.1653 162.088 27.432L160.856 29.16C160.142 28.8293 159.518 28.3867 158.984 27.832C158.462 27.2773 158.03 26.6373 157.688 25.912C157.347 25.176 157.091 24.3867 156.92 23.544C156.75 22.6907 156.664 21.8053 156.664 20.888V18.744ZM162.808 17.576H164.936V32.44H162.808V17.576ZM170.663 19.112H172.407V20.04C172.407 20.9787 172.252 21.864 171.943 22.696C171.644 23.528 171.186 24.2587 170.567 24.888C169.959 25.5067 169.186 25.9707 168.247 26.28L167.143 24.632C167.964 24.3547 168.631 23.976 169.143 23.496C169.666 23.016 170.05 22.4773 170.295 21.88C170.54 21.272 170.663 20.6587 170.663 20.04V19.112ZM171.079 19.112H172.807V20.04C172.807 20.616 172.924 21.192 173.159 21.768C173.394 22.3333 173.762 22.8453 174.263 23.304C174.775 23.752 175.426 24.104 176.215 24.36L175.143 26.024C174.215 25.7253 173.452 25.272 172.855 24.664C172.258 24.056 171.81 23.3573 171.511 22.568C171.223 21.768 171.079 20.9253 171.079 20.04V19.112ZM167.703 18.472H175.719V20.168H167.703V18.472ZM176.887 17.608H179.015V26.52H176.887V17.608ZM178.439 21.176H180.983V22.936H178.439V21.176ZM169.127 27.176H179.015V32.424H176.887V28.872H169.127V27.176ZM191.574 17.608H193.702V32.424H191.574V17.608ZM193.222 23.384H195.83V25.144H193.222V23.384ZM182.006 19.784H190.646V21.48H182.006V19.784ZM186.358 22.328C187.072 22.328 187.712 22.4827 188.278 22.792C188.843 23.0907 189.286 23.5013 189.606 24.024C189.936 24.5467 190.102 25.1547 190.102 25.848C190.102 26.5413 189.936 27.1547 189.606 27.688C189.286 28.2107 188.843 28.6267 188.278 28.936C187.723 29.2347 187.083 29.384 186.358 29.384C185.643 29.384 184.998 29.2347 184.422 28.936C183.856 28.6267 183.408 28.2107 183.078 27.688C182.758 27.1547 182.598 26.5413 182.598 25.848C182.598 25.1547 182.758 24.5467 183.078 24.024C183.408 23.5013 183.856 23.0907 184.422 22.792C184.998 22.4827 185.643 22.328 186.358 22.328ZM186.358 24.056C186.016 24.056 185.718 24.1253 185.462 24.264C185.206 24.4027 185.003 24.6053 184.854 24.872C184.704 25.1387 184.63 25.464 184.63 25.848C184.63 26.2213 184.704 26.5467 184.854 26.824C185.003 27.0907 185.206 27.2987 185.462 27.448C185.718 27.5867 186.016 27.656 186.358 27.656C186.688 27.656 186.982 27.5867 187.238 27.448C187.494 27.2987 187.696 27.0907 187.846 26.824C187.995 26.5467 188.07 26.2213 188.07 25.848C188.07 25.464 187.995 25.1387 187.846 24.872C187.696 24.6053 187.494 24.4027 187.238 24.264C186.982 24.1253 186.688 24.056 186.358 24.056ZM185.27 17.848H187.414V20.44H185.27V17.848ZM207.012 17.592H209.14V32.408H207.012V17.592ZM202.644 19.128H204.74C204.74 20.2587 204.628 21.3413 204.404 22.376C204.191 23.4 203.828 24.3653 203.316 25.272C202.815 26.1787 202.122 27.0213 201.236 27.8C200.362 28.568 199.268 29.272 197.956 29.912L196.836 28.232C198.266 27.5387 199.402 26.776 200.244 25.944C201.098 25.1013 201.711 24.152 202.084 23.096C202.458 22.0293 202.644 20.8347 202.644 19.512V19.128ZM197.636 19.128H203.636V20.824H197.636V19.128Z" fill="black" fill-opacity="0.85"/>
<path fill-rule="evenodd" clip-rule="evenodd" d="M26 18C21.029 18 17 21.129 17 24.989C17 27.389 18.559 29.505 20.932 30.764L19.933 34.431C19.845 34.754 20.213 35.013 20.497 34.826L24.874 31.921C25.243 31.958 25.618 31.978 26 31.978C30.971 31.978 35 28.849 35 24.989C35 21.129 30.971 18 26 18Z" fill="black"/>
</svg>
