<svg width="124" height="42" viewBox="0 0 124 42" fill="none" xmlns="http://www.w3.org/2000/svg">
<rect width="124" height="42" rx="8" fill="#FF9900"/>
<path d="M27.668 24.736C27.116 24.824 26.54 24.896 25.94 24.952C25.348 25.008 24.744 25.048 24.128 25.072C23.52 25.096 22.912 25.108 22.304 25.108C21.696 25.116 21.112 25.112 20.552 25.096C20.456 25.096 20.392 25.076 20.36 25.036C20.336 24.996 20.324 24.932 20.324 24.844V23.98C20.324 23.892 20.34 23.828 20.372 23.788C20.404 23.748 20.464 23.732 20.552 23.74C21.008 23.748 21.472 23.756 21.944 23.764C22.424 23.772 22.904 23.768 23.384 23.752V22.768C23.104 22.712 22.844 22.628 22.604 22.516C22.372 22.404 22.168 22.268 21.992 22.108C21.824 21.94 21.688 21.756 21.584 21.556C21.488 21.348 21.44 21.12 21.44 20.872C21.44 20.576 21.512 20.308 21.656 20.068C21.808 19.82 22.012 19.608 22.268 19.432C22.524 19.256 22.816 19.124 23.144 19.036C23.48 18.94 23.836 18.892 24.212 18.892C24.58 18.892 24.928 18.94 25.256 19.036C25.592 19.124 25.884 19.256 26.132 19.432C26.38 19.608 26.576 19.82 26.72 20.068C26.872 20.308 26.948 20.576 26.948 20.872C26.948 21.12 26.9 21.348 26.804 21.556C26.708 21.764 26.572 21.948 26.396 22.108C26.22 22.268 26.012 22.408 25.772 22.528C25.54 22.64 25.288 22.724 25.016 22.78V23.692C25.44 23.668 25.852 23.636 26.252 23.596C26.66 23.556 27.064 23.504 27.464 23.44C27.584 23.424 27.66 23.428 27.692 23.452C27.732 23.468 27.76 23.524 27.776 23.62L27.872 24.484C27.888 24.596 27.876 24.664 27.836 24.688C27.804 24.704 27.748 24.72 27.668 24.736ZM29.72 26.956H28.496C28.408 26.956 28.348 26.94 28.316 26.908C28.284 26.884 28.268 26.824 28.268 26.728V15.676C28.268 15.588 28.284 15.528 28.316 15.496C28.348 15.464 28.408 15.448 28.496 15.448H29.72C29.808 15.448 29.868 15.464 29.9 15.496C29.932 15.528 29.948 15.588 29.948 15.676V26.728C29.948 26.824 29.932 26.884 29.9 26.908C29.868 26.94 29.808 26.956 29.72 26.956ZM27.224 18.532H21.056C20.88 18.532 20.792 18.448 20.792 18.28V17.524C20.792 17.356 20.88 17.272 21.056 17.272H27.224C27.392 17.272 27.476 17.356 27.476 17.524V18.292C27.476 18.452 27.392 18.532 27.224 18.532ZM25.784 16.828H22.628C22.564 16.828 22.504 16.816 22.448 16.792C22.4 16.76 22.376 16.688 22.376 16.576V15.808C22.376 15.704 22.4 15.636 22.448 15.604C22.504 15.572 22.564 15.556 22.628 15.556H25.784C25.96 15.556 26.048 15.644 26.048 15.82V16.564C26.048 16.74 25.96 16.828 25.784 16.828ZM24.212 20.14C23.844 20.14 23.556 20.212 23.348 20.356C23.14 20.5 23.036 20.672 23.036 20.872C23.036 21.072 23.136 21.244 23.336 21.388C23.544 21.532 23.836 21.604 24.212 21.604C24.572 21.604 24.852 21.532 25.052 21.388C25.26 21.244 25.364 21.072 25.364 20.872C25.364 20.672 25.26 20.5 25.052 20.356C24.852 20.212 24.572 20.14 24.212 20.14ZM35.4012 20.02C34.9932 20.02 34.6172 19.968 34.2732 19.864C33.9372 19.752 33.6412 19.6 33.3852 19.408C33.1372 19.208 32.9412 18.972 32.7972 18.7C32.6612 18.428 32.5932 18.128 32.5932 17.8C32.5932 17.496 32.6612 17.212 32.7972 16.948C32.9412 16.684 33.1372 16.456 33.3852 16.264C33.6412 16.072 33.9372 15.92 34.2732 15.808C34.6172 15.696 34.9932 15.64 35.4012 15.64C35.8092 15.64 36.1812 15.696 36.5172 15.808C36.8612 15.92 37.1572 16.072 37.4052 16.264C37.6532 16.456 37.8452 16.684 37.9812 16.948C38.1252 17.212 38.1972 17.496 38.1972 17.8C38.1972 18.128 38.1252 18.428 37.9812 18.7C37.8452 18.972 37.6532 19.208 37.4052 19.408C37.1572 19.6 36.8612 19.752 36.5172 19.864C36.1812 19.968 35.8092 20.02 35.4012 20.02ZM41.0052 24.376H39.7812C39.6932 24.376 39.6332 24.364 39.6012 24.34C39.5692 24.308 39.5532 24.244 39.5532 24.148V23.26H37.7532C37.6812 23.26 37.6212 23.248 37.5732 23.224C37.5332 23.192 37.5132 23.132 37.5132 23.044V22.216C37.5132 22.112 37.5372 22.052 37.5852 22.036C37.6332 22.012 37.6892 22 37.7532 22H39.5532V15.664C39.5532 15.576 39.5692 15.516 39.6012 15.484C39.6332 15.452 39.6932 15.436 39.7812 15.436H41.0052C41.0932 15.436 41.1532 15.452 41.1852 15.484C41.2172 15.516 41.2332 15.576 41.2332 15.664V24.148C41.2332 24.244 41.2172 24.308 41.1852 24.34C41.1532 24.364 41.0932 24.376 41.0052 24.376ZM41.2452 26.788H34.2852C34.1172 26.788 33.9772 26.772 33.8652 26.74C33.7612 26.716 33.6772 26.672 33.6132 26.608C33.5572 26.544 33.5172 26.456 33.4932 26.344C33.4692 26.232 33.4572 26.092 33.4572 25.924V24.148C33.4572 23.988 33.5372 23.908 33.6972 23.908H34.8732C35.0412 23.908 35.1252 23.988 35.1252 24.148V25.24C35.1252 25.36 35.1892 25.42 35.3172 25.42H41.2452C41.3092 25.42 41.3652 25.432 41.4132 25.456C41.4612 25.488 41.4852 25.548 41.4852 25.636V26.572C41.4852 26.684 41.4612 26.748 41.4132 26.764C41.3652 26.78 41.3092 26.788 41.2452 26.788ZM35.8692 23.44H34.7292C34.5612 23.44 34.4772 23.36 34.4772 23.2V21.748C34.0292 21.764 33.5892 21.776 33.1572 21.784C32.7252 21.784 32.3012 21.776 31.8852 21.76C31.7892 21.76 31.7252 21.74 31.6932 21.7C31.6692 21.66 31.6572 21.596 31.6572 21.508V20.704C31.6572 20.616 31.6732 20.552 31.7052 20.512C31.7372 20.464 31.7972 20.444 31.8852 20.452C33.0212 20.468 34.1692 20.46 35.3292 20.428C36.4972 20.388 37.6372 20.296 38.7492 20.152C38.8692 20.136 38.9452 20.14 38.9772 20.164C39.0172 20.18 39.0452 20.236 39.0612 20.332L39.1572 21.136C39.1732 21.232 39.1612 21.296 39.1212 21.328C39.0812 21.352 39.0212 21.372 38.9412 21.388C38.4932 21.452 38.0332 21.504 37.5612 21.544C37.0892 21.584 36.6092 21.624 36.1212 21.664V23.2C36.1212 23.36 36.0372 23.44 35.8692 23.44ZM35.4012 16.936C35.0412 16.936 34.7452 17.024 34.5132 17.2C34.2812 17.368 34.1652 17.576 34.1652 17.824C34.1652 18.096 34.2812 18.32 34.5132 18.496C34.7452 18.664 35.0412 18.748 35.4012 18.748C35.7612 18.748 36.0532 18.664 36.2772 18.496C36.5092 18.32 36.6252 18.096 36.6252 17.824C36.6252 17.576 36.5092 17.368 36.2772 17.2C36.0532 17.024 35.7612 16.936 35.4012 16.936ZM53.5263 21.136H52.0383V26.728C52.0383 26.824 52.0223 26.884 51.9903 26.908C51.9663 26.94 51.9103 26.956 51.8223 26.956H50.6103C50.5223 26.956 50.4583 26.94 50.4183 26.908C50.3863 26.884 50.3703 26.824 50.3703 26.728V15.676C50.3703 15.588 50.3863 15.528 50.4183 15.496C50.4583 15.464 50.5223 15.448 50.6103 15.448H51.8223C51.9103 15.448 51.9663 15.464 51.9903 15.496C52.0223 15.528 52.0383 15.588 52.0383 15.676V19.768H53.5263C53.5983 19.768 53.6543 19.78 53.6943 19.804C53.7423 19.82 53.7663 19.884 53.7663 19.996V20.908C53.7663 21.004 53.7423 21.068 53.6943 21.1C53.6543 21.124 53.5983 21.136 53.5263 21.136ZM44.0703 24.484C43.9583 24.548 43.8703 24.58 43.8063 24.58C43.7503 24.58 43.6903 24.536 43.6263 24.448L43.0623 23.608C43.0063 23.528 42.9863 23.452 43.0023 23.38C43.0263 23.308 43.0743 23.252 43.1463 23.212C44.3543 22.532 45.3063 21.748 46.0023 20.86C46.6983 19.972 47.1183 19.004 47.2623 17.956C47.2863 17.788 47.2263 17.704 47.0823 17.704H43.7343C43.6303 17.704 43.5663 17.688 43.5423 17.656C43.5183 17.616 43.5063 17.552 43.5063 17.464V16.564C43.5063 16.468 43.5223 16.408 43.5543 16.384C43.5863 16.352 43.6463 16.336 43.7343 16.336H48.1023C48.5023 16.336 48.7663 16.42 48.8943 16.588C49.0223 16.748 49.0743 17.004 49.0503 17.356C49.0023 18.076 48.8543 18.776 48.6063 19.456C48.3663 20.136 48.0303 20.78 47.5983 21.388C47.1743 21.996 46.6663 22.564 46.0743 23.092C45.4823 23.612 44.8143 24.076 44.0703 24.484ZM63.4555 21.436H62.2555C62.1675 21.436 62.1075 21.424 62.0755 21.4C62.0435 21.368 62.0275 21.304 62.0275 21.208V15.676C62.0275 15.588 62.0435 15.528 62.0755 15.496C62.1075 15.464 62.1675 15.448 62.2555 15.448H63.4555C63.6075 15.448 63.6835 15.524 63.6835 15.676V21.208C63.6835 21.304 63.6675 21.368 63.6355 21.4C63.6035 21.424 63.5435 21.436 63.4555 21.436ZM57.6595 21.292C57.2195 21.292 56.8195 21.22 56.4595 21.076C56.0995 20.924 55.7915 20.724 55.5355 20.476C55.2795 20.22 55.0795 19.928 54.9355 19.6C54.7995 19.264 54.7315 18.916 54.7315 18.556C54.7315 18.188 54.7995 17.84 54.9355 17.512C55.0795 17.176 55.2795 16.884 55.5355 16.636C55.7915 16.38 56.0995 16.176 56.4595 16.024C56.8195 15.872 57.2195 15.796 57.6595 15.796C58.0995 15.796 58.4995 15.872 58.8595 16.024C59.2275 16.176 59.5395 16.38 59.7955 16.636C60.0595 16.884 60.2595 17.176 60.3955 17.512C60.5395 17.84 60.6115 18.188 60.6115 18.556C60.6115 18.916 60.5395 19.264 60.3955 19.6C60.2515 19.928 60.0515 20.22 59.7955 20.476C59.5395 20.724 59.2275 20.924 58.8595 21.076C58.4995 21.22 58.0995 21.292 57.6595 21.292ZM62.7595 26.752H57.5515C57.3595 26.752 57.2035 26.74 57.0835 26.716C56.9635 26.692 56.8675 26.648 56.7955 26.584C56.7315 26.528 56.6835 26.444 56.6515 26.332C56.6275 26.22 56.6155 26.072 56.6155 25.888V22.336C56.6155 22.192 56.6915 22.12 56.8435 22.12H58.0435C58.1315 22.12 58.1915 22.136 58.2235 22.168C58.2635 22.192 58.2835 22.248 58.2835 22.336V23.212H62.0155V22.288C62.0155 22.2 62.0355 22.14 62.0755 22.108C62.1155 22.076 62.1715 22.06 62.2435 22.06H63.4675C63.5395 22.06 63.5915 22.076 63.6235 22.108C63.6635 22.14 63.6835 22.2 63.6835 22.288V25.924C63.6835 26.236 63.6235 26.452 63.5035 26.572C63.3915 26.692 63.1435 26.752 62.7595 26.752ZM57.6595 17.176C57.4595 17.176 57.2755 17.216 57.1075 17.296C56.9475 17.368 56.8075 17.468 56.6875 17.596C56.5675 17.716 56.4715 17.86 56.3995 18.028C56.3355 18.196 56.3035 18.372 56.3035 18.556C56.3035 18.732 56.3355 18.9 56.3995 19.06C56.4715 19.22 56.5675 19.364 56.6875 19.492C56.8075 19.612 56.9475 19.712 57.1075 19.792C57.2755 19.864 57.4595 19.9 57.6595 19.9C57.8675 19.9 58.0555 19.864 58.2235 19.792C58.3915 19.712 58.5355 19.612 58.6555 19.492C58.7755 19.364 58.8675 19.22 58.9315 19.06C59.0035 18.9 59.0395 18.732 59.0395 18.556C59.0395 18.372 59.0035 18.196 58.9315 18.028C58.8675 17.86 58.7715 17.716 58.6435 17.596C58.5235 17.468 58.3795 17.368 58.2115 17.296C58.0435 17.216 57.8595 17.176 57.6595 17.176ZM62.0155 24.544H58.2835V25.288C58.2835 25.36 58.3235 25.396 58.4035 25.396H61.8955C61.9755 25.396 62.0155 25.36 62.0155 25.288V24.544ZM66.7246 26.32C66.6926 26.392 66.6526 26.436 66.6046 26.452C66.5646 26.476 66.5126 26.488 66.4486 26.488H65.2246C65.1366 26.488 65.0726 26.468 65.0326 26.428C64.9846 26.396 64.9766 26.332 65.0086 26.236L68.1166 16.432C68.1486 16.344 68.2126 16.3 68.3086 16.3H69.6166C69.8006 16.3 69.8686 16.38 69.8206 16.54L66.7246 26.32ZM80.4166 25.036H70.1086C70.0046 25.036 69.9366 25.012 69.9046 24.964C69.8806 24.916 69.8686 24.856 69.8686 24.784V23.944C69.8686 23.856 69.8806 23.792 69.9046 23.752C69.9366 23.712 70.0046 23.692 70.1086 23.692H74.4286V22.18H72.2566C71.9046 22.18 71.6686 22.116 71.5486 21.988C71.4366 21.86 71.3806 21.644 71.3806 21.34V19.192C71.3806 19.04 71.3926 18.916 71.4166 18.82C71.4406 18.716 71.4806 18.636 71.5366 18.58C71.6006 18.516 71.6846 18.472 71.7886 18.448C71.9006 18.416 72.0446 18.4 72.2206 18.4H77.3206C77.4246 18.4 77.4766 18.348 77.4766 18.244V17.512C77.4766 17.416 77.4246 17.368 77.3206 17.368H71.6806C71.5926 17.368 71.5286 17.352 71.4886 17.32C71.4566 17.288 71.4406 17.224 71.4406 17.128V16.252C71.4406 16.1 71.5206 16.024 71.6806 16.024H78.2206C78.3966 16.024 78.5406 16.036 78.6526 16.06C78.7726 16.084 78.8606 16.128 78.9166 16.192C78.9806 16.248 79.0246 16.328 79.0486 16.432C79.0726 16.536 79.0846 16.668 79.0846 16.828V18.88C79.0846 19.048 79.0726 19.184 79.0486 19.288C79.0246 19.392 78.9806 19.476 78.9166 19.54C78.8606 19.596 78.7726 19.636 78.6526 19.66C78.5406 19.684 78.3966 19.696 78.2206 19.696H73.1446C73.0486 19.696 73.0006 19.74 73.0006 19.828V20.692C73.0006 20.788 73.0526 20.836 73.1566 20.836H79.1086C79.1966 20.836 79.2606 20.848 79.3006 20.872C79.3406 20.888 79.3606 20.952 79.3606 21.064V21.94C79.3606 22.1 79.2806 22.18 79.1206 22.18H76.0966V23.692H80.4166C80.5846 23.692 80.6686 23.776 80.6686 23.944V24.784C80.6686 24.952 80.5846 25.036 80.4166 25.036ZM91.7018 24.916H81.3938C81.2898 24.916 81.2218 24.892 81.1898 24.844C81.1658 24.796 81.1538 24.736 81.1538 24.664V23.8C81.1538 23.712 81.1658 23.648 81.1898 23.608C81.2218 23.568 81.2898 23.548 81.3938 23.548H88.4858C88.5338 23.228 88.5778 22.84 88.6178 22.384C88.6658 21.92 88.7058 21.448 88.7378 20.968C88.7698 20.48 88.7938 19.984 88.8098 19.48C88.8258 18.976 88.8338 18.5 88.8338 18.052C88.8338 17.932 88.8138 17.848 88.7738 17.8C88.7418 17.744 88.6338 17.716 88.4498 17.716H82.8458C82.7658 17.716 82.7018 17.708 82.6538 17.692C82.6058 17.668 82.5818 17.604 82.5818 17.5V16.552C82.5818 16.464 82.6058 16.408 82.6538 16.384C82.7018 16.36 82.7658 16.348 82.8458 16.348H89.6498C89.9378 16.348 90.1498 16.416 90.2858 16.552C90.4298 16.68 90.5018 16.912 90.5018 17.248C90.5018 17.864 90.4898 18.476 90.4658 19.084C90.4418 19.692 90.4098 20.272 90.3698 20.824C90.3298 21.368 90.2858 21.88 90.2378 22.36C90.1898 22.84 90.1378 23.236 90.0818 23.548H91.7018C91.8698 23.548 91.9538 23.632 91.9538 23.8V24.664C91.9538 24.832 91.8698 24.916 91.7018 24.916ZM101.823 23.584H100.611C100.523 23.584 100.463 23.568 100.431 23.536C100.399 23.496 100.383 23.432 100.383 23.344V15.676C100.383 15.524 100.459 15.448 100.611 15.448H101.823C101.967 15.448 102.039 15.524 102.039 15.676V23.356C102.039 23.444 102.023 23.504 101.991 23.536C101.967 23.568 101.911 23.584 101.823 23.584ZM95.9789 21.76C95.5469 21.76 95.1509 21.688 94.7909 21.544C94.4309 21.4 94.1189 21.2 93.8549 20.944C93.5909 20.68 93.3869 20.376 93.2429 20.032C93.0989 19.68 93.0269 19.3 93.0269 18.892C93.0269 18.508 93.0989 18.144 93.2429 17.8C93.3869 17.448 93.5909 17.14 93.8549 16.876C94.1189 16.612 94.4309 16.404 94.7909 16.252C95.1509 16.092 95.5469 16.012 95.9789 16.012C96.4189 16.012 96.8229 16.092 97.1909 16.252C97.5589 16.404 97.8749 16.612 98.1389 16.876C98.4109 17.14 98.6189 17.448 98.7629 17.8C98.9149 18.144 98.9909 18.508 98.9909 18.892C98.9909 19.3 98.9149 19.68 98.7629 20.032C98.6189 20.376 98.4109 20.68 98.1389 20.944C97.8749 21.2 97.5589 21.4 97.1909 21.544C96.8229 21.688 96.4189 21.76 95.9789 21.76ZM102.159 26.764H95.8589C95.6829 26.764 95.5389 26.748 95.4269 26.716C95.3229 26.692 95.2389 26.644 95.1749 26.572C95.1109 26.5 95.0669 26.408 95.0429 26.296C95.0189 26.184 95.0069 26.044 95.0069 25.876V23.164C95.0069 22.996 95.0869 22.912 95.2469 22.912H96.4349C96.5949 22.912 96.6749 22.996 96.6749 23.164V25.204C96.6749 25.324 96.7389 25.384 96.8669 25.384H102.159C102.223 25.384 102.279 25.396 102.327 25.42C102.375 25.452 102.399 25.512 102.399 25.6V26.548C102.399 26.66 102.375 26.724 102.327 26.74C102.279 26.756 102.223 26.764 102.159 26.764ZM95.9789 17.464C95.7869 17.464 95.6069 17.5 95.4389 17.572C95.2789 17.644 95.1349 17.748 95.0069 17.884C94.8869 18.012 94.7909 18.168 94.7189 18.352C94.6549 18.528 94.6229 18.72 94.6229 18.928C94.6229 19.136 94.6549 19.332 94.7189 19.516C94.7909 19.692 94.8869 19.848 95.0069 19.984C95.1349 20.112 95.2789 20.212 95.4389 20.284C95.6069 20.356 95.7869 20.392 95.9789 20.392C96.3789 20.392 96.7069 20.256 96.9629 19.984C97.2269 19.704 97.3589 19.352 97.3589 18.928C97.3589 18.504 97.2269 18.156 96.9629 17.884C96.7069 17.604 96.3789 17.464 95.9789 17.464Z" fill="white"/>
</svg>
