<svg width="66" height="27" viewBox="0 0 66 27" fill="none" xmlns="http://www.w3.org/2000/svg">
<rect x="0.5" y="1" width="65" height="25" rx="12.5" stroke="#E4E4E4"/>
<path d="M21.4577 16.66C21.4577 16.7 21.4377 16.74 21.3977 16.78C21.3577 16.82 21.3177 16.84 21.2777 16.84H10.8257C10.7777 16.84 10.7377 16.82 10.7057 16.78C10.6737 16.74 10.6577 16.7 10.6577 16.66V15.904C10.6577 15.856 10.6737 15.812 10.7057 15.772C10.7377 15.732 10.7777 15.712 10.8257 15.712H15.3737V13.924H13.2257C13.0497 13.924 12.9057 13.912 12.7937 13.888C12.6817 13.864 12.5937 13.82 12.5297 13.756C12.4657 13.692 12.4217 13.612 12.3977 13.516C12.3737 13.412 12.3617 13.28 12.3617 13.12V11.188C12.3617 11.028 12.3737 10.9 12.3977 10.804C12.4217 10.7 12.4657 10.62 12.5297 10.564C12.5937 10.5 12.6817 10.46 12.7937 10.444C12.9057 10.42 13.0497 10.408 13.2257 10.408H18.2177C18.2977 10.408 18.3457 10.4 18.3617 10.384C18.3857 10.36 18.3977 10.304 18.3977 10.216V9.28C18.3977 9.192 18.3857 9.144 18.3617 9.136C18.3457 9.12 18.2977 9.112 18.2177 9.112H12.5657C12.5257 9.112 12.4897 9.096 12.4577 9.064C12.4257 9.024 12.4097 8.984 12.4097 8.944V8.14C12.4097 8.1 12.4257 8.064 12.4577 8.032C12.4897 8 12.5257 7.984 12.5657 7.984H18.8777C19.2137 7.984 19.4417 8.04 19.5617 8.152C19.6817 8.256 19.7417 8.464 19.7417 8.776V10.72C19.7417 11.032 19.6817 11.244 19.5617 11.356C19.4417 11.46 19.2137 11.512 18.8777 11.512H13.8737C13.7937 11.512 13.7457 11.52 13.7297 11.536C13.7137 11.552 13.7057 11.6 13.7057 11.68V12.628C13.7057 12.716 13.7137 12.772 13.7297 12.796C13.7537 12.812 13.8057 12.82 13.8857 12.82H19.8377C19.8777 12.82 19.9137 12.836 19.9457 12.868C19.9777 12.892 19.9937 12.924 19.9937 12.964V13.768C19.9937 13.808 19.9737 13.844 19.9337 13.876C19.9017 13.908 19.8697 13.924 19.8377 13.924H16.7537V15.712H21.2777C21.3177 15.712 21.3577 15.736 21.3977 15.784C21.4377 15.824 21.4577 15.864 21.4577 15.904V16.66ZM32.7428 16.588C32.7428 16.628 32.7228 16.668 32.6828 16.708C32.6428 16.748 32.6028 16.768 32.5628 16.768H22.1108C22.0628 16.768 22.0228 16.748 21.9908 16.708C21.9588 16.668 21.9428 16.628 21.9428 16.588V15.796C21.9428 15.748 21.9588 15.708 21.9908 15.676C22.0228 15.636 22.0628 15.616 22.1108 15.616H29.3468C29.4748 14.896 29.5708 14.04 29.6348 13.048C29.7068 12.048 29.7428 10.98 29.7428 9.844C29.7428 9.708 29.7268 9.612 29.6948 9.556C29.6628 9.492 29.5788 9.46 29.4428 9.46H23.6348C23.5948 9.46 23.5588 9.444 23.5268 9.412C23.4948 9.372 23.4788 9.332 23.4788 9.292V8.5C23.4788 8.46 23.4948 8.424 23.5268 8.392C23.5588 8.352 23.5948 8.332 23.6348 8.332H30.3188C30.6708 8.332 30.8948 8.424 30.9908 8.608C31.0948 8.784 31.1468 9.02 31.1468 9.316C31.1468 10.388 31.1148 11.448 31.0508 12.496C30.9948 13.544 30.8788 14.584 30.7028 15.616H32.5628C32.6028 15.616 32.6428 15.636 32.6828 15.676C32.7228 15.716 32.7428 15.756 32.7428 15.796V16.588ZM44.184 12.772C44.184 12.82 44.164 12.86 44.124 12.892C44.092 12.924 44.056 12.94 44.016 12.94H42.396V18.628C42.396 18.676 42.376 18.712 42.336 18.736C42.304 18.768 42.268 18.784 42.228 18.784H41.172C41.06 18.784 41.004 18.732 41.004 18.628V7.552C41.004 7.448 41.06 7.396 41.172 7.396H42.228C42.268 7.396 42.304 7.412 42.336 7.444C42.376 7.476 42.396 7.512 42.396 7.552V11.788H44.016C44.056 11.788 44.092 11.804 44.124 11.836C44.164 11.86 44.184 11.892 44.184 11.932V12.772ZM38.34 12.04C38.34 11.672 38.304 11.324 38.232 10.996C38.16 10.668 38.056 10.384 37.92 10.144C37.784 9.896 37.616 9.7 37.416 9.556C37.216 9.412 36.988 9.34 36.732 9.34C36.484 9.34 36.26 9.412 36.06 9.556C35.868 9.7 35.704 9.896 35.568 10.144C35.432 10.384 35.328 10.668 35.256 10.996C35.184 11.324 35.148 11.672 35.148 12.04C35.148 12.4 35.184 12.744 35.256 13.072C35.328 13.4 35.432 13.688 35.568 13.936C35.704 14.184 35.868 14.384 36.06 14.536C36.26 14.68 36.484 14.752 36.732 14.752C36.988 14.752 37.216 14.68 37.416 14.536C37.616 14.384 37.784 14.184 37.92 13.936C38.056 13.688 38.16 13.4 38.232 13.072C38.304 12.744 38.34 12.4 38.34 12.04ZM36.732 15.976C36.276 15.976 35.864 15.884 35.496 15.7C35.128 15.508 34.816 15.24 34.56 14.896C34.312 14.552 34.12 14.14 33.984 13.66C33.848 13.18 33.78 12.648 33.78 12.064C33.78 11.464 33.848 10.92 33.984 10.432C34.12 9.944 34.312 9.532 34.56 9.196C34.816 8.852 35.128 8.588 35.496 8.404C35.864 8.212 36.276 8.116 36.732 8.116C37.196 8.116 37.608 8.208 37.968 8.392C38.336 8.576 38.648 8.84 38.904 9.184C39.16 9.52 39.356 9.932 39.492 10.42C39.628 10.9 39.696 11.44 39.696 12.04C39.696 12.64 39.628 13.184 39.492 13.672C39.356 14.152 39.16 14.564 38.904 14.908C38.648 15.252 38.336 15.516 37.968 15.7C37.608 15.884 37.196 15.976 36.732 15.976ZM46.0252 18.796C45.9372 18.812 45.8732 18.804 45.8332 18.772C45.8012 18.748 45.7732 18.704 45.7492 18.64L45.4612 17.932C45.4372 17.884 45.4372 17.836 45.4612 17.788C45.4852 17.748 45.5212 17.72 45.5692 17.704C46.0572 17.576 46.5132 17.424 46.9372 17.248C47.3612 17.072 47.7332 16.864 48.0532 16.624C48.3732 16.384 48.6332 16.108 48.8332 15.796C49.0332 15.484 49.1532 15.132 49.1932 14.74V14.728V13.708H44.6812C44.6332 13.708 44.5932 13.688 44.5612 13.648C44.5292 13.608 44.5132 13.568 44.5132 13.528V12.736C44.5132 12.688 44.5292 12.648 44.5612 12.616C44.5932 12.576 44.6332 12.556 44.6812 12.556H55.1332C55.1732 12.556 55.2132 12.576 55.2532 12.616C55.2932 12.656 55.3132 12.696 55.3132 12.736V13.528C55.3132 13.568 55.2932 13.608 55.2532 13.648C55.2132 13.688 55.1732 13.708 55.1332 13.708H50.5732V14.704V14.8C50.5652 14.864 50.5572 14.928 50.5492 14.992C50.5412 15.048 50.5292 15.108 50.5132 15.172C50.6332 15.452 50.8172 15.724 51.0652 15.988C51.3212 16.252 51.6172 16.496 51.9532 16.72C52.2972 16.936 52.6692 17.124 53.0692 17.284C53.4692 17.444 53.8692 17.564 54.2692 17.644C54.3092 17.652 54.3412 17.68 54.3652 17.728C54.3892 17.776 54.3892 17.824 54.3652 17.872L54.0652 18.616C54.0412 18.672 54.0092 18.708 53.9692 18.724C53.9372 18.748 53.8812 18.752 53.8012 18.736C53.4012 18.68 53.0052 18.58 52.6132 18.436C52.2292 18.292 51.8652 18.12 51.5212 17.92C51.1772 17.728 50.8652 17.512 50.5852 17.272C50.3052 17.032 50.0812 16.792 49.9132 16.552C49.5132 17.112 48.9732 17.588 48.2932 17.98C47.6132 18.372 46.8572 18.644 46.0252 18.796ZM49.9012 11.74C49.3252 11.74 48.8012 11.688 48.3292 11.584C47.8652 11.48 47.4652 11.336 47.1292 11.152C46.7932 10.968 46.5332 10.744 46.3492 10.48C46.1732 10.216 46.0852 9.92 46.0852 9.592C46.0852 9.272 46.1772 8.98 46.3612 8.716C46.5452 8.452 46.8052 8.228 47.1412 8.044C47.4772 7.852 47.8772 7.708 48.3412 7.612C48.8132 7.508 49.3332 7.456 49.9012 7.456C50.4772 7.456 50.9972 7.508 51.4612 7.612C51.9252 7.708 52.3212 7.852 52.6492 8.044C52.9852 8.228 53.2412 8.452 53.4172 8.716C53.6012 8.98 53.6932 9.272 53.6932 9.592C53.6932 9.92 53.6012 10.216 53.4172 10.48C53.2412 10.744 52.9852 10.968 52.6492 11.152C52.3212 11.336 51.9252 11.48 51.4612 11.584C50.9972 11.688 50.4772 11.74 49.9012 11.74ZM49.9012 8.536C49.5492 8.536 49.2252 8.564 48.9292 8.62C48.6412 8.676 48.3932 8.752 48.1852 8.848C47.9772 8.944 47.8132 9.056 47.6932 9.184C47.5812 9.312 47.5252 9.448 47.5252 9.592C47.5252 9.736 47.5812 9.872 47.6932 10C47.8132 10.128 47.9772 10.24 48.1852 10.336C48.3932 10.432 48.6412 10.508 48.9292 10.564C49.2252 10.62 49.5492 10.648 49.9012 10.648C50.2452 10.648 50.5612 10.62 50.8492 10.564C51.1452 10.508 51.3932 10.432 51.5932 10.336C51.8012 10.24 51.9612 10.128 52.0732 10C52.1932 9.872 52.2532 9.736 52.2532 9.592C52.2532 9.448 52.1932 9.312 52.0732 9.184C51.9612 9.056 51.8012 8.944 51.5932 8.848C51.3932 8.752 51.1452 8.676 50.8492 8.62C50.5612 8.564 50.2452 8.536 49.9012 8.536Z" fill="#999999"/>
</svg>
