<svg width="70" height="60" viewBox="0 0 70 60" fill="none" xmlns="http://www.w3.org/2000/svg">
<path d="M34.5 20C37.2614 20 39.5 17.7614 39.5 15C39.5 12.2386 37.2614 10 34.5 10C31.7386 10 29.5 12.2386 29.5 15C29.5 17.7614 31.7386 20 34.5 20Z" fill="#E4E4E4"/>
<path d="M34.5002 22.5C29.4902 22.5 25.4102 25.86 25.4102 30C25.4102 30.28 25.6302 30.5 25.9102 30.5H43.0902C43.3702 30.5 43.5902 30.28 43.5902 30C43.5902 25.86 39.5102 22.5 34.5002 22.5Z" fill="#E4E4E4"/>
<path d="M2.41496 42.596C2.41496 42.204 2.48963 41.9427 2.63896 41.812C2.78829 41.672 3.06829 41.602 3.47896 41.602H7.59496C7.81896 41.602 7.99629 41.616 8.12696 41.644C8.26696 41.672 8.37429 41.7233 8.44896 41.798C8.53296 41.8727 8.58896 41.9753 8.61696 42.106C8.64496 42.2367 8.65896 42.4 8.65896 42.596V48.798C8.65896 49.19 8.58429 49.456 8.43496 49.596C8.28563 49.7267 8.00563 49.792 7.59496 49.792H3.47896C3.25496 49.792 3.07296 49.778 2.93296 49.75C2.80229 49.722 2.69496 49.6707 2.61096 49.596C2.53629 49.512 2.48496 49.4093 2.45696 49.288C2.42896 49.1573 2.41496 48.994 2.41496 48.798V42.596ZM3.71696 42.442C3.58629 42.442 3.49763 42.47 3.45096 42.526C3.40429 42.5727 3.38096 42.666 3.38096 42.806V48.588C3.38096 48.728 3.40429 48.826 3.45096 48.882C3.49763 48.9287 3.58629 48.952 3.71696 48.952H7.35696C7.48763 48.952 7.57629 48.9287 7.62296 48.882C7.66963 48.826 7.69296 48.728 7.69296 48.588V42.806C7.69296 42.666 7.66963 42.5727 7.62296 42.526C7.57629 42.47 7.48763 42.442 7.35696 42.442H3.71696ZM11.865 53.264C11.865 53.3947 11.7996 53.46 11.669 53.46H11.095C10.9643 53.46 10.899 53.3947 10.899 53.264V40.748C10.899 40.6173 10.9643 40.552 11.095 40.552H11.669C11.7996 40.552 11.865 40.6173 11.865 40.748V45.844H13.797C13.853 45.844 13.8996 45.8627 13.937 45.9C13.9836 45.928 14.007 45.97 14.007 46.026V46.502C14.007 46.5487 13.9836 46.5907 13.937 46.628C13.8996 46.6653 13.853 46.684 13.797 46.684H11.865V53.264ZM22.245 45.886C22.245 46.4087 22.1796 46.936 22.049 47.468C21.9276 48 21.7316 48.4807 21.461 48.91C21.1903 49.3393 20.8403 49.694 20.411 49.974C19.991 50.2447 19.4823 50.38 18.885 50.38C18.269 50.38 17.7463 50.2447 17.317 49.974C16.897 49.7033 16.5563 49.3533 16.295 48.924C16.043 48.4853 15.861 48 15.749 47.468C15.637 46.936 15.581 46.4087 15.581 45.886C15.581 45.3353 15.637 44.794 15.749 44.262C15.861 43.7207 16.043 43.2353 16.295 42.806C16.5563 42.3767 16.897 42.0313 17.317 41.77C17.7463 41.5087 18.269 41.378 18.885 41.378C19.4823 41.378 19.991 41.5087 20.411 41.77C20.8403 42.0313 21.1903 42.3767 21.461 42.806C21.7316 43.226 21.9276 43.7067 22.049 44.248C22.1796 44.78 22.245 45.326 22.245 45.886ZM21.251 45.872C21.251 45.4427 21.2043 45.0087 21.111 44.57C21.027 44.1313 20.8916 43.7393 20.705 43.394C20.5183 43.0393 20.2756 42.7547 19.977 42.54C19.6783 42.316 19.3143 42.204 18.885 42.204C18.437 42.204 18.0636 42.316 17.765 42.54C17.4756 42.7547 17.2423 43.0393 17.065 43.394C16.8876 43.7393 16.7616 44.1313 16.687 44.57C16.6123 45.0087 16.575 45.4427 16.575 45.872C16.575 46.2827 16.6076 46.7073 16.673 47.146C16.7476 47.5753 16.8736 47.972 17.051 48.336C17.2283 48.6907 17.4663 48.9847 17.765 49.218C18.0636 49.442 18.437 49.554 18.885 49.554C19.3143 49.554 19.6783 49.442 19.977 49.218C20.2756 48.9847 20.5183 48.6907 20.705 48.336C20.8916 47.972 21.027 47.5753 21.111 47.146C21.2043 46.7073 21.251 46.2827 21.251 45.872ZM25.521 53.264C25.521 53.3947 25.4556 53.46 25.325 53.46H24.751C24.6203 53.46 24.555 53.3947 24.555 53.264V40.748C24.555 40.6173 24.6203 40.552 24.751 40.552H25.325C25.4556 40.552 25.521 40.6173 25.521 40.748V53.264ZM34.613 48.532C34.7623 48.504 34.8417 48.5367 34.851 48.63L34.935 49.12C34.9537 49.232 34.893 49.2973 34.753 49.316C34.2397 49.4 33.7263 49.4747 33.213 49.54C32.709 49.596 32.1163 49.6427 31.435 49.68C30.9123 49.708 30.3523 49.7267 29.755 49.736C29.167 49.736 28.5977 49.7267 28.047 49.708C27.991 49.708 27.9397 49.6893 27.893 49.652C27.8557 49.6147 27.837 49.5727 27.837 49.526V49.064C27.837 49.008 27.8557 48.966 27.893 48.938C27.9397 48.9007 27.991 48.882 28.047 48.882C28.2617 48.9007 28.4857 48.91 28.719 48.91C28.9523 48.91 29.1903 48.91 29.433 48.91V42.554H28.173C28.1263 42.554 28.0797 42.5353 28.033 42.498C27.9957 42.4607 27.977 42.414 27.977 42.358V41.924C27.977 41.868 27.9957 41.8213 28.033 41.784C28.0797 41.7467 28.1263 41.728 28.173 41.728H34.165C34.305 41.728 34.375 41.7887 34.375 41.91V42.372C34.375 42.4933 34.305 42.554 34.165 42.554H33.255V48.742C33.4697 48.7233 33.6843 48.6953 33.899 48.658C34.123 48.6207 34.361 48.5787 34.613 48.532ZM35.747 45.116V40.986C35.747 40.8553 35.8123 40.79 35.943 40.79H36.475C36.6057 40.79 36.671 40.8553 36.671 40.986V52.732C36.671 52.8627 36.6057 52.928 36.475 52.928H35.943C35.8123 52.928 35.747 52.8627 35.747 52.732V45.956H34.193C34.0717 45.956 34.011 45.9 34.011 45.788V45.284C34.011 45.172 34.0717 45.116 34.193 45.116H35.747ZM31.407 48.854C31.5657 48.8447 31.7197 48.84 31.869 48.84C32.0183 48.8307 32.163 48.8213 32.303 48.812V42.554H30.385V48.896C30.553 48.896 30.721 48.8913 30.889 48.882C31.0663 48.8727 31.239 48.8633 31.407 48.854ZM39.149 53.264C39.149 53.3947 39.0837 53.46 38.953 53.46H38.421C38.2903 53.46 38.225 53.3947 38.225 53.264V40.748C38.225 40.6173 38.2903 40.552 38.421 40.552H38.953C39.0837 40.552 39.149 40.6173 39.149 40.748V53.264ZM48.577 45.886C48.577 46.4087 48.5117 46.936 48.381 47.468C48.2597 48 48.0637 48.4807 47.793 48.91C47.5223 49.3393 47.1723 49.694 46.743 49.974C46.323 50.2447 45.8143 50.38 45.217 50.38C44.601 50.38 44.0783 50.2447 43.649 49.974C43.229 49.7033 42.8883 49.3533 42.627 48.924C42.375 48.4853 42.193 48 42.081 47.468C41.969 46.936 41.913 46.4087 41.913 45.886C41.913 45.3353 41.969 44.794 42.081 44.262C42.193 43.7207 42.375 43.2353 42.627 42.806C42.8883 42.3767 43.229 42.0313 43.649 41.77C44.0783 41.5087 44.601 41.378 45.217 41.378C45.8143 41.378 46.323 41.5087 46.743 41.77C47.1723 42.0313 47.5223 42.3767 47.793 42.806C48.0637 43.226 48.2597 43.7067 48.381 44.248C48.5117 44.78 48.577 45.326 48.577 45.886ZM47.583 45.872C47.583 45.4427 47.5363 45.0087 47.443 44.57C47.359 44.1313 47.2237 43.7393 47.037 43.394C46.8503 43.0393 46.6077 42.7547 46.309 42.54C46.0103 42.316 45.6463 42.204 45.217 42.204C44.769 42.204 44.3957 42.316 44.097 42.54C43.8077 42.7547 43.5743 43.0393 43.397 43.394C43.2197 43.7393 43.0937 44.1313 43.019 44.57C42.9443 45.0087 42.907 45.4427 42.907 45.872C42.907 46.2827 42.9397 46.7073 43.005 47.146C43.0797 47.5753 43.2057 47.972 43.383 48.336C43.5603 48.6907 43.7983 48.9847 44.097 49.218C44.3957 49.442 44.769 49.554 45.217 49.554C45.6463 49.554 46.0103 49.442 46.309 49.218C46.6077 48.9847 46.8503 48.6907 47.037 48.336C47.2237 47.972 47.359 47.5753 47.443 47.146C47.5363 46.7073 47.583 46.2827 47.583 45.872ZM51.853 53.264C51.853 53.3947 51.7877 53.46 51.657 53.46H51.083C50.9523 53.46 50.887 53.3947 50.887 53.264V40.748C50.887 40.6173 50.9523 40.552 51.083 40.552H51.657C51.7877 40.552 51.853 40.6173 51.853 40.748V53.264ZM62.121 49.624C62.093 49.6707 62.0557 49.6987 62.009 49.708C61.9717 49.7173 61.9157 49.694 61.841 49.638C61.617 49.47 61.379 49.2787 61.127 49.064C60.875 48.84 60.6277 48.6067 60.385 48.364C60.1424 48.112 59.9044 47.8553 59.671 47.594C59.4377 47.3233 59.223 47.0573 59.027 46.796C58.5604 47.384 58.0284 47.9487 57.431 48.49C56.8337 49.022 56.1524 49.554 55.387 50.086C55.3404 50.114 55.2937 50.1373 55.247 50.156C55.2004 50.1653 55.163 50.1513 55.135 50.114L54.799 49.68C54.7617 49.6333 54.7477 49.5867 54.757 49.54C54.7664 49.484 54.7897 49.442 54.827 49.414C56.3204 48.3593 57.4824 47.2907 58.313 46.208C59.153 45.1253 59.7364 43.996 60.063 42.82C60.1004 42.6893 60.1004 42.596 60.063 42.54C60.035 42.4747 59.9557 42.442 59.825 42.442H55.583C55.471 42.442 55.415 42.3813 55.415 42.26V41.77C55.415 41.658 55.4804 41.602 55.611 41.602H60.203C60.6884 41.602 60.9964 41.686 61.127 41.854C61.2577 42.022 61.2577 42.3207 61.127 42.75C60.763 43.9447 60.2497 45.0413 59.587 46.04C59.8017 46.3387 60.0304 46.6327 60.273 46.922C60.5157 47.2113 60.7584 47.4867 61.001 47.748C61.2437 48 61.4864 48.2333 61.729 48.448C61.9717 48.6533 62.2004 48.826 62.415 48.966C62.4617 49.0033 62.485 49.0453 62.485 49.092C62.485 49.1387 62.471 49.1807 62.443 49.218L62.121 49.624ZM65.019 53.264C65.019 53.3947 64.9537 53.46 64.823 53.46H64.249C64.1184 53.46 64.053 53.3947 64.053 53.264V40.748C64.053 40.6173 64.1184 40.552 64.249 40.552H64.823C64.9537 40.552 65.019 40.6173 65.019 40.748V53.264Z" fill="#999999"/>
</svg>
