<svg width="20" height="20" viewBox="0 0 20 20" fill="none" xmlns="http://www.w3.org/2000/svg">
<circle cx="9.99984" cy="9.99984" r="8.33333" fill="#999999"/>
<path d="M7.08336 13.5417C6.92503 13.5417 6.7667 13.4834 6.6417 13.3584C6.40003 13.1167 6.40003 12.7167 6.6417 12.475L12.475 6.6417C12.7167 6.40003 13.1167 6.40003 13.3584 6.6417C13.6 6.88337 13.6 7.28336 13.3584 7.52503L7.52503 13.3584C7.40003 13.4834 7.2417 13.5417 7.08336 13.5417Z" fill="white"/>
<path d="M12.9167 13.5417C12.7584 13.5417 12.6 13.4834 12.475 13.3584L6.6417 7.52503C6.40003 7.28336 6.40003 6.88337 6.6417 6.6417C6.88337 6.40003 7.28336 6.40003 7.52503 6.6417L13.3584 12.475C13.6 12.7167 13.6 13.1167 13.3584 13.3584C13.2334 13.4834 13.075 13.5417 12.9167 13.5417Z" fill="white"/>
</svg>
