<svg width="70" height="60" viewBox="0 0 70 60" fill="none" xmlns="http://www.w3.org/2000/svg">
<path d="M37.5697 9C38.8741 9 39.9314 10.9843 39.9314 12.6653C39.9314 14.3463 38.8741 15.7095 37.5697 15.7095C36.2653 15.7095 35.208 14.3466 35.208 12.6653C35.208 10.984 36.2653 9 37.5697 9Z" fill="#E4E4E4"/>
<path d="M30.8597 9C32.1641 9 33.2214 10.9843 33.2214 12.6653C33.2214 14.3463 32.1641 15.7095 30.8597 15.7095C29.5554 15.7095 28.498 14.3466 28.498 12.6653C28.498 10.984 29.5554 9 30.8597 9Z" fill="#E4E4E4"/>
<path d="M23.7862 17.8653C23.2323 16.4785 23.4748 14.4836 24.5805 14.0419C25.6862 13.6003 27.2364 14.8789 27.7903 16.2657C28.3442 17.6525 27.8969 19.1349 26.7912 19.5766C25.6855 20.0183 24.34 19.2521 23.7862 17.8653Z" fill="#E4E4E4"/>
<path d="M44.6423 17.8653C44.0884 19.2521 42.743 20.0183 41.6372 19.5766C40.5315 19.1349 40.084 17.6525 40.6381 16.2657C41.192 14.8789 42.7422 13.6003 43.8479 14.0419C44.9536 14.4836 45.1962 16.4785 44.6423 17.8653Z" fill="#E4E4E4"/>
<path d="M42.6639 25.5265C42.4106 24.3908 41.8068 23.3665 41.139 22.417C39.5742 20.193 37.0677 17.9473 34.2145 17.9473C31.373 17.9473 28.8553 20.1925 27.29 22.417C26.6219 23.3665 26.0181 24.3905 25.765 25.5265C25.5116 26.6624 25.6503 27.9325 26.3539 28.8552C27.0575 29.7779 28.3904 30.2385 29.4326 29.7391C30.0522 29.4421 30.5537 28.8434 31.2374 28.7857C31.8649 28.7327 32.4195 29.1555 32.9431 29.5089C33.3215 29.7643 33.7776 29.9968 34.2145 29.9998C34.6513 29.9968 35.1074 29.7643 35.4858 29.5089C36.0092 29.1555 36.5638 28.733 37.1915 28.7857C37.8752 28.8431 38.3767 29.4421 38.9963 29.7391C40.0385 30.2385 41.3714 29.7779 42.075 28.8552C42.7786 27.9325 42.9173 26.6624 42.6639 25.5265ZM36.6999 24.1583C36.378 24.7465 35.87 25.2648 35.4409 25.6679C35.2103 25.8847 34.968 26.0874 34.7156 26.275C34.7151 26.2752 34.7146 26.2757 34.7141 26.276C34.4176 26.4943 34.0113 26.4943 33.7148 26.276C33.7143 26.2755 33.7138 26.2752 33.7133 26.275C33.4609 26.0877 33.2186 25.8847 32.988 25.6679C32.5589 25.2648 32.0509 24.7465 31.729 24.1583C31.463 23.6725 31.3241 23.1388 31.4617 22.5827C31.5936 22.0497 32.0144 21.5816 32.5302 21.516C33.1266 21.4404 33.8209 21.8601 34.2145 22.3422C34.6077 21.8601 35.3023 21.4404 35.8987 21.516C36.4146 21.5813 36.8353 22.0497 36.9672 22.5827C37.1048 23.1388 36.9659 23.6725 36.6999 24.1583Z" fill="#E4E4E4"/>
<path d="M27.068 40.696C27.068 41.06 27.0447 41.4147 26.998 41.76C26.9607 42.1053 26.9047 42.4413 26.83 42.768C26.942 43.1507 27.1007 43.5333 27.306 43.916C27.5207 44.2893 27.768 44.6487 28.048 44.994C28.3373 45.33 28.65 45.638 28.986 45.918C29.322 46.1887 29.6673 46.408 30.022 46.576C30.078 46.604 30.1013 46.6413 30.092 46.688C30.092 46.7347 30.0827 46.7813 30.064 46.828L29.784 47.29C29.756 47.3367 29.7233 47.3693 29.686 47.388C29.6487 47.4067 29.588 47.3927 29.504 47.346C29.2333 47.2153 28.9487 47.0287 28.65 46.786C28.3607 46.5433 28.0713 46.2773 27.782 45.988C27.502 45.6893 27.2407 45.3767 26.998 45.05C26.7553 44.714 26.5547 44.392 26.396 44.084C26.0787 44.84 25.6587 45.5307 25.136 46.156C24.6227 46.772 24.016 47.3087 23.316 47.766C23.2693 47.794 23.218 47.8127 23.162 47.822C23.106 47.8313 23.0593 47.8127 23.022 47.766L22.672 47.304C22.644 47.2667 22.6393 47.22 22.658 47.164C22.6767 47.108 22.7093 47.066 22.756 47.038C23.26 46.73 23.7173 46.3473 24.128 45.89C24.548 45.4327 24.9027 44.9287 25.192 44.378C25.4907 43.8273 25.7147 43.2393 25.864 42.614C26.0227 41.9793 26.0973 41.3353 26.088 40.682C26.088 40.5327 26.144 40.458 26.256 40.458L26.914 40.5C27.0167 40.5 27.068 40.5653 27.068 40.696ZM32.78 49.18C32.78 49.3107 32.7147 49.376 32.584 49.376H32.01C31.8793 49.376 31.814 49.3107 31.814 49.18V40.248C31.814 40.1173 31.8793 40.052 32.01 40.052H32.584C32.7147 40.052 32.78 40.1173 32.78 40.248V44.196H34.712C34.768 44.196 34.8147 44.2147 34.852 44.252C34.8987 44.28 34.922 44.322 34.922 44.378V44.854C34.922 44.9007 34.8987 44.9427 34.852 44.98C34.8147 45.0173 34.768 45.036 34.712 45.036H32.78V49.18ZM33.41 52.54C33.41 52.596 33.3867 52.638 33.34 52.666C33.2933 52.694 33.2467 52.708 33.2 52.708H25.99C25.5513 52.708 25.262 52.624 25.122 52.456C24.9913 52.2973 24.926 52.0267 24.926 51.644V48.9C24.926 48.7693 24.9913 48.704 25.122 48.704H25.696C25.8267 48.704 25.892 48.7693 25.892 48.9V51.574C25.892 51.7047 25.9107 51.784 25.948 51.812C25.9947 51.8493 26.0833 51.868 26.214 51.868H33.2C33.2467 51.868 33.2933 51.882 33.34 51.91C33.3867 51.9473 33.41 51.9893 33.41 52.036V52.54ZM44.196 47.528C44.196 47.6587 44.1307 47.724 44 47.724H43.468C43.3373 47.724 43.272 47.6587 43.272 47.528V40.486C43.272 40.3553 43.3373 40.29 43.468 40.29H44C44.1307 40.29 44.196 40.3553 44.196 40.486V43.72H45.974V40.248C45.974 40.1173 46.0393 40.052 46.17 40.052H46.702C46.8327 40.052 46.898 40.1173 46.898 40.248V47.766C46.898 47.8967 46.8327 47.962 46.702 47.962H46.17C46.0393 47.962 45.974 47.8967 45.974 47.766V44.56H44.196V47.528ZM41.536 43.426C41.2373 43.986 40.8593 44.518 40.402 45.022C40.7287 45.3487 41.0647 45.6427 41.41 45.904C41.7553 46.1653 42.1053 46.3893 42.46 46.576C42.5253 46.6133 42.558 46.66 42.558 46.716C42.5673 46.7627 42.5533 46.8093 42.516 46.856L42.18 47.332C42.152 47.3787 42.11 47.402 42.054 47.402C41.998 47.3927 41.9467 47.374 41.9 47.346C41.5733 47.15 41.2187 46.9027 40.836 46.604C40.4627 46.296 40.108 45.9787 39.772 45.652C39.324 46.0533 38.8293 46.422 38.288 46.758C37.756 47.094 37.182 47.3833 36.566 47.626C36.5193 47.6447 36.468 47.6587 36.412 47.668C36.3653 47.668 36.3327 47.6447 36.314 47.598L36.048 47.108C36.0293 47.0613 36.0293 47.0147 36.048 46.968C36.076 46.912 36.1133 46.8747 36.16 46.856C37.168 46.4267 38.0267 45.932 38.736 45.372C39.4453 44.812 40.024 44.182 40.472 43.482C40.5467 43.3607 40.556 43.272 40.5 43.216C40.4533 43.1507 40.3647 43.118 40.234 43.118H36.692C36.58 43.118 36.524 43.0573 36.524 42.936V42.446C36.524 42.334 36.58 42.278 36.692 42.278H40.612C41.0787 42.278 41.4007 42.3713 41.578 42.558C41.7553 42.7447 41.7413 43.034 41.536 43.426ZM38.316 48.844C38.316 48.788 38.3393 48.746 38.386 48.718C38.4327 48.69 38.4793 48.676 38.526 48.676H45.834C46.2727 48.676 46.5573 48.76 46.688 48.928C46.828 49.0867 46.898 49.3573 46.898 49.74V52.82C46.898 52.9507 46.8327 53.016 46.702 53.016H46.128C45.9973 53.016 45.932 52.9507 45.932 52.82V49.81C45.932 49.6793 45.9087 49.6 45.862 49.572C45.8247 49.5347 45.7407 49.516 45.61 49.516H38.526C38.4793 49.516 38.4327 49.502 38.386 49.474C38.3393 49.4367 38.316 49.3947 38.316 49.348V48.844ZM40.486 40.5C40.626 40.5 40.696 40.5653 40.696 40.696V41.144C40.696 41.284 40.626 41.354 40.486 41.354H37.728C37.588 41.354 37.518 41.284 37.518 41.144V40.696C37.518 40.5653 37.588 40.5 37.728 40.5H40.486Z" fill="#999999"/>
</svg>
