<svg width="70" height="60" viewBox="0 0 70 60" fill="none" xmlns="http://www.w3.org/2000/svg">
<path d="M37.5697 9C38.8741 9 39.9314 10.9843 39.9314 12.6653C39.9314 14.3463 38.8741 15.7095 37.5697 15.7095C36.2653 15.7095 35.208 14.3466 35.208 12.6653C35.208 10.984 36.2653 9 37.5697 9Z" fill="#FF9900"/>
<path d="M30.8597 9C32.1641 9 33.2214 10.9843 33.2214 12.6653C33.2214 14.3463 32.1641 15.7095 30.8597 15.7095C29.5554 15.7095 28.498 14.3466 28.498 12.6653C28.498 10.984 29.5554 9 30.8597 9Z" fill="#FF9900"/>
<path d="M23.7862 17.8653C23.2323 16.4785 23.4748 14.4836 24.5805 14.0419C25.6862 13.6003 27.2364 14.8789 27.7903 16.2657C28.3442 17.6525 27.8969 19.1349 26.7912 19.5766C25.6855 20.0183 24.34 19.2521 23.7862 17.8653Z" fill="#FF9900"/>
<path d="M44.6423 17.8653C44.0884 19.2521 42.743 20.0183 41.6372 19.5766C40.5315 19.1349 40.084 17.6525 40.6381 16.2657C41.192 14.8789 42.7422 13.6003 43.8479 14.0419C44.9536 14.4836 45.1962 16.4785 44.6423 17.8653Z" fill="#FF9900"/>
<path d="M42.6639 25.5265C42.4106 24.3908 41.8068 23.3665 41.139 22.417C39.5742 20.193 37.0677 17.9473 34.2145 17.9473C31.373 17.9473 28.8553 20.1925 27.29 22.417C26.6219 23.3665 26.0181 24.3905 25.765 25.5265C25.5116 26.6624 25.6503 27.9325 26.3539 28.8552C27.0575 29.7779 28.3904 30.2385 29.4326 29.7391C30.0522 29.4421 30.5537 28.8434 31.2374 28.7857C31.8649 28.7327 32.4195 29.1555 32.9431 29.5089C33.3215 29.7643 33.7776 29.9968 34.2145 29.9998C34.6513 29.9968 35.1074 29.7643 35.4858 29.5089C36.0092 29.1555 36.5638 28.733 37.1915 28.7857C37.8752 28.8431 38.3767 29.4421 38.9963 29.7391C40.0385 30.2385 41.3714 29.7779 42.075 28.8552C42.7786 27.9325 42.9173 26.6624 42.6639 25.5265ZM36.6999 24.1583C36.378 24.7465 35.87 25.2648 35.4409 25.6679C35.2103 25.8847 34.968 26.0874 34.7156 26.275C34.7151 26.2752 34.7146 26.2757 34.7141 26.276C34.4176 26.4943 34.0113 26.4943 33.7148 26.276C33.7143 26.2755 33.7138 26.2752 33.7133 26.275C33.4609 26.0877 33.2186 25.8847 32.988 25.6679C32.5589 25.2648 32.0509 24.7465 31.729 24.1583C31.463 23.6725 31.3241 23.1388 31.4617 22.5827C31.5936 22.0497 32.0144 21.5816 32.5302 21.516C33.1266 21.4404 33.8209 21.8601 34.2145 22.3422C34.6077 21.8601 35.3023 21.4404 35.8987 21.516C36.4146 21.5813 36.8353 22.0497 36.9672 22.5827C37.1048 23.1388 36.9659 23.6725 36.6999 24.1583Z" fill="#FF9900"/>
<path d="M23.526 47.822C23.4047 47.8967 23.3113 47.9247 23.246 47.906C23.1807 47.8873 23.12 47.8453 23.064 47.78L22.49 47.122C22.3967 47.0193 22.3593 46.9353 22.378 46.87C22.406 46.7953 22.462 46.73 22.546 46.674C23.0687 46.3193 23.526 45.946 23.918 45.554C24.31 45.1527 24.632 44.7093 24.884 44.224C25.1453 43.7387 25.3413 43.202 25.472 42.614C25.6027 42.0167 25.668 41.3447 25.668 40.598C25.668 40.5327 25.6913 40.4767 25.738 40.43C25.7847 40.374 25.8313 40.346 25.878 40.346L27.11 40.416C27.2313 40.416 27.292 40.486 27.292 40.626C27.292 41.0273 27.2733 41.4053 27.236 41.76C27.208 42.1147 27.1613 42.4553 27.096 42.782C27.208 43.174 27.376 43.552 27.6 43.916C27.824 44.2707 28.0713 44.5973 28.342 44.896C28.622 45.1947 28.9113 45.4607 29.21 45.694C29.5087 45.9273 29.7933 46.114 30.064 46.254C30.204 46.3287 30.2227 46.4407 30.12 46.59L29.588 47.346C29.5413 47.4113 29.4853 47.4533 29.42 47.472C29.364 47.4907 29.2987 47.4767 29.224 47.43C28.6453 47.1407 28.1133 46.7627 27.628 46.296C27.1427 45.82 26.7413 45.2973 26.424 44.728C26.1067 45.344 25.7053 45.904 25.22 46.408C24.744 46.9027 24.1793 47.374 23.526 47.822ZM35.062 45.302C35.062 45.3487 35.0387 45.3907 34.992 45.428C34.9547 45.4653 34.9127 45.484 34.866 45.484H32.962V49.18C32.962 49.3013 32.9013 49.362 32.78 49.362H31.534C31.4127 49.362 31.352 49.3013 31.352 49.18V40.108C31.352 39.9867 31.4127 39.926 31.534 39.926H32.78C32.9013 39.926 32.962 39.9867 32.962 40.108V44.14H34.866C34.9127 44.14 34.9547 44.1587 34.992 44.196C35.0387 44.224 35.062 44.2613 35.062 44.308V45.302ZM33.508 52.806C33.508 52.862 33.4847 52.904 33.438 52.932C33.4007 52.96 33.354 52.974 33.298 52.974H25.906C25.486 52.974 25.2013 52.8993 25.052 52.75C24.912 52.6007 24.842 52.344 24.842 51.98V48.914C24.842 48.8673 24.8607 48.8253 24.898 48.788C24.9447 48.7413 24.9913 48.718 25.038 48.718H26.242C26.298 48.718 26.3447 48.7413 26.382 48.788C26.4287 48.8253 26.452 48.8673 26.452 48.914V51.406C26.452 51.4993 26.4707 51.56 26.508 51.588C26.5453 51.616 26.6107 51.63 26.704 51.63H33.298C33.3447 51.63 33.3913 51.6487 33.438 51.686C33.4847 51.7233 33.508 51.7653 33.508 51.812V52.806ZM45.722 40.108C45.722 39.9867 45.7873 39.926 45.918 39.926H47.122C47.2433 39.926 47.304 39.9867 47.304 40.108V47.878C47.304 47.9993 47.2433 48.06 47.122 48.06H45.904C45.7827 48.06 45.722 47.9993 45.722 47.878V44.84H44.504V47.78C44.504 47.9013 44.4433 47.962 44.322 47.962H43.174C43.0433 47.962 42.978 47.9013 42.978 47.78V40.332C42.978 40.2107 43.0433 40.15 43.174 40.15H44.322C44.4433 40.15 44.504 40.2107 44.504 40.332V43.496H45.722V40.108ZM36.664 47.962C36.636 47.9807 36.58 47.99 36.496 47.99C36.412 47.99 36.3467 47.9527 36.3 47.878L35.852 47.206C35.8053 47.1407 35.796 47.066 35.824 46.982C35.852 46.898 35.9033 46.8373 35.978 46.8C36.3607 46.6227 36.748 46.408 37.14 46.156C37.532 45.904 37.896 45.638 38.232 45.358C38.5773 45.078 38.876 44.8027 39.128 44.532C39.38 44.252 39.562 44 39.674 43.776C39.702 43.7107 39.7207 43.6547 39.73 43.608C39.7487 43.5613 39.6927 43.538 39.562 43.538H36.58C36.524 43.538 36.4773 43.5147 36.44 43.468C36.412 43.412 36.398 43.3513 36.398 43.286V42.46C36.398 42.348 36.4633 42.292 36.594 42.292H40.57C40.9433 42.292 41.228 42.3387 41.424 42.432C41.62 42.516 41.718 42.684 41.718 42.936C41.718 43.0293 41.6947 43.1413 41.648 43.272C41.6107 43.4027 41.5687 43.5193 41.522 43.622C41.4193 43.846 41.284 44.0793 41.116 44.322C40.9573 44.5553 40.7707 44.798 40.556 45.05C40.836 45.3207 41.1347 45.5727 41.452 45.806C41.7693 46.03 42.0633 46.226 42.334 46.394C42.502 46.4967 42.5393 46.6133 42.446 46.744L41.942 47.458C41.8953 47.5047 41.8347 47.5373 41.76 47.556C41.6947 47.5653 41.6247 47.5467 41.55 47.5C41.2513 47.3413 40.9293 47.1267 40.584 46.856C40.2387 46.5853 39.9167 46.3007 39.618 46.002C39.198 46.394 38.7407 46.758 38.246 47.094C37.7513 47.43 37.224 47.7193 36.664 47.962ZM47.304 52.988C47.304 53.0347 47.2807 53.0767 47.234 53.114C47.1967 53.1607 47.1547 53.184 47.108 53.184H45.904C45.848 53.184 45.7967 53.1607 45.75 53.114C45.7127 53.0767 45.694 53.0347 45.694 52.988V50.174C45.694 50.0807 45.6753 50.02 45.638 49.992C45.6007 49.964 45.5307 49.95 45.428 49.95H38.47C38.4233 49.95 38.3767 49.936 38.33 49.908C38.2833 49.8707 38.26 49.8287 38.26 49.782V48.774C38.26 48.718 38.2833 48.676 38.33 48.648C38.3767 48.62 38.4233 48.606 38.47 48.606H46.38C46.7347 48.606 46.9773 48.6807 47.108 48.83C47.2387 48.97 47.304 49.2173 47.304 49.572V52.988ZM40.766 41.34C40.766 41.396 40.7427 41.4473 40.696 41.494C40.6587 41.5407 40.6073 41.564 40.542 41.564H37.602C37.5647 41.564 37.518 41.5453 37.462 41.508C37.4153 41.4707 37.392 41.4193 37.392 41.354V40.598C37.392 40.5233 37.4153 40.4673 37.462 40.43C37.518 40.3927 37.5647 40.374 37.602 40.374H40.542C40.598 40.374 40.6493 40.402 40.696 40.458C40.7427 40.5047 40.766 40.556 40.766 40.612V41.34Z" fill="#222222"/>
</svg>
