<svg width="300" height="52" viewBox="0 0 300 52" fill="none" xmlns="http://www.w3.org/2000/svg">
<rect x="0.5" y="0.5" width="299" height="51" rx="7.5" fill="white"/>
<rect x="0.5" y="0.5" width="299" height="51" rx="7.5" stroke="#E4E4E4"/>
<mask id="mask0_2_617" style="mask-type:luminance" maskUnits="userSpaceOnUse" x="16" y="16" width="20" height="20">
<path d="M36 16H16V36H36V16Z" fill="white"/>
</mask>
<g mask="url(#mask0_2_617)">
<path d="M35.6 26.2274C35.6 25.5183 35.5364 24.8365 35.4182 24.1819H26V28.0501H31.3818C31.15 29.3001 30.4455 30.3592 29.3864 31.0683V33.5774H32.6182C34.5091 31.8365 35.6 29.2728 35.6 26.2274Z" fill="#4285F4"/>
<path d="M26 35.9999C28.7 35.9999 30.9636 35.1044 32.6181 33.5772L29.3863 31.0681C28.4909 31.6681 27.3454 32.0226 26 32.0226C23.3954 32.0226 21.1909 30.2635 20.4045 27.8999H17.0636V30.4908C18.7091 33.759 22.0909 35.9999 26 35.9999Z" fill="#34A853"/>
<path d="M20.4045 27.8999C20.2045 27.2999 20.0909 26.659 20.0909 25.9999C20.0909 25.3408 20.2045 24.6999 20.4045 24.0999V21.509H17.0636C16.3864 22.859 16 24.3863 16 25.9999C16 27.6135 16.3864 29.1408 17.0636 30.4908L20.4045 27.8999Z" fill="#FBBC04"/>
<path d="M26 19.9773C27.4681 19.9773 28.7863 20.4818 29.8227 21.4727L32.6909 18.6045C30.9591 16.9909 28.6954 16 26 16C22.0909 16 18.7091 18.2409 17.0636 21.5091L20.4045 24.1C21.1909 21.7364 23.3954 19.9773 26 19.9773Z" fill="#E94235"/>
</g>
<path d="M98.6842 18.456H107.964V20.136H98.6842V18.456ZM97.1482 24.76H110.556V26.488H97.1482V24.76ZM102.7 25.976H104.844V32.424H102.7V25.976ZM106.876 18.456H108.972V19.768C108.972 20.3013 108.962 20.8667 108.94 21.464C108.93 22.0613 108.887 22.7173 108.812 23.432C108.738 24.136 108.599 24.9253 108.396 25.8L106.316 25.544C106.594 24.3173 106.754 23.2453 106.796 22.328C106.85 21.4 106.876 20.5467 106.876 19.768V18.456ZM113.515 18.184H122.891V19.864H113.515V18.184ZM111.867 22.808H125.291V24.504H111.867V22.808ZM121.611 18.184H123.707V19.192C123.707 19.7253 123.691 20.3333 123.659 21.016C123.627 21.688 123.515 22.456 123.323 23.32L121.227 23.128C121.419 22.2853 121.531 21.5493 121.563 20.92C121.595 20.2907 121.611 19.7147 121.611 19.192V18.184ZM113.355 25.512H123.675V29.672H115.499V31.176H113.371V28.104H121.547V27.144H113.355V25.512ZM113.371 30.664H124.059V32.312H113.371V30.664ZM126.586 29.064H140.01V30.792H126.586V29.064ZM132.218 26.248H134.33V29.752H132.218V26.248ZM128.106 18.552H138.49V23.496H130.234V25.976H128.122V21.832H136.378V20.248H128.106V18.552ZM128.122 25.144H138.826V26.84H128.122V25.144ZM148.889 18.744H150.633V20.888C150.633 21.848 150.547 22.7707 150.377 23.656C150.206 24.5307 149.945 25.352 149.593 26.12C149.251 26.8773 148.809 27.5493 148.265 28.136C147.731 28.712 147.097 29.1707 146.361 29.512L145.097 27.752C145.747 27.464 146.307 27.0853 146.777 26.616C147.257 26.136 147.651 25.592 147.961 24.984C148.27 24.3653 148.499 23.7093 148.649 23.016C148.809 22.3227 148.889 21.6133 148.889 20.888V18.744ZM149.305 18.744H151.033V20.888C151.033 21.5813 151.107 22.2587 151.257 22.92C151.406 23.5813 151.63 24.2053 151.929 24.792C152.238 25.3787 152.622 25.9013 153.081 26.36C153.55 26.808 154.099 27.1653 154.729 27.432L153.497 29.16C152.782 28.8293 152.158 28.3867 151.625 27.832C151.102 27.2773 150.67 26.6373 150.329 25.912C149.987 25.176 149.731 24.3867 149.561 23.544C149.39 22.6907 149.305 21.8053 149.305 20.888V18.744ZM155.449 17.576H157.577V32.44H155.449V17.576ZM163.304 19.112H165.048V20.04C165.048 20.9787 164.893 21.864 164.584 22.696C164.285 23.528 163.826 24.2587 163.208 24.888C162.6 25.5067 161.826 25.9707 160.888 26.28L159.784 24.632C160.605 24.3547 161.272 23.976 161.784 23.496C162.306 23.016 162.69 22.4773 162.936 21.88C163.181 21.272 163.304 20.6587 163.304 20.04V19.112ZM163.72 19.112H165.448V20.04C165.448 20.616 165.565 21.192 165.8 21.768C166.034 22.3333 166.402 22.8453 166.904 23.304C167.416 23.752 168.066 24.104 168.856 24.36L167.784 26.024C166.856 25.7253 166.093 25.272 165.496 24.664C164.898 24.056 164.45 23.3573 164.152 22.568C163.864 21.768 163.72 20.9253 163.72 20.04V19.112ZM160.344 18.472H168.36V20.168H160.344V18.472ZM169.528 17.608H171.656V26.52H169.528V17.608ZM171.08 21.176H173.624V22.936H171.08V21.176ZM161.768 27.176H171.656V32.424H169.528V28.872H161.768V27.176ZM184.214 17.608H186.342V32.424H184.214V17.608ZM185.862 23.384H188.47V25.144H185.862V23.384ZM174.646 19.784H183.286V21.48H174.646V19.784ZM178.998 22.328C179.713 22.328 180.353 22.4827 180.918 22.792C181.484 23.0907 181.926 23.5013 182.246 24.024C182.577 24.5467 182.742 25.1547 182.742 25.848C182.742 26.5413 182.577 27.1547 182.246 27.688C181.926 28.2107 181.484 28.6267 180.918 28.936C180.364 29.2347 179.724 29.384 178.998 29.384C178.284 29.384 177.638 29.2347 177.062 28.936C176.497 28.6267 176.049 28.2107 175.718 27.688C175.398 27.1547 175.238 26.5413 175.238 25.848C175.238 25.1547 175.398 24.5467 175.718 24.024C176.049 23.5013 176.497 23.0907 177.062 22.792C177.638 22.4827 178.284 22.328 178.998 22.328ZM178.998 24.056C178.657 24.056 178.358 24.1253 178.102 24.264C177.846 24.4027 177.644 24.6053 177.494 24.872C177.345 25.1387 177.27 25.464 177.27 25.848C177.27 26.2213 177.345 26.5467 177.494 26.824C177.644 27.0907 177.846 27.2987 178.102 27.448C178.358 27.5867 178.657 27.656 178.998 27.656C179.329 27.656 179.622 27.5867 179.878 27.448C180.134 27.2987 180.337 27.0907 180.486 26.824C180.636 26.5467 180.71 26.2213 180.71 25.848C180.71 25.464 180.636 25.1387 180.486 24.872C180.337 24.6053 180.134 24.4027 179.878 24.264C179.622 24.1253 179.329 24.056 178.998 24.056ZM177.91 17.848H180.054V20.44H177.91V17.848ZM199.653 17.592H201.781V32.408H199.653V17.592ZM195.285 19.128H197.381C197.381 20.2587 197.269 21.3413 197.045 22.376C196.832 23.4 196.469 24.3653 195.957 25.272C195.456 26.1787 194.762 27.0213 193.877 27.8C193.002 28.568 191.909 29.272 190.597 29.912L189.477 28.232C190.906 27.5387 192.042 26.776 192.885 25.944C193.738 25.1013 194.352 24.152 194.725 23.096C195.098 22.0293 195.285 20.8347 195.285 19.512V19.128ZM190.277 19.128H196.277V20.824H190.277V19.128Z" fill="black"/>
</svg>
