<svg width="22" height="22" viewBox="0 0 22 22" fill="none" xmlns="http://www.w3.org/2000/svg">
<path d="M8.0463 19.9627H13.5463C18.1296 19.9627 19.963 18.1294 19.963 13.5461V8.04606C19.963 3.46273 18.1296 1.62939 13.5463 1.62939H8.0463C3.46297 1.62939 1.62964 3.46273 1.62964 8.04606V13.5461C1.62964 18.1294 3.46297 19.9627 8.0463 19.9627Z" stroke="#FF9900" stroke-width="1.2" stroke-linecap="round" stroke-linejoin="round"/>
<path d="M6.51849 7.74083C7.1935 7.74083 7.74071 7.19362 7.74071 6.51861C7.74071 5.84359 7.1935 5.29639 6.51849 5.29639C5.84347 5.29639 5.29626 5.84359 5.29626 6.51861C5.29626 7.19362 5.84347 7.74083 6.51849 7.74083Z" stroke="#FF9900" stroke-width="1.2" stroke-linecap="round" stroke-linejoin="round"/>
<path d="M2.2439 17.1671L6.76306 14.1329C7.48723 13.6471 8.53223 13.7021 9.18306 14.2612L9.48556 14.5271C10.2006 15.1412 11.3556 15.1412 12.0706 14.5271L15.8839 11.2546C16.5989 10.6404 17.7539 10.6404 18.4689 11.2546L19.9631 12.5379" stroke="#FF9900" stroke-width="1.2" stroke-linecap="round" stroke-linejoin="round"/>
</svg>
