<svg width="300" height="52" viewBox="0 0 300 52" fill="none" xmlns="http://www.w3.org/2000/svg">
<rect width="300" height="52" rx="8" fill="#03C75A"/>
<path d="M90.3488 19.016H92.4448V27.624H90.3488V19.016ZM90.3488 27.08H91.3888C92.2741 27.08 93.1115 27.0533 93.9008 27C94.7008 26.9467 95.5275 26.8347 96.3808 26.664L96.6528 28.44C95.7675 28.6213 94.9035 28.7387 94.0608 28.792C93.2181 28.8453 92.3275 28.872 91.3888 28.872H90.3488V27.08ZM100.509 17.592H102.541V32.408H100.509V17.592ZM94.4608 22.28H97.8528V23.992H94.4608V22.28ZM97.3728 17.848H99.3568V31.752H97.3728V17.848ZM114.668 17.576H116.796V32.44H114.668V17.576ZM108.812 18.616C109.569 18.616 110.241 18.8347 110.828 19.272C111.414 19.6987 111.873 20.312 112.204 21.112C112.545 21.9013 112.716 22.8347 112.716 23.912C112.716 25 112.545 25.944 112.204 26.744C111.873 27.5333 111.414 28.1467 110.828 28.584C110.241 29.0107 109.569 29.224 108.812 29.224C108.065 29.224 107.398 29.0107 106.812 28.584C106.225 28.1467 105.761 27.5333 105.42 26.744C105.089 25.944 104.924 25 104.924 23.912C104.924 22.8347 105.089 21.9013 105.42 21.112C105.761 20.312 106.225 19.6987 106.812 19.272C107.398 18.8347 108.065 18.616 108.812 18.616ZM108.812 20.552C108.449 20.552 108.129 20.68 107.852 20.936C107.574 21.192 107.356 21.5707 107.196 22.072C107.046 22.5627 106.972 23.176 106.972 23.912C106.972 24.6373 107.046 25.256 107.196 25.768C107.356 26.2693 107.574 26.648 107.852 26.904C108.129 27.16 108.449 27.288 108.812 27.288C109.185 27.288 109.51 27.16 109.788 26.904C110.065 26.648 110.278 26.2693 110.428 25.768C110.588 25.256 110.668 24.6373 110.668 23.912C110.668 23.176 110.588 22.5627 110.428 22.072C110.278 21.5707 110.065 21.192 109.788 20.936C109.51 20.68 109.185 20.552 108.812 20.552ZM129.53 17.576H131.658V32.44H129.53V17.576ZM126.17 22.792H130.138V24.504H126.17V22.792ZM119.77 18.744H121.882V22.344H124.794V18.744H126.89V28.952H119.77V18.744ZM121.882 23.992V27.256H124.794V23.992H121.882ZM133.945 29.064H147.369V30.792H133.945V29.064ZM139.577 26.248H141.689V29.752H139.577V26.248ZM135.465 18.552H145.849V23.496H137.593V25.976H135.481V21.832H143.737V20.248H135.465V18.552ZM135.481 25.144H146.185V26.84H135.481V25.144ZM156.248 18.744H157.992V20.888C157.992 21.848 157.907 22.7707 157.736 23.656C157.566 24.5307 157.304 25.352 156.952 26.12C156.611 26.8773 156.168 27.5493 155.624 28.136C155.091 28.712 154.456 29.1707 153.72 29.512L152.456 27.752C153.107 27.464 153.667 27.0853 154.136 26.616C154.616 26.136 155.011 25.592 155.32 24.984C155.63 24.3653 155.859 23.7093 156.008 23.016C156.168 22.3227 156.248 21.6133 156.248 20.888V18.744ZM156.664 18.744H158.392V20.888C158.392 21.5813 158.467 22.2587 158.616 22.92C158.766 23.5813 158.99 24.2053 159.288 24.792C159.598 25.3787 159.982 25.9013 160.44 26.36C160.91 26.808 161.459 27.1653 162.088 27.432L160.856 29.16C160.142 28.8293 159.518 28.3867 158.984 27.832C158.462 27.2773 158.03 26.6373 157.688 25.912C157.347 25.176 157.091 24.3867 156.92 23.544C156.75 22.6907 156.664 21.8053 156.664 20.888V18.744ZM162.808 17.576H164.936V32.44H162.808V17.576ZM170.663 19.112H172.407V20.04C172.407 20.9787 172.252 21.864 171.943 22.696C171.644 23.528 171.186 24.2587 170.567 24.888C169.959 25.5067 169.186 25.9707 168.247 26.28L167.143 24.632C167.964 24.3547 168.631 23.976 169.143 23.496C169.666 23.016 170.05 22.4773 170.295 21.88C170.54 21.272 170.663 20.6587 170.663 20.04V19.112ZM171.079 19.112H172.807V20.04C172.807 20.616 172.924 21.192 173.159 21.768C173.394 22.3333 173.762 22.8453 174.263 23.304C174.775 23.752 175.426 24.104 176.215 24.36L175.143 26.024C174.215 25.7253 173.452 25.272 172.855 24.664C172.258 24.056 171.81 23.3573 171.511 22.568C171.223 21.768 171.079 20.9253 171.079 20.04V19.112ZM167.703 18.472H175.719V20.168H167.703V18.472ZM176.887 17.608H179.015V26.52H176.887V17.608ZM178.439 21.176H180.983V22.936H178.439V21.176ZM169.127 27.176H179.015V32.424H176.887V28.872H169.127V27.176ZM191.574 17.608H193.702V32.424H191.574V17.608ZM193.222 23.384H195.83V25.144H193.222V23.384ZM182.006 19.784H190.646V21.48H182.006V19.784ZM186.358 22.328C187.072 22.328 187.712 22.4827 188.278 22.792C188.843 23.0907 189.286 23.5013 189.606 24.024C189.936 24.5467 190.102 25.1547 190.102 25.848C190.102 26.5413 189.936 27.1547 189.606 27.688C189.286 28.2107 188.843 28.6267 188.278 28.936C187.723 29.2347 187.083 29.384 186.358 29.384C185.643 29.384 184.998 29.2347 184.422 28.936C183.856 28.6267 183.408 28.2107 183.078 27.688C182.758 27.1547 182.598 26.5413 182.598 25.848C182.598 25.1547 182.758 24.5467 183.078 24.024C183.408 23.5013 183.856 23.0907 184.422 22.792C184.998 22.4827 185.643 22.328 186.358 22.328ZM186.358 24.056C186.016 24.056 185.718 24.1253 185.462 24.264C185.206 24.4027 185.003 24.6053 184.854 24.872C184.704 25.1387 184.63 25.464 184.63 25.848C184.63 26.2213 184.704 26.5467 184.854 26.824C185.003 27.0907 185.206 27.2987 185.462 27.448C185.718 27.5867 186.016 27.656 186.358 27.656C186.688 27.656 186.982 27.5867 187.238 27.448C187.494 27.2987 187.696 27.0907 187.846 26.824C187.995 26.5467 188.07 26.2213 188.07 25.848C188.07 25.464 187.995 25.1387 187.846 24.872C187.696 24.6053 187.494 24.4027 187.238 24.264C186.982 24.1253 186.688 24.056 186.358 24.056ZM185.27 17.848H187.414V20.44H185.27V17.848ZM207.012 17.592H209.14V32.408H207.012V17.592ZM202.644 19.128H204.74C204.74 20.2587 204.628 21.3413 204.404 22.376C204.191 23.4 203.828 24.3653 203.316 25.272C202.815 26.1787 202.122 27.0213 201.236 27.8C200.362 28.568 199.268 29.272 197.956 29.912L196.836 28.232C198.266 27.5387 199.402 26.776 200.244 25.944C201.098 25.1013 201.711 24.152 202.084 23.096C202.458 22.0293 202.644 20.8347 202.644 19.512V19.128ZM197.636 19.128H203.636V20.824H197.636V19.128Z" fill="white"/>
<path d="M28.88 26.6951L23.465 19H19V33.4401H23.75V25.745L29.165 33.4401H33.63V19H28.88V26.6951Z" fill="white"/>
</svg>
