<svg width="36" height="36" viewBox="0 0 36 36" fill="none" xmlns="http://www.w3.org/2000/svg">
<g clip-path="url(#clip0_2_2978)">
<circle cx="18" cy="18" r="18" fill="#E4E4E4"/>
<path fill-rule="evenodd" clip-rule="evenodd" d="M16.1301 26.5H20.2037C23.0647 26.5 24.4956 26.5 25.5232 25.8263C25.9665 25.5357 26.3484 25.1607 26.647 24.7226C27.3336 23.7143 27.3336 22.309 27.3336 19.5004C27.3336 16.6908 27.3336 15.2865 26.647 14.2781C26.3484 13.8401 25.9666 13.465 25.5232 13.1745C24.8632 12.7409 24.0363 12.586 22.7704 12.531C22.1663 12.531 21.6466 12.0818 21.5283 11.4997C21.438 11.0733 21.2032 10.6912 20.8636 10.418C20.5241 10.1448 20.1006 9.99712 19.6647 10H16.6691C15.7634 10 14.9833 10.628 14.8055 11.4997C14.6872 12.0818 14.1675 12.531 13.5634 12.531C12.2984 12.586 11.4716 12.7418 10.8107 13.1745C10.3676 13.4651 9.986 13.8401 9.68774 14.2781C9.00024 15.2865 9.00024 16.6908 9.00024 19.5004C9.00024 22.309 9.00024 23.7134 9.68683 24.7226C9.98383 25.159 10.3652 25.5339 10.8107 25.8263C11.8382 26.5 13.2692 26.5 16.1301 26.5ZM18.1669 15.7503C16.0577 15.7503 14.3472 17.4287 14.3472 19.4995C14.3472 21.5711 16.0577 23.2505 18.1669 23.2505C20.2762 23.2505 21.9867 21.5711 21.9867 19.5004C21.9867 17.4287 20.2762 15.7503 18.1669 15.7503ZM18.1669 17.25C16.9019 17.25 15.8752 18.2574 15.8752 19.5004C15.8752 20.7425 16.9019 21.7499 18.1669 21.7499C19.4319 21.7499 20.4586 20.7425 20.4586 19.5004C20.4586 18.2574 19.4319 17.25 18.1669 17.25ZM22.4954 16.5001C22.4954 16.0858 22.8373 15.7503 23.2599 15.7503H24.2774C24.6991 15.7503 25.0419 16.0858 25.0419 16.5001C25.04 16.7008 24.9585 16.8925 24.8153 17.0331C24.6721 17.1737 24.479 17.2517 24.2783 17.25H23.2599C23.1605 17.2509 23.0618 17.2323 22.9696 17.1951C22.8774 17.158 22.7933 17.103 22.7224 17.0334C22.6514 16.9638 22.5948 16.8808 22.5558 16.7893C22.5169 16.6978 22.4964 16.5996 22.4954 16.5001Z" fill="#222222"/>
</g>
<defs>
<clipPath id="clip0_2_2978">
<rect width="36" height="36" fill="white"/>
</clipPath>
</defs>
</svg>
