<svg width="108" height="100" viewBox="0 0 108 100" fill="none" xmlns="http://www.w3.org/2000/svg">
<g clip-path="url(#clip0_631_1350)" filter="url(#filter0_d_631_1350)">
<path d="M65.7624 33.6897C65.7544 33.6897 65.7471 33.6909 65.7391 33.6909C65.7422 33.5358 65.7624 33.385 65.7624 33.2292C65.7624 20.9524 55.81 11 43.5332 11C31.2564 11 21.3039 20.9524 21.3039 33.2292C21.3039 33.244 21.3064 33.2574 21.3064 33.2722C11.6765 33.7191 4 41.6451 4 51.386C4 61.4139 12.129 69.5428 22.1568 69.5428H65.7624C75.6633 69.5428 83.6893 61.5169 83.6893 51.616C83.6887 41.7157 75.6627 33.6897 65.7624 33.6897Z" fill="#82D2EC"/>
<path d="M86.073 53.3733C86.065 53.3733 86.0576 53.3745 86.0497 53.3745C86.0527 53.2194 86.073 53.0686 86.073 52.9128C86.073 40.636 76.1205 30.6836 63.8437 30.6836C51.5669 30.6836 41.6145 40.636 41.6145 52.9128C41.6145 52.9275 41.6169 52.941 41.6169 52.9558C31.9864 53.4027 24.3105 61.3294 24.3105 71.0696C24.3105 81.0975 32.4395 89.2264 42.4673 89.2264H86.073C95.9739 89.2264 104 81.2005 104 71.2996C103.999 61.3993 95.9733 53.3733 86.073 53.3733Z" fill="#42BFEC"/>
</g>
<defs>
<filter id="filter0_d_631_1350" x="0" y="0" width="108" height="108" filterUnits="userSpaceOnUse" color-interpolation-filters="sRGB">
<feFlood flood-opacity="0" result="BackgroundImageFix"/>
<feColorMatrix in="SourceAlpha" type="matrix" values="0 0 0 0 0 0 0 0 0 0 0 0 0 0 0 0 0 0 127 0" result="hardAlpha"/>
<feOffset dy="4"/>
<feGaussianBlur stdDeviation="2"/>
<feComposite in2="hardAlpha" operator="out"/>
<feColorMatrix type="matrix" values="0 0 0 0 0 0 0 0 0 0 0 0 0 0 0 0 0 0 0.25 0"/>
<feBlend mode="normal" in2="BackgroundImageFix" result="effect1_dropShadow_631_1350"/>
<feBlend mode="normal" in="SourceGraphic" in2="effect1_dropShadow_631_1350" result="shape"/>
</filter>
<clipPath id="clip0_631_1350">
<rect width="100" height="100" fill="white" transform="translate(4)"/>
</clipPath>
</defs>
</svg>
