<svg width="48" height="48" viewBox="0 0 48 48" fill="none" xmlns="http://www.w3.org/2000/svg">
<path fill-rule="evenodd" clip-rule="evenodd" d="M18.2197 19.2803C17.9268 18.9874 17.9268 18.5126 18.2197 18.2197C18.5126 17.9268 18.9874 17.9268 19.2803 18.2197L24.1156 23.0549L28.9509 18.2197C29.2438 17.9268 29.7186 17.9268 30.0115 18.2197C30.3044 18.5126 30.3044 18.9874 30.0115 19.2803L25.1763 24.1156L30.0113 28.9507C30.3042 29.2436 30.3042 29.7184 30.0113 30.0113C29.7184 30.3042 29.2436 30.3042 28.9507 30.0113L24.1156 25.1763L19.2805 30.0113C18.9877 30.3042 18.5128 30.3042 18.2199 30.0113C17.927 29.7184 17.927 29.2436 18.2199 28.9507L23.0549 24.1156L18.2197 19.2803Z" fill="#222222"/>
</svg>
