<svg width="1220" height="1220" viewBox="0 0 1220 1220" fill="none" xmlns="http://www.w3.org/2000/svg">
<rect width="1220" height="1220" fill="white"/>
<path d="M251.841 825.079C492.012 803.982 370.636 651.957 268.681 769.386C268.668 769.349 268.695 769.423 268.681 769.386C268.364 768.5 275.833 783.032 272.938 793.299C272.777 793.869 270.637 794.445 270.457 795.028C267.767 803.71 259.884 813.825 251.841 825.079Z" fill="#FF8787"/>
<path d="M849.857 397.352C1041.96 303.724 849.857 171.775 849.857 171.775V262.367V397.352Z" fill="white"/>
<path d="M251.841 825.079C492.012 803.982 370.636 651.957 268.681 769.386C268.668 769.349 268.695 769.423 268.681 769.386C268.364 768.5 275.833 783.032 272.938 793.299C272.777 793.869 270.637 794.445 270.457 795.028C267.767 803.71 259.884 813.825 251.841 825.079Z" fill="#FF8787"/>
<path d="M849.857 397.352C1041.96 303.724 849.857 171.775 849.857 171.775V262.367V397.352Z" fill="white"/>
<path d="M268.681 769.386C370.636 651.957 492.012 803.982 251.841 825.079C259.884 813.825 267.767 803.71 270.457 795.028M268.681 769.386C270.76 775.194 270.744 794.102 270.457 795.028M268.681 769.386C268.668 769.349 268.695 769.423 268.681 769.386ZM268.681 769.386C268.364 768.5 275.833 783.032 272.938 793.299M272.938 793.299C296.195 783.918 317.721 779.123 317.721 779.123M272.938 793.299C272.777 793.869 270.637 794.445 270.457 795.028M406.833 955.099L342.335 1001.38M520.565 1033.38C520.565 1033.38 474.831 1067.6 448.682 1083.85L381.723 1125.45C300.978 1141.21 196.108 1048.14 286.7 1033.38L342.335 1001.38M289.162 950.176C289.162 950.176 281.777 939.142 281.777 922.112C281.777 922.112 185.094 930.977 137.628 916.54M289.162 950.176C294.085 964.454 342.335 1001.38 342.335 1001.38M289.162 950.176L234.511 991.533L183.8 1019.6C95.6698 1009.75 178.482 1129 260.212 1113.24L283.375 1103.95M1055.23 630.832C1055.23 758.195 839.113 1001.87 659.899 1051.11M1055.23 630.832L1209.36 551.867C1216.25 531.189 1167.02 467.184 1094.15 476.046L1032.11 504.602C1020.3 475.061 979.493 426.115 955.743 416.061C931.994 406.008 887.783 390.943 849.857 397.352M1055.23 630.832C1055.23 757.028 847.587 994.582 669.444 1046.82C666.504 1047.69 663.702 1049.53 660.852 1050.66C635.604 1060.65 500.15 1076.7 483.146 1060.58M137.628 916.54C137.628 916.54 21.2815 867.505 15.9091 769.386C6.05845 589.479 148.843 607.995 148.843 607.995C148.843 439.075 215.668 322.469 248.668 274.709C305.409 114.663 331.504 134.685 413.726 93C413.726 203.947 408.526 230.835 372.111 239.97M137.628 916.54C225.705 867.481 270.457 795.028 270.457 795.028M849.857 397.352C743.367 415.339 671.735 453.354 600.515 593.414C612.764 527.295 648.083 396.778 563.399 303.724L726.858 134.357C726.858 134.357 476.746 84.1377 444.927 243.567C431.235 238.961 412.396 234.852 372.111 239.97M849.857 397.352C1041.96 303.724 849.857 171.775 849.857 171.775V262.367V397.352ZM331.996 243.567C339.309 241.739 341.968 244.789 348.816 243.567M331.996 243.567C332.026 243.559 331.966 243.574 331.996 243.567ZM348.816 243.567C357.11 242.817 364.895 241.78 372.111 239.97M348.816 243.567C357.301 242.052 365.037 240.869 372.111 239.97" stroke="black" stroke-width="20" stroke-linecap="round"/>
<path d="M388.142 494.747C388.142 510.514 376.455 523.296 362.038 523.296C347.621 523.296 335.934 510.514 335.934 494.747C335.934 478.981 347.621 466.199 362.038 466.199C376.455 466.199 388.142 478.981 388.142 494.747Z" fill="black"/>
<ellipse cx="221.227" cy="520.349" rx="26.1043" ry="28.5482" fill="black"/>
<path d="M103.193 634.125C113.616 648.013 105.429 674.217 84.9061 692.653C64.3833 711.09 39.2964 714.777 28.873 700.889C18.4497 687.001 26.6369 660.798 47.1597 642.361C67.6825 623.925 92.7693 620.237 103.193 634.125Z" fill="black"/>
</svg>
