<svg width="48" height="48" viewBox="0 0 48 48" fill="none" xmlns="http://www.w3.org/2000/svg">
<path d="M23.1066 16.7866H17.5793C17.1604 16.7866 16.7587 16.953 16.4626 17.2492C16.1664 17.5453 16 17.947 16 18.3659V29.4206C16 29.8395 16.1664 30.2412 16.4626 30.5373C16.7587 30.8335 17.1604 30.9999 17.5793 30.9999H28.634C29.0529 30.9999 29.4545 30.8335 29.7507 30.5373C30.0469 30.2412 30.2133 29.8395 30.2133 29.4206V23.8933" stroke="#222222" stroke-width="1.5" stroke-linecap="round" stroke-linejoin="round"/>
<path d="M28.4314 16.4906C28.7455 16.1765 29.1716 16 29.6158 16C30.0601 16 30.4861 16.1765 30.8003 16.4906C31.1144 16.8047 31.2909 17.2308 31.2909 17.675C31.2909 18.1193 31.1144 18.5454 30.8003 18.8595L23.3975 26.2622L20.239 27.0519L21.0286 23.8934L28.4314 16.4906Z" stroke="#222222" stroke-width="1.5" stroke-linecap="round" stroke-linejoin="round"/>
</svg>
