<svg width="19" height="19" viewBox="0 0 19 19" fill="none" xmlns="http://www.w3.org/2000/svg">
<g id="Group">
<path id="Vector" d="M12.5579 0.833496C13.6449 0.833496 14.526 2.48708 14.526 3.88793C14.526 5.28878 13.6449 6.42471 12.5579 6.42471C11.4709 6.42471 10.5898 5.28899 10.5898 3.88793C10.5898 2.48687 11.4709 0.833496 12.5579 0.833496Z" fill="#FF9900"/>
<path id="Vector_2" d="M6.96625 0.833496C8.05323 0.833496 8.93433 2.48708 8.93433 3.88793C8.93433 5.28878 8.05323 6.42471 6.96625 6.42471C5.87927 6.42471 4.99817 5.28899 4.99817 3.88793C4.99817 2.48687 5.87927 0.833496 6.96625 0.833496Z" fill="#FF9900"/>
<path id="Vector_3" d="M1.07183 8.22208C0.610276 7.0664 0.812378 5.40399 1.73381 5.03592C2.65525 4.66785 3.94706 5.73341 4.40862 6.88909C4.87018 8.04477 4.49749 9.28007 3.57605 9.64814C2.65462 10.0162 1.53339 9.37776 1.07183 8.22208Z" fill="#FF9900"/>
<path id="Vector_4" d="M18.4523 8.22208C17.9907 9.37776 16.8695 10.0162 15.9481 9.64814C15.0266 9.28007 14.6537 8.04477 15.1155 6.88909C15.577 5.73341 16.8689 4.66785 17.7903 5.03592C18.7117 5.40399 18.9138 7.0664 18.4523 8.22208Z" fill="#FF9900"/>
<path id="Vector_5" d="M16.8034 14.606C16.5923 13.6596 16.0891 12.806 15.5326 12.0149C14.2286 10.1615 12.14 8.29004 9.76221 8.29004C7.39433 8.29004 5.29621 10.1611 3.99179 12.0149C3.43506 12.806 2.93191 13.6594 2.72098 14.606C2.50985 15.5527 2.62539 16.6111 3.21174 17.38C3.79809 18.1489 4.90881 18.5328 5.77731 18.1166C6.2937 17.8691 6.71156 17.3701 7.28131 17.322C7.80421 17.2779 8.2664 17.6302 8.70275 17.9248C9.01808 18.1376 9.39813 18.3313 9.76221 18.3338C10.1263 18.3313 10.5063 18.1376 10.8217 17.9248C11.2578 17.6302 11.72 17.2781 12.2431 17.322C12.8129 17.3699 13.2307 17.8691 13.7471 18.1166C14.6156 18.5328 15.7263 18.1489 16.3127 17.38C16.899 16.6111 17.0146 15.5527 16.8034 14.606ZM11.8334 13.4659C11.5652 13.956 11.1418 14.388 10.7843 14.7239C10.592 14.9046 10.3902 15.0735 10.1799 15.2298C10.1794 15.23 10.179 15.2304 10.1786 15.2306C9.93154 15.4126 9.59288 15.4126 9.34582 15.2306C9.3454 15.2302 9.34498 15.23 9.34456 15.2298C9.13426 15.0737 8.93237 14.9046 8.74014 14.7239C8.38258 14.388 7.95925 13.956 7.69097 13.4659C7.46933 13.0611 7.35358 12.6163 7.46828 12.1529C7.57816 11.7088 7.92879 11.3186 8.35863 11.264C8.85569 11.201 9.43426 11.5508 9.76221 11.9525C10.0899 11.5508 10.6687 11.201 11.1658 11.264C11.5956 11.3184 11.9463 11.7088 12.0561 12.1529C12.1708 12.6163 12.0551 13.0611 11.8334 13.4659Z" fill="#FF9900"/>
</g>
</svg>
