<svg width="49" height="48" viewBox="0 0 49 48" fill="none" xmlns="http://www.w3.org/2000/svg">
<path d="M16.7 30.5203V22.7203H14.75C13.673 22.7203 12.8 23.5933 12.8 24.6703V28.5703C12.8 29.6472 13.673 30.5203 14.75 30.5203H16.7ZM26.989 34.4203H29.776C30.6154 34.4203 31.3605 33.8832 31.626 33.0869L31.9223 32.198C31.9662 32.0662 32.0206 31.94 32.0843 31.8203H31.65C31.291 31.8203 31 31.5293 31 31.1703V22.0703C31 21.7113 31.291 21.4203 31.65 21.4203H32.3V20.1C32.3 15.7922 28.8078 12.3 24.5 12.3C20.1922 12.3 16.7 15.7922 16.7 20.1V21.4203H17.35C17.709 21.4203 18 21.7113 18 22.0703V31.1703C18 31.5293 17.709 31.8203 17.35 31.8203H14.75C12.9551 31.8203 11.5 30.3652 11.5 28.5703V24.6703C11.5 22.8754 12.9551 21.4203 14.75 21.4203H15.4V20.1C15.4 15.0742 19.4742 11 24.5 11C29.5258 11 33.6 15.0742 33.6 20.1V21.4203H34.25C36.0449 21.4203 37.5 22.8754 37.5 24.6703V28.5703C37.5 30.3652 36.0449 31.8203 34.25 31.8203C33.7534 31.8203 33.3126 32.138 33.1555 32.6091L32.8592 33.498C32.4169 34.8251 31.1749 35.7203 29.776 35.7203H26.989C26.7213 36.4777 25.999 37.0203 25.15 37.0203H23.85C22.773 37.0203 21.9 36.1472 21.9 35.0703C21.9 33.9933 22.773 33.1203 23.85 33.1203H25.15C25.999 33.1203 26.7213 33.6629 26.989 34.4203ZM32.3 22.7203V30.5203H34.25C35.327 30.5203 36.2 29.6472 36.2 28.5703V24.6703C36.2 23.5933 35.327 22.7203 34.25 22.7203H32.3ZM23.2 35.0703C23.2 35.4293 23.491 35.7203 23.85 35.7203H25.15C25.509 35.7203 25.8 35.4293 25.8 35.0703C25.8 34.7113 25.509 34.4203 25.15 34.4203H23.85C23.491 34.4203 23.2 34.7113 23.2 35.0703Z" fill="#222222"/>
</svg>
