<svg width="49" height="48" viewBox="0 0 49 48" fill="none" xmlns="http://www.w3.org/2000/svg">
<path d="M27.1667 26.6666V16M27.1667 26.6666L35.3027 31.316C35.4242 31.3855 35.562 31.422 35.7021 31.4216C35.8421 31.4213 35.9797 31.3841 36.1009 31.3139C36.2221 31.2437 36.3228 31.1429 36.3928 31.0216C36.4629 30.9003 36.4998 30.7627 36.5 30.6226V12.044C36.5001 11.9038 36.4633 11.766 36.3933 11.6445C36.3234 11.523 36.2227 11.422 36.1015 11.3517C35.9802 11.2813 35.8426 11.2441 35.7024 11.2437C35.5622 11.2432 35.4243 11.2797 35.3027 11.3493L27.1667 16M27.1667 26.6666H17.8333M27.1667 16H17.8333C16.4188 16 15.0623 16.5619 14.0621 17.5621C13.0619 18.5623 12.5 19.9188 12.5 21.3333C12.5 22.7478 13.0619 24.1043 14.0621 25.1045C15.0623 26.1047 16.4188 26.6666 17.8333 26.6666M17.8333 26.6666L18.8427 33.7333C18.948 34.4208 19.3204 35.039 19.8789 35.4535C20.4375 35.8681 21.137 36.0454 21.8256 35.947C22.5141 35.8487 23.1361 35.4825 23.5562 34.9282C23.9763 34.3739 24.1607 33.6762 24.0693 32.9866L23.1667 26.6666H17.8333Z" stroke="#222222" stroke-width="1.25"/>
</svg>
