<svg width="100" height="100" viewBox="0 0 100 100" fill="none" xmlns="http://www.w3.org/2000/svg">
<path d="M85.0587 49.8949C74.7147 49.8949 66.3297 41.5093 66.3297 31.1659C66.3297 20.8219 74.7153 12.4369 85.0587 12.4369C86.71 12.4369 88.3024 12.6719 89.8277 13.073C85.4052 9.89321 79.9963 8 74.1344 8C59.2551 8 47.1934 20.0617 47.1934 34.941C47.1934 49.8204 59.2551 61.8821 74.1344 61.8821C86.4136 61.8821 96.7538 53.6594 100 42.4261C96.5803 46.9545 91.1695 49.8949 85.0587 49.8949Z" fill="#FAAF40"/>
<path d="M63.1269 55.1324C63.1188 55.1324 63.1112 55.1336 63.1031 55.1336C63.1062 54.9751 63.1269 54.8209 63.1269 54.6618C63.1269 42.1137 52.9546 31.9414 40.4066 31.9414C27.8585 31.9414 17.6862 42.1137 17.6862 54.6618C17.6862 54.6768 17.6887 54.6906 17.6887 54.7056C7.84603 55.1625 0 63.2636 0 73.2197C0 83.4691 8.30853 91.7776 18.5579 91.7776H63.1269C73.2466 91.7776 81.4498 83.5744 81.4498 73.4547C81.4492 63.3357 73.2459 55.1324 63.1269 55.1324Z" fill="#42BFEC"/>
</svg>
