<svg width="49" height="48" viewBox="0 0 49 48" fill="none" xmlns="http://www.w3.org/2000/svg">
<path d="M35.1666 18.9998V31.9998C35.1666 35.9998 32.7799 37.3332 29.8333 37.3332H19.1666C16.2199 37.3332 13.8333 35.9998 13.8333 31.9998V18.9998C13.8333 14.6665 16.2199 13.6665 19.1666 13.6665C19.1666 14.4932 19.4999 15.2398 20.0465 15.7865C20.5932 16.3332 21.3399 16.6665 22.1666 16.6665H26.8333C28.4866 16.6665 29.8333 15.3198 29.8333 13.6665C32.7799 13.6665 35.1666 14.6665 35.1666 18.9998Z" stroke="#222222" stroke-width="1.25" stroke-linecap="round" stroke-linejoin="round"/>
<path d="M29.8334 13.6665C29.8334 15.3198 28.4867 16.6665 26.8334 16.6665H22.1667C21.3401 16.6665 20.5934 16.3332 20.0467 15.7865C19.5 15.2398 19.1667 14.4932 19.1667 13.6665C19.1667 12.0132 20.5134 10.6665 22.1667 10.6665H26.8334C27.6601 10.6665 28.4068 10.9998 28.9535 11.5465C29.5001 12.0932 29.8334 12.8398 29.8334 13.6665Z" stroke="#222222" stroke-width="1.25" stroke-linecap="round" stroke-linejoin="round"/>
<path d="M19.1667 25.3335H24.5001" stroke="#222222" stroke-width="1.25" stroke-linecap="round" stroke-linejoin="round"/>
<path d="M19.1667 30.6665H29.8334" stroke="#222222" stroke-width="1.25" stroke-linecap="round" stroke-linejoin="round"/>
</svg>
