<svg width="100" height="103" viewBox="0 0 100 103" fill="none" xmlns="http://www.w3.org/2000/svg">
<g filter="url(#filter0_d_631_1351)">
<path d="M69.2473 74.9777C51.9696 74.9777 37.9641 60.9713 37.9641 43.6944C37.9641 26.4168 51.9704 12.4105 69.2473 12.4105C72.0049 12.4105 74.6653 12.8033 77.2132 13.4728C69.8263 8.16193 60.792 5 51 5C26.147 5 6 25.147 6 50C6 74.853 26.147 95 51 95C71.5095 95 88.781 81.2657 94.2029 62.5025C88.4923 70.0665 79.4549 74.9777 69.2473 74.9777Z" fill="#FAAF40"/>
<path d="M77.6638 23.7656L83.1882 33.5515L94.2029 35.7818L86.6032 44.0608L87.8851 55.2251L77.6638 50.5563L67.4418 55.2251L68.7237 44.0608L61.124 35.7818L72.1386 33.5515L77.6638 23.7656Z" fill="#ADE0F3"/>
</g>
<defs>
<filter id="filter0_d_631_1351" x="-4" y="0" width="108" height="108" filterUnits="userSpaceOnUse" color-interpolation-filters="sRGB">
<feFlood flood-opacity="0" result="BackgroundImageFix"/>
<feColorMatrix in="SourceAlpha" type="matrix" values="0 0 0 0 0 0 0 0 0 0 0 0 0 0 0 0 0 0 127 0" result="hardAlpha"/>
<feOffset dy="4"/>
<feGaussianBlur stdDeviation="2"/>
<feComposite in2="hardAlpha" operator="out"/>
<feColorMatrix type="matrix" values="0 0 0 0 0 0 0 0 0 0 0 0 0 0 0 0 0 0 0.25 0"/>
<feBlend mode="normal" in2="BackgroundImageFix" result="effect1_dropShadow_631_1351"/>
<feBlend mode="normal" in="SourceGraphic" in2="effect1_dropShadow_631_1351" result="shape"/>
</filter>
</defs>
</svg>
