<svg width="20" height="20" viewBox="0 0 20 20" fill="none" xmlns="http://www.w3.org/2000/svg">
<g id="ic / notification">
<path id="Vector" d="M10.0172 17.1076C8.07554 17.1076 6.13388 16.7993 4.29221 16.1826C3.59221 15.941 3.05888 15.4493 2.82554 14.8076C2.58388 14.166 2.66721 13.4576 3.05054 12.8243L4.00888 11.2326C4.20888 10.8993 4.39221 10.2326 4.39221 9.84095V7.43262C4.39221 4.33262 6.91721 1.80762 10.0172 1.80762C13.1172 1.80762 15.6422 4.33262 15.6422 7.43262V9.84095C15.6422 10.2243 15.8255 10.8993 16.0255 11.2409L16.9755 12.8243C17.3339 13.4243 17.4005 14.1493 17.1589 14.8076C16.9172 15.466 16.3922 15.966 15.7339 16.1826C13.9005 16.7993 11.9589 17.1076 10.0172 17.1076ZM10.0172 3.05762C7.60888 3.05762 5.64221 5.01595 5.64221 7.43262V9.84095C5.64221 10.4493 5.39221 11.3493 5.08388 11.8743L4.12554 13.466C3.94221 13.7743 3.89221 14.0993 4.00054 14.3743C4.10054 14.6576 4.35054 14.8743 4.69221 14.9909C8.17554 16.1576 11.8672 16.1576 15.3505 14.9909C15.6505 14.891 15.8839 14.6659 15.9922 14.3659C16.1005 14.066 16.0755 13.7409 15.9089 13.466L14.9505 11.8743C14.6339 11.3326 14.3922 10.441 14.3922 9.83262V7.43262C14.3922 5.01595 12.4339 3.05762 10.0172 3.05762Z" fill="#292D32"/>
<path id="Vector_2" d="M11.5668 3.28389C11.5085 3.28389 11.4502 3.27555 11.3918 3.25889C11.1502 3.19222 10.9168 3.14222 10.6918 3.10889C9.98351 3.01722 9.30018 3.06722 8.65851 3.25889C8.42518 3.33389 8.17518 3.25889 8.01684 3.08389C7.85851 2.90889 7.80851 2.65889 7.90018 2.43389C8.24184 1.55889 9.07518 0.983887 10.0252 0.983887C10.9752 0.983887 11.8085 1.55055 12.1502 2.43389C12.2335 2.65889 12.1918 2.90889 12.0335 3.08389C11.9085 3.21722 11.7335 3.28389 11.5668 3.28389Z" fill="#292D32"/>
<path id="Vector_3" d="M10.0156 19.0093C9.19062 19.0093 8.39062 18.6759 7.80729 18.0926C7.22396 17.5093 6.89062 16.7093 6.89062 15.8843H8.14062C8.14062 16.3759 8.34062 16.8593 8.69062 17.2093C9.04062 17.5593 9.52396 17.7593 10.0156 17.7593C11.049 17.7593 11.8906 16.9176 11.8906 15.8843H13.1406C13.1406 17.6093 11.7406 19.0093 10.0156 19.0093Z" fill="#292D32"/>
</g>
</svg>
