<svg width="54" height="18" viewBox="0 0 54 18" fill="none" xmlns="http://www.w3.org/2000/svg">
<rect width="54" height="18" rx="9" fill="#03C75A"/>
<path d="M25.5547 8.67578V12H24.5234V7.77344H25.4922L25.5547 8.67578ZM25.3906 9.73438H25.0859C25.0885 9.42708 25.1302 9.14844 25.2109 8.89844C25.2917 8.64844 25.4049 8.43359 25.5508 8.25391C25.6992 8.07422 25.875 7.9362 26.0781 7.83984C26.2812 7.74349 26.5078 7.69531 26.7578 7.69531C26.9609 7.69531 27.1445 7.72396 27.3086 7.78125C27.4727 7.83854 27.6133 7.92969 27.7305 8.05469C27.8503 8.17969 27.9414 8.34375 28.0039 8.54688C28.069 8.7474 28.1016 8.99479 28.1016 9.28906V12H27.0625V9.28125C27.0625 9.08854 27.0339 8.9362 26.9766 8.82422C26.9219 8.71224 26.8411 8.63281 26.7344 8.58594C26.6302 8.53906 26.5013 8.51562 26.3477 8.51562C26.1888 8.51562 26.0495 8.54818 25.9297 8.61328C25.8125 8.67578 25.7135 8.76302 25.6328 8.875C25.5547 8.98698 25.4948 9.11589 25.4531 9.26172C25.4115 9.40755 25.3906 9.5651 25.3906 9.73438ZM31.3398 11.1016V9.15234C31.3398 9.00911 31.3151 8.88542 31.2656 8.78125C31.2161 8.67708 31.1406 8.59635 31.0391 8.53906C30.9375 8.48177 30.8086 8.45312 30.6523 8.45312C30.5143 8.45312 30.3932 8.47656 30.2891 8.52344C30.1875 8.57031 30.1094 8.63672 30.0547 8.72266C30 8.80599 29.9727 8.90234 29.9727 9.01172H28.9375C28.9375 8.83724 28.9792 8.67188 29.0625 8.51562C29.1458 8.35677 29.2643 8.21615 29.418 8.09375C29.5742 7.96875 29.7604 7.87109 29.9766 7.80078C30.1953 7.73047 30.4401 7.69531 30.7109 7.69531C31.0312 7.69531 31.3164 7.75 31.5664 7.85938C31.819 7.96615 32.0169 8.1276 32.1602 8.34375C32.306 8.5599 32.3789 8.83203 32.3789 9.16016V11.0039C32.3789 11.2148 32.3919 11.3958 32.418 11.5469C32.4466 11.6953 32.4883 11.8242 32.543 11.9336V12H31.4922C31.4427 11.8932 31.4049 11.7578 31.3789 11.5938C31.3529 11.4271 31.3398 11.263 31.3398 11.1016ZM31.4844 9.42578L31.4922 10.0391H30.8398C30.6784 10.0391 30.5365 10.056 30.4141 10.0898C30.2917 10.1211 30.1914 10.168 30.1133 10.2305C30.0352 10.2904 29.9766 10.3633 29.9375 10.4492C29.8984 10.5326 29.8789 10.6276 29.8789 10.7344C29.8789 10.8385 29.9023 10.9323 29.9492 11.0156C29.9987 11.099 30.069 11.1654 30.1602 11.2148C30.2539 11.2617 30.3633 11.2852 30.4883 11.2852C30.6706 11.2852 30.8294 11.2487 30.9648 11.1758C31.1003 11.1003 31.2057 11.0091 31.2812 10.9023C31.3568 10.7956 31.3971 10.694 31.4023 10.5977L31.6992 11.043C31.6628 11.1497 31.6081 11.263 31.5352 11.3828C31.4622 11.5026 31.3685 11.6146 31.2539 11.7188C31.1393 11.8229 31.0013 11.9089 30.8398 11.9766C30.6784 12.0443 30.4909 12.0781 30.2773 12.0781C30.0039 12.0781 29.7591 12.0234 29.543 11.9141C29.3268 11.8047 29.1562 11.6549 29.0312 11.4648C28.9062 11.2747 28.8438 11.0586 28.8438 10.8164C28.8438 10.5924 28.8854 10.3945 28.9688 10.2227C29.0521 10.0508 29.1758 9.90625 29.3398 9.78906C29.5039 9.66927 29.707 9.57943 29.9492 9.51953C30.194 9.45703 30.474 9.42578 30.7891 9.42578H31.4844ZM34.6484 11.2188L35.6328 7.77344H36.7109L35.2617 12H34.6055L34.6484 11.2188ZM33.9297 7.77344L34.9258 11.2266L34.9609 12H34.3008L32.8477 7.77344H33.9297ZM39.0977 12.0781C38.7773 12.0781 38.4896 12.026 38.2344 11.9219C37.9792 11.8177 37.7617 11.6732 37.582 11.4883C37.4049 11.3008 37.2682 11.0833 37.1719 10.8359C37.0781 10.5859 37.0312 10.3177 37.0312 10.0312V9.875C37.0312 9.54948 37.0781 9.25391 37.1719 8.98828C37.2656 8.72005 37.3984 8.48958 37.5703 8.29688C37.7422 8.10417 37.9479 7.95573 38.1875 7.85156C38.4271 7.7474 38.6914 7.69531 38.9805 7.69531C39.2799 7.69531 39.5443 7.74609 39.7734 7.84766C40.0026 7.94661 40.194 8.08724 40.3477 8.26953C40.5013 8.45182 40.6172 8.67057 40.6953 8.92578C40.7734 9.17839 40.8125 9.45833 40.8125 9.76562V10.1992H37.5V9.48828H39.7969V9.41016C39.7917 9.24609 39.7604 9.09635 39.7031 8.96094C39.6458 8.82292 39.5573 8.71354 39.4375 8.63281C39.3177 8.54948 39.1628 8.50781 38.9727 8.50781C38.819 8.50781 38.6849 8.54167 38.5703 8.60938C38.4583 8.67448 38.3646 8.76823 38.2891 8.89062C38.2161 9.01042 38.1615 9.15365 38.125 9.32031C38.0885 9.48698 38.0703 9.67188 38.0703 9.875V10.0312C38.0703 10.2083 38.0938 10.3724 38.1406 10.5234C38.1901 10.6745 38.2617 10.806 38.3555 10.918C38.4518 11.0273 38.5664 11.1133 38.6992 11.1758C38.8346 11.2357 38.9883 11.2656 39.1602 11.2656C39.3763 11.2656 39.5716 11.224 39.7461 11.1406C39.9232 11.0547 40.0768 10.9284 40.207 10.7617L40.7266 11.3008C40.638 11.431 40.5182 11.556 40.3672 11.6758C40.2188 11.7956 40.0391 11.8932 39.8281 11.9688C39.6172 12.0417 39.3737 12.0781 39.0977 12.0781ZM42.5352 8.63672V12H41.5039V7.77344H42.4805L42.5352 8.63672ZM43.8203 7.74609L43.8047 8.70703C43.7474 8.69661 43.6823 8.6888 43.6094 8.68359C43.5391 8.67839 43.4727 8.67578 43.4102 8.67578C43.2513 8.67578 43.112 8.69792 42.9922 8.74219C42.8724 8.78385 42.7721 8.84505 42.6914 8.92578C42.6133 9.00651 42.5534 9.10547 42.5117 9.22266C42.4701 9.33724 42.4466 9.46745 42.4414 9.61328L42.2188 9.58594C42.2188 9.31771 42.2461 9.06901 42.3008 8.83984C42.3555 8.61068 42.4349 8.41016 42.5391 8.23828C42.6432 8.06641 42.7734 7.93359 42.9297 7.83984C43.0885 7.74349 43.2708 7.69531 43.4766 7.69531C43.5339 7.69531 43.5951 7.70052 43.6602 7.71094C43.7279 7.71875 43.7812 7.73047 43.8203 7.74609Z" fill="white"/>
<path d="M14.4246 9.28133L11.4584 5H9V13H11.5754V8.718L14.5416 13H17V5H14.4246V9.28133Z" fill="white"/>
</svg>
