<svg width="57" height="18" viewBox="0 0 57 18" fill="none" xmlns="http://www.w3.org/2000/svg">
<rect x="0.5" y="0.5" width="56" height="17" rx="8.5" stroke="#E4E4E4"/>
<g clip-path="url(#clip0_937_6478)">
<mask id="mask0_937_6478" style="mask-type:luminance" maskUnits="userSpaceOnUse" x="8" y="4" width="10" height="10">
<path d="M18 4H8V14H18V4Z" fill="white"/>
</mask>
<g mask="url(#mask0_937_6478)">
<path d="M17.8 9.11357C17.8 8.75902 17.7682 8.41812 17.7091 8.09082H13V10.0249H15.6909C15.575 10.6499 15.2228 11.1795 14.6932 11.534V12.7886H16.3091C17.2545 11.9181 17.8 10.6363 17.8 9.11357Z" fill="#4285F4"/>
<path d="M12.9999 14.0002C14.3499 14.0002 15.4817 13.5524 16.309 12.7888L14.6931 11.5343C14.2454 11.8343 13.6726 12.0115 12.9999 12.0115C11.6976 12.0115 10.5954 11.132 10.2022 9.9502H8.53174V11.2456C9.35449 12.8797 11.0454 14.0002 12.9999 14.0002Z" fill="#34A853"/>
<path d="M10.2022 9.94984C10.1022 9.64984 10.0455 9.32939 10.0455 8.99984C10.0455 8.67029 10.1022 8.34984 10.2022 8.04984V6.75439H8.5318C8.1932 7.42939 8 8.19304 8 8.99984C8 9.80664 8.1932 10.5703 8.5318 11.2453L10.2022 9.94984Z" fill="#FBBC04"/>
<path d="M12.9999 5.98865C13.734 5.98865 14.3931 6.2409 14.9113 6.73635L16.3454 5.30225C15.4795 4.49545 14.3476 4 12.9999 4C11.0454 4 9.35449 5.12045 8.53174 6.75455L10.2022 8.05C10.5954 6.8682 11.6976 5.98865 12.9999 5.98865Z" fill="#E94235"/>
</g>
</g>
<path d="M27.375 7.77344H28.3125V11.8711C28.3125 12.2539 28.2292 12.5781 28.0625 12.8438C27.8984 13.112 27.668 13.3151 27.3711 13.4531C27.0742 13.5938 26.7292 13.6641 26.3359 13.6641C26.1667 13.6641 25.9831 13.6406 25.7852 13.5938C25.5898 13.5469 25.401 13.4727 25.2188 13.3711C25.0391 13.2721 24.8893 13.1432 24.7695 12.9844L25.2344 12.375C25.375 12.5391 25.5339 12.6628 25.7109 12.7461C25.888 12.832 26.0794 12.875 26.2852 12.875C26.4935 12.875 26.6706 12.8359 26.8164 12.7578C26.9648 12.6823 27.0781 12.5703 27.1562 12.4219C27.237 12.276 27.2773 12.0964 27.2773 11.8828V8.73828L27.375 7.77344ZM24.5195 9.9375V9.85547C24.5195 9.53255 24.5586 9.23958 24.6367 8.97656C24.7148 8.71094 24.8268 8.48307 24.9727 8.29297C25.1211 8.10286 25.2995 7.95573 25.5078 7.85156C25.7188 7.7474 25.9557 7.69531 26.2188 7.69531C26.4974 7.69531 26.7318 7.74609 26.9219 7.84766C27.1146 7.94922 27.2734 8.09375 27.3984 8.28125C27.526 8.46875 27.625 8.69141 27.6953 8.94922C27.7682 9.20443 27.8242 9.48568 27.8633 9.79297V10.0156C27.8268 10.3151 27.7682 10.5898 27.6875 10.8398C27.6094 11.0898 27.5052 11.3086 27.375 11.4961C27.2448 11.681 27.0833 11.8242 26.8906 11.9258C26.6979 12.0273 26.4714 12.0781 26.2109 12.0781C25.9505 12.0781 25.7161 12.0247 25.5078 11.918C25.2995 11.8112 25.1211 11.6615 24.9727 11.4688C24.8268 11.276 24.7148 11.0495 24.6367 10.7891C24.5586 10.5286 24.5195 10.2448 24.5195 9.9375ZM25.5508 9.85547V9.9375C25.5508 10.1198 25.569 10.2904 25.6055 10.4492C25.6419 10.6081 25.6979 10.7487 25.7734 10.8711C25.849 10.9909 25.944 11.0846 26.0586 11.1523C26.1732 11.2201 26.3099 11.2539 26.4688 11.2539C26.6823 11.2539 26.8568 11.2096 26.9922 11.1211C27.1302 11.0299 27.2344 10.9062 27.3047 10.75C27.3776 10.5911 27.4245 10.4128 27.4453 10.2148V9.60156C27.4323 9.44531 27.4036 9.30078 27.3594 9.16797C27.3177 9.03516 27.2591 8.92057 27.1836 8.82422C27.1081 8.72786 27.0117 8.65234 26.8945 8.59766C26.7773 8.54297 26.638 8.51562 26.4766 8.51562C26.3203 8.51562 26.1836 8.55078 26.0664 8.62109C25.9492 8.6888 25.8529 8.78385 25.7773 8.90625C25.7018 9.02865 25.6445 9.17057 25.6055 9.33203C25.569 9.49349 25.5508 9.66797 25.5508 9.85547ZM29.0586 9.92969V9.84766C29.0586 9.53776 29.1029 9.2526 29.1914 8.99219C29.2799 8.72917 29.4089 8.5013 29.5781 8.30859C29.7474 8.11589 29.9544 7.96615 30.1992 7.85938C30.444 7.75 30.7227 7.69531 31.0352 7.69531C31.3529 7.69531 31.6341 7.75 31.8789 7.85938C32.1263 7.96615 32.3346 8.11589 32.5039 8.30859C32.6732 8.5013 32.8021 8.72917 32.8906 8.99219C32.9792 9.2526 33.0234 9.53776 33.0234 9.84766V9.92969C33.0234 10.237 32.9792 10.5221 32.8906 10.7852C32.8021 11.0456 32.6732 11.2734 32.5039 11.4688C32.3346 11.6615 32.1276 11.8112 31.8828 11.918C31.638 12.0247 31.3581 12.0781 31.043 12.0781C30.7305 12.0781 30.4505 12.0247 30.2031 11.918C29.9557 11.8112 29.7474 11.6615 29.5781 11.4688C29.4089 11.2734 29.2799 11.0456 29.1914 10.7852C29.1029 10.5221 29.0586 10.237 29.0586 9.92969ZM30.0898 9.84766V9.92969C30.0898 10.1146 30.1081 10.2878 30.1445 10.4492C30.181 10.6107 30.237 10.7526 30.3125 10.875C30.388 10.9974 30.4857 11.0938 30.6055 11.1641C30.7279 11.2318 30.8737 11.2656 31.043 11.2656C31.2096 11.2656 31.3529 11.2318 31.4727 11.1641C31.5924 11.0938 31.6901 10.9974 31.7656 10.875C31.8438 10.7526 31.901 10.6107 31.9375 10.4492C31.974 10.2878 31.9922 10.1146 31.9922 9.92969V9.84766C31.9922 9.66536 31.974 9.49479 31.9375 9.33594C31.901 9.17448 31.8438 9.03255 31.7656 8.91016C31.6901 8.78516 31.5911 8.6875 31.4688 8.61719C31.349 8.54427 31.2044 8.50781 31.0352 8.50781C30.8685 8.50781 30.7253 8.54427 30.6055 8.61719C30.4857 8.6875 30.388 8.78516 30.3125 8.91016C30.237 9.03255 30.181 9.17448 30.1445 9.33594C30.1081 9.49479 30.0898 9.66536 30.0898 9.84766ZM33.5898 9.92969V9.84766C33.5898 9.53776 33.6341 9.2526 33.7227 8.99219C33.8112 8.72917 33.9401 8.5013 34.1094 8.30859C34.2786 8.11589 34.4857 7.96615 34.7305 7.85938C34.9753 7.75 35.2539 7.69531 35.5664 7.69531C35.8841 7.69531 36.1654 7.75 36.4102 7.85938C36.6576 7.96615 36.8659 8.11589 37.0352 8.30859C37.2044 8.5013 37.3333 8.72917 37.4219 8.99219C37.5104 9.2526 37.5547 9.53776 37.5547 9.84766V9.92969C37.5547 10.237 37.5104 10.5221 37.4219 10.7852C37.3333 11.0456 37.2044 11.2734 37.0352 11.4688C36.8659 11.6615 36.6589 11.8112 36.4141 11.918C36.1693 12.0247 35.8893 12.0781 35.5742 12.0781C35.2617 12.0781 34.9818 12.0247 34.7344 11.918C34.487 11.8112 34.2786 11.6615 34.1094 11.4688C33.9401 11.2734 33.8112 11.0456 33.7227 10.7852C33.6341 10.5221 33.5898 10.237 33.5898 9.92969ZM34.6211 9.84766V9.92969C34.6211 10.1146 34.6393 10.2878 34.6758 10.4492C34.7122 10.6107 34.7682 10.7526 34.8438 10.875C34.9193 10.9974 35.0169 11.0938 35.1367 11.1641C35.2591 11.2318 35.4049 11.2656 35.5742 11.2656C35.7409 11.2656 35.8841 11.2318 36.0039 11.1641C36.1237 11.0938 36.2214 10.9974 36.2969 10.875C36.375 10.7526 36.4323 10.6107 36.4688 10.4492C36.5052 10.2878 36.5234 10.1146 36.5234 9.92969V9.84766C36.5234 9.66536 36.5052 9.49479 36.4688 9.33594C36.4323 9.17448 36.375 9.03255 36.2969 8.91016C36.2214 8.78516 36.1224 8.6875 36 8.61719C35.8802 8.54427 35.7357 8.50781 35.5664 8.50781C35.3997 8.50781 35.2565 8.54427 35.1367 8.61719C35.0169 8.6875 34.9193 8.78516 34.8438 8.91016C34.7682 9.03255 34.7122 9.17448 34.6758 9.33594C34.6393 9.49479 34.6211 9.66536 34.6211 9.84766ZM40.9922 7.77344H41.9297V11.8711C41.9297 12.2539 41.8464 12.5781 41.6797 12.8438C41.5156 13.112 41.2852 13.3151 40.9883 13.4531C40.6914 13.5938 40.3464 13.6641 39.9531 13.6641C39.7839 13.6641 39.6003 13.6406 39.4023 13.5938C39.207 13.5469 39.0182 13.4727 38.8359 13.3711C38.6562 13.2721 38.5065 13.1432 38.3867 12.9844L38.8516 12.375C38.9922 12.5391 39.151 12.6628 39.3281 12.7461C39.5052 12.832 39.6966 12.875 39.9023 12.875C40.1107 12.875 40.2878 12.8359 40.4336 12.7578C40.582 12.6823 40.6953 12.5703 40.7734 12.4219C40.8542 12.276 40.8945 12.0964 40.8945 11.8828V8.73828L40.9922 7.77344ZM38.1367 9.9375V9.85547C38.1367 9.53255 38.1758 9.23958 38.2539 8.97656C38.332 8.71094 38.444 8.48307 38.5898 8.29297C38.7383 8.10286 38.9167 7.95573 39.125 7.85156C39.3359 7.7474 39.5729 7.69531 39.8359 7.69531C40.1146 7.69531 40.349 7.74609 40.5391 7.84766C40.7318 7.94922 40.8906 8.09375 41.0156 8.28125C41.1432 8.46875 41.2422 8.69141 41.3125 8.94922C41.3854 9.20443 41.4414 9.48568 41.4805 9.79297V10.0156C41.444 10.3151 41.3854 10.5898 41.3047 10.8398C41.2266 11.0898 41.1224 11.3086 40.9922 11.4961C40.862 11.681 40.7005 11.8242 40.5078 11.9258C40.3151 12.0273 40.0885 12.0781 39.8281 12.0781C39.5677 12.0781 39.3333 12.0247 39.125 11.918C38.9167 11.8112 38.7383 11.6615 38.5898 11.4688C38.444 11.276 38.332 11.0495 38.2539 10.7891C38.1758 10.5286 38.1367 10.2448 38.1367 9.9375ZM39.168 9.85547V9.9375C39.168 10.1198 39.1862 10.2904 39.2227 10.4492C39.2591 10.6081 39.3151 10.7487 39.3906 10.8711C39.4661 10.9909 39.5612 11.0846 39.6758 11.1523C39.7904 11.2201 39.9271 11.2539 40.0859 11.2539C40.2995 11.2539 40.474 11.2096 40.6094 11.1211C40.7474 11.0299 40.8516 10.9062 40.9219 10.75C40.9948 10.5911 41.0417 10.4128 41.0625 10.2148V9.60156C41.0495 9.44531 41.0208 9.30078 40.9766 9.16797C40.9349 9.03516 40.8763 8.92057 40.8008 8.82422C40.7253 8.72786 40.6289 8.65234 40.5117 8.59766C40.3945 8.54297 40.2552 8.51562 40.0938 8.51562C39.9375 8.51562 39.8008 8.55078 39.6836 8.62109C39.5664 8.6888 39.4701 8.78385 39.3945 8.90625C39.319 9.02865 39.2617 9.17057 39.2227 9.33203C39.1862 9.49349 39.168 9.66797 39.168 9.85547ZM43.9531 6V12H42.918V6H43.9531ZM46.8359 12.0781C46.5156 12.0781 46.2279 12.026 45.9727 11.9219C45.7174 11.8177 45.5 11.6732 45.3203 11.4883C45.1432 11.3008 45.0065 11.0833 44.9102 10.8359C44.8164 10.5859 44.7695 10.3177 44.7695 10.0312V9.875C44.7695 9.54948 44.8164 9.25391 44.9102 8.98828C45.0039 8.72005 45.1367 8.48958 45.3086 8.29688C45.4805 8.10417 45.6862 7.95573 45.9258 7.85156C46.1654 7.7474 46.4297 7.69531 46.7188 7.69531C47.0182 7.69531 47.2826 7.74609 47.5117 7.84766C47.7409 7.94661 47.9323 8.08724 48.0859 8.26953C48.2396 8.45182 48.3555 8.67057 48.4336 8.92578C48.5117 9.17839 48.5508 9.45833 48.5508 9.76562V10.1992H45.2383V9.48828H47.5352V9.41016C47.5299 9.24609 47.4987 9.09635 47.4414 8.96094C47.3841 8.82292 47.2956 8.71354 47.1758 8.63281C47.056 8.54948 46.901 8.50781 46.7109 8.50781C46.5573 8.50781 46.4232 8.54167 46.3086 8.60938C46.1966 8.67448 46.1029 8.76823 46.0273 8.89062C45.9544 9.01042 45.8997 9.15365 45.8633 9.32031C45.8268 9.48698 45.8086 9.67188 45.8086 9.875V10.0312C45.8086 10.2083 45.832 10.3724 45.8789 10.5234C45.9284 10.6745 46 10.806 46.0938 10.918C46.1901 11.0273 46.3047 11.1133 46.4375 11.1758C46.5729 11.2357 46.7266 11.2656 46.8984 11.2656C47.1146 11.2656 47.3099 11.224 47.4844 11.1406C47.6615 11.0547 47.8151 10.9284 47.9453 10.7617L48.4648 11.3008C48.3763 11.431 48.2565 11.556 48.1055 11.6758C47.957 11.7956 47.7773 11.8932 47.5664 11.9688C47.3555 12.0417 47.112 12.0781 46.8359 12.0781Z" fill="black" fill-opacity="0.85"/>
<defs>
<clipPath id="clip0_937_6478">
<rect width="10" height="10" fill="white" transform="translate(8 4)"/>
</clipPath>
</defs>
</svg>
