<svg width="54" height="18" viewBox="0 0 54 18" fill="none" xmlns="http://www.w3.org/2000/svg">
<rect width="54" height="18" rx="9" fill="#FEE500"/>
<path fill-rule="evenodd" clip-rule="evenodd" d="M13 5C10.5145 5 8.5 6.5645 8.5 8.4945C8.5 9.6945 9.2795 10.7525 10.466 11.382L9.9665 13.2155C9.9225 13.377 10.1065 13.5065 10.2485 13.413L12.437 11.9605C12.6215 11.979 12.809 11.989 13 11.989C15.4855 11.989 17.5 10.4245 17.5 8.4945C17.5 6.5645 15.4855 5 13 5Z" fill="black"/>
<path d="M25.707 5.99609V12H24.6758V5.99609H25.707ZM28.3555 7.77344L26.5156 9.83984L25.5195 10.8516L25.1914 10.0508L25.9609 9.08203L27.1094 7.77344H28.3555ZM27.3008 12L25.9922 10.0312L26.6797 9.36328L28.4961 12H27.3008ZM31.2305 11.1016V9.15234C31.2305 9.00911 31.2057 8.88542 31.1562 8.78125C31.1068 8.67708 31.0312 8.59635 30.9297 8.53906C30.8281 8.48177 30.6992 8.45312 30.543 8.45312C30.4049 8.45312 30.2839 8.47656 30.1797 8.52344C30.0781 8.57031 30 8.63672 29.9453 8.72266C29.8906 8.80599 29.8633 8.90234 29.8633 9.01172H28.8281C28.8281 8.83724 28.8698 8.67188 28.9531 8.51562C29.0365 8.35677 29.1549 8.21615 29.3086 8.09375C29.4648 7.96875 29.651 7.87109 29.8672 7.80078C30.0859 7.73047 30.3307 7.69531 30.6016 7.69531C30.9219 7.69531 31.207 7.75 31.457 7.85938C31.7096 7.96615 31.9076 8.1276 32.0508 8.34375C32.1966 8.5599 32.2695 8.83203 32.2695 9.16016V11.0039C32.2695 11.2148 32.2826 11.3958 32.3086 11.5469C32.3372 11.6953 32.3789 11.8242 32.4336 11.9336V12H31.3828C31.3333 11.8932 31.2956 11.7578 31.2695 11.5938C31.2435 11.4271 31.2305 11.263 31.2305 11.1016ZM31.375 9.42578L31.3828 10.0391H30.7305C30.569 10.0391 30.4271 10.056 30.3047 10.0898C30.1823 10.1211 30.082 10.168 30.0039 10.2305C29.9258 10.2904 29.8672 10.3633 29.8281 10.4492C29.7891 10.5326 29.7695 10.6276 29.7695 10.7344C29.7695 10.8385 29.793 10.9323 29.8398 11.0156C29.8893 11.099 29.9596 11.1654 30.0508 11.2148C30.1445 11.2617 30.2539 11.2852 30.3789 11.2852C30.5612 11.2852 30.7201 11.2487 30.8555 11.1758C30.9909 11.1003 31.0964 11.0091 31.1719 10.9023C31.2474 10.7956 31.2878 10.694 31.293 10.5977L31.5898 11.043C31.5534 11.1497 31.4987 11.263 31.4258 11.3828C31.3529 11.5026 31.2591 11.6146 31.1445 11.7188C31.0299 11.8229 30.8919 11.9089 30.7305 11.9766C30.569 12.0443 30.3815 12.0781 30.168 12.0781C29.8945 12.0781 29.6497 12.0234 29.4336 11.9141C29.2174 11.8047 29.0469 11.6549 28.9219 11.4648C28.7969 11.2747 28.7344 11.0586 28.7344 10.8164C28.7344 10.5924 28.776 10.3945 28.8594 10.2227C28.9427 10.0508 29.0664 9.90625 29.2305 9.78906C29.3945 9.66927 29.5977 9.57943 29.8398 9.51953C30.0846 9.45703 30.3646 9.42578 30.6797 9.42578H31.375ZM34.2305 5.99609V12H33.1992V5.99609H34.2305ZM36.8789 7.77344L35.0391 9.83984L34.043 10.8516L33.7148 10.0508L34.4844 9.08203L35.6328 7.77344H36.8789ZM35.8242 12L34.5156 10.0312L35.2031 9.36328L37.0195 12H35.8242ZM39.7539 11.1016V9.15234C39.7539 9.00911 39.7292 8.88542 39.6797 8.78125C39.6302 8.67708 39.5547 8.59635 39.4531 8.53906C39.3516 8.48177 39.2227 8.45312 39.0664 8.45312C38.9284 8.45312 38.8073 8.47656 38.7031 8.52344C38.6016 8.57031 38.5234 8.63672 38.4688 8.72266C38.4141 8.80599 38.3867 8.90234 38.3867 9.01172H37.3516C37.3516 8.83724 37.3932 8.67188 37.4766 8.51562C37.5599 8.35677 37.6784 8.21615 37.832 8.09375C37.9883 7.96875 38.1745 7.87109 38.3906 7.80078C38.6094 7.73047 38.8542 7.69531 39.125 7.69531C39.4453 7.69531 39.7305 7.75 39.9805 7.85938C40.2331 7.96615 40.431 8.1276 40.5742 8.34375C40.7201 8.5599 40.793 8.83203 40.793 9.16016V11.0039C40.793 11.2148 40.806 11.3958 40.832 11.5469C40.8607 11.6953 40.9023 11.8242 40.957 11.9336V12H39.9062C39.8568 11.8932 39.819 11.7578 39.793 11.5938C39.7669 11.4271 39.7539 11.263 39.7539 11.1016ZM39.8984 9.42578L39.9062 10.0391H39.2539C39.0924 10.0391 38.9505 10.056 38.8281 10.0898C38.7057 10.1211 38.6055 10.168 38.5273 10.2305C38.4492 10.2904 38.3906 10.3633 38.3516 10.4492C38.3125 10.5326 38.293 10.6276 38.293 10.7344C38.293 10.8385 38.3164 10.9323 38.3633 11.0156C38.4128 11.099 38.4831 11.1654 38.5742 11.2148C38.668 11.2617 38.7773 11.2852 38.9023 11.2852C39.0846 11.2852 39.2435 11.2487 39.3789 11.1758C39.5143 11.1003 39.6198 11.0091 39.6953 10.9023C39.7708 10.7956 39.8112 10.694 39.8164 10.5977L40.1133 11.043C40.0768 11.1497 40.0221 11.263 39.9492 11.3828C39.8763 11.5026 39.7826 11.6146 39.668 11.7188C39.5534 11.8229 39.4154 11.9089 39.2539 11.9766C39.0924 12.0443 38.9049 12.0781 38.6914 12.0781C38.418 12.0781 38.1732 12.0234 37.957 11.9141C37.7409 11.8047 37.5703 11.6549 37.4453 11.4648C37.3203 11.2747 37.2578 11.0586 37.2578 10.8164C37.2578 10.5924 37.2995 10.3945 37.3828 10.2227C37.4661 10.0508 37.5898 9.90625 37.7539 9.78906C37.918 9.66927 38.1211 9.57943 38.3633 9.51953C38.6081 9.45703 38.888 9.42578 39.2031 9.42578H39.8984ZM41.5391 9.92969V9.84766C41.5391 9.53776 41.5833 9.2526 41.6719 8.99219C41.7604 8.72917 41.8893 8.5013 42.0586 8.30859C42.2279 8.11589 42.4349 7.96615 42.6797 7.85938C42.9245 7.75 43.2031 7.69531 43.5156 7.69531C43.8333 7.69531 44.1146 7.75 44.3594 7.85938C44.6068 7.96615 44.8151 8.11589 44.9844 8.30859C45.1536 8.5013 45.2826 8.72917 45.3711 8.99219C45.4596 9.2526 45.5039 9.53776 45.5039 9.84766V9.92969C45.5039 10.237 45.4596 10.5221 45.3711 10.7852C45.2826 11.0456 45.1536 11.2734 44.9844 11.4688C44.8151 11.6615 44.6081 11.8112 44.3633 11.918C44.1185 12.0247 43.8385 12.0781 43.5234 12.0781C43.2109 12.0781 42.931 12.0247 42.6836 11.918C42.4362 11.8112 42.2279 11.6615 42.0586 11.4688C41.8893 11.2734 41.7604 11.0456 41.6719 10.7852C41.5833 10.5221 41.5391 10.237 41.5391 9.92969ZM42.5703 9.84766V9.92969C42.5703 10.1146 42.5885 10.2878 42.625 10.4492C42.6615 10.6107 42.7174 10.7526 42.793 10.875C42.8685 10.9974 42.9661 11.0938 43.0859 11.1641C43.2083 11.2318 43.3542 11.2656 43.5234 11.2656C43.6901 11.2656 43.8333 11.2318 43.9531 11.1641C44.0729 11.0938 44.1706 10.9974 44.2461 10.875C44.3242 10.7526 44.3815 10.6107 44.418 10.4492C44.4544 10.2878 44.4727 10.1146 44.4727 9.92969V9.84766C44.4727 9.66536 44.4544 9.49479 44.418 9.33594C44.3815 9.17448 44.3242 9.03255 44.2461 8.91016C44.1706 8.78516 44.0716 8.6875 43.9492 8.61719C43.8294 8.54427 43.6849 8.50781 43.5156 8.50781C43.349 8.50781 43.2057 8.54427 43.0859 8.61719C42.9661 8.6875 42.8685 8.78516 42.793 8.91016C42.7174 9.03255 42.6615 9.17448 42.625 9.33594C42.5885 9.49479 42.5703 9.66536 42.5703 9.84766Z" fill="black" fill-opacity="0.85"/>
</svg>
