<svg width="24" height="24" viewBox="0 0 24 24" fill="none" xmlns="http://www.w3.org/2000/svg">
<path fill-rule="evenodd" clip-rule="evenodd" d="M12.6774 2.5C12.6774 2.22386 12.4536 2 12.1774 2C11.9013 2 11.6774 2.22386 11.6774 2.5V11.6774H2.5C2.22386 11.6774 2 11.9013 2 12.1774C2 12.4536 2.22386 12.6774 2.5 12.6774H11.6774V21.8548C11.6774 22.131 11.9013 22.3548 12.1774 22.3548C12.4536 22.3548 12.6774 22.131 12.6774 21.8548V12.6774H21.8548C22.131 12.6774 22.3548 12.4536 22.3548 12.1774C22.3548 11.9013 22.131 11.6774 21.8548 11.6774H12.6774V2.5Z" fill="#BBBBBB"/>
</svg>
