<svg width="21" height="21" viewBox="0 0 21 21" fill="none" xmlns="http://www.w3.org/2000/svg">
<path fill-rule="evenodd" clip-rule="evenodd" d="M10.6774 0.5C10.6774 0.223858 10.4536 0 10.1774 0C9.90128 0 9.67742 0.223858 9.67742 0.5V9.67742H0.5C0.223858 9.67742 0 9.90128 0 10.1774C0 10.4536 0.223858 10.6774 0.5 10.6774H9.67742V19.8548C9.67742 20.131 9.90128 20.3548 10.1774 20.3548C10.4536 20.3548 10.6774 20.131 10.6774 19.8548V10.6774H19.8548C20.131 10.6774 20.3548 10.4536 20.3548 10.1774C20.3548 9.90128 20.131 9.67742 19.8548 9.67742H10.6774V0.5Z" fill="#BBBBBB"/>
</svg>
