<svg width="48" height="48" viewBox="0 0 48 48" fill="none" xmlns="http://www.w3.org/2000/svg">
<path d="M24 26.5C25.3807 26.5 26.5 25.3807 26.5 24C26.5 22.6193 25.3807 21.5 24 21.5C22.6193 21.5 21.5 22.6193 21.5 24C21.5 25.3807 22.6193 26.5 24 26.5Z" stroke="#222222" stroke-width="1.5" stroke-miterlimit="10" stroke-linecap="round" stroke-linejoin="round"/>
<path d="M15.6666 24.7291V23.2631C15.6666 22.3969 16.3746 21.6806 17.2492 21.6806C18.7567 21.6806 19.3731 20.6145 18.6152 19.3068C18.182 18.5572 18.4402 17.5826 19.1982 17.1495L20.6391 16.3249C21.2971 15.9335 22.1467 16.1667 22.5382 16.8247L22.6298 16.9829C23.3794 18.2906 24.6122 18.2906 25.3701 16.9829L25.4617 16.8247C25.8532 16.1667 26.7028 15.9335 27.3608 16.3249L28.8017 17.1495C29.5597 17.5826 29.8179 18.5572 29.3848 19.3068C28.6268 20.6145 29.2432 21.6806 30.7508 21.6806C31.617 21.6806 32.3333 22.3886 32.3333 23.2631V24.7291C32.3333 25.5953 31.6253 26.3116 30.7508 26.3116C29.2432 26.3116 28.6268 27.3777 29.3848 28.6854C29.8179 29.4434 29.5597 30.4096 28.8017 30.8427L27.3608 31.6673C26.7028 32.0587 25.8532 31.8255 25.4617 31.1675L25.3701 31.0093C24.6205 29.7016 23.3878 29.7016 22.6298 31.0093L22.5382 31.1675C22.1467 31.8255 21.2971 32.0587 20.6391 31.6673L19.1982 30.8427C18.4402 30.4096 18.182 29.435 18.6152 28.6854C19.3731 27.3777 18.7567 26.3116 17.2492 26.3116C16.3746 26.3116 15.6666 25.5953 15.6666 24.7291Z" stroke="#222222" stroke-width="1.5" stroke-miterlimit="10" stroke-linecap="round" stroke-linejoin="round"/>
</svg>
