<svg width="120" height="120" viewBox="0 0 120 120" fill="none" xmlns="http://www.w3.org/2000/svg">
<g clip-path="url(#clip0_2_691)">
<circle cx="60" cy="60" r="59.5" stroke="#E4E4E4"/>
<path fill-rule="evenodd" clip-rule="evenodd" d="M60.6774 50.5C60.6774 50.2239 60.4536 50 60.1774 50C59.9013 50 59.6774 50.2239 59.6774 50.5V59.6774H50.5C50.2239 59.6774 50 59.9013 50 60.1774C50 60.4536 50.2239 60.6774 50.5 60.6774H59.6774V69.8548C59.6774 70.131 59.9013 70.3548 60.1774 70.3548C60.4536 70.3548 60.6774 70.131 60.6774 69.8548V60.6774H69.8548C70.131 60.6774 70.3548 60.4536 70.3548 60.1774C70.3548 59.9013 70.131 59.6774 69.8548 59.6774H60.6774V50.5Z" fill="#BBBBBB"/>
</g>
<defs>
<clipPath id="clip0_2_691">
<rect width="120" height="120" fill="white"/>
</clipPath>
</defs>
</svg>
