<svg width="20" height="20" viewBox="0 0 20 20" fill="none" xmlns="http://www.w3.org/2000/svg">
<path d="M9.1665 16.6665C5.03236 16.6665 1.6665 13.3007 1.6665 9.1665C1.6665 5.03236 5.03236 1.6665 9.1665 1.6665C13.3007 1.6665 16.6665 5.03236 16.6665 9.1665C16.6665 13.3007 13.3007 16.6665 9.1665 16.6665ZM9.1665 2.76406C5.63236 2.76406 2.76406 5.63967 2.76406 9.1665C2.76406 12.6933 5.63236 15.5689 9.1665 15.5689C12.7007 15.5689 15.5689 12.6933 15.5689 9.1665C15.5689 5.63967 12.7007 2.76406 9.1665 2.76406Z" fill="#999999"/>
<path d="M17.4502 18.0752C17.2919 18.0752 17.1335 18.0169 17.0085 17.8919L14.1168 15.0001C13.8751 14.7585 13.8751 14.3585 14.1168 14.1168C14.3585 13.8751 14.7585 13.8751 15.0001 14.1168L17.8919 17.0085C18.1335 17.2502 18.1335 17.6502 17.8919 17.8919C17.7669 18.0169 17.6085 18.0752 17.4502 18.0752Z" fill="#999999"/>
</svg>
