<svg width="30" height="30" viewBox="0 0 30 30" fill="none" xmlns="http://www.w3.org/2000/svg">
<circle cx="15" cy="15" r="14.5" stroke="#FF9900"/>
<path d="M17.5579 5.8335C18.6449 5.8335 19.526 7.48708 19.526 8.88793C19.526 10.2888 18.6449 11.4247 17.5579 11.4247C16.4709 11.4247 15.5898 10.289 15.5898 8.88793C15.5898 7.48687 16.4709 5.8335 17.5579 5.8335Z" fill="#FF9900"/>
<path d="M11.9661 5.8335C13.0531 5.8335 13.9342 7.48708 13.9342 8.88793C13.9342 10.2888 13.0531 11.4247 11.9661 11.4247C10.8791 11.4247 9.99805 10.289 9.99805 8.88793C9.99805 7.48687 10.8791 5.8335 11.9661 5.8335Z" fill="#FF9900"/>
<path d="M6.07171 13.2221C5.61015 12.0664 5.81226 10.404 6.73369 10.0359C7.65513 9.66785 8.94694 10.7334 9.4085 11.8891C9.87006 13.0448 9.49736 14.2801 8.57593 14.6481C7.65449 15.0162 6.53327 14.3778 6.07171 13.2221Z" fill="#FF9900"/>
<path d="M23.4522 13.2221C22.9906 14.3778 21.8694 15.0162 20.9479 14.6481C20.0265 14.2801 19.6536 13.0448 20.1154 11.8891C20.5769 10.7334 21.8687 9.66785 22.7902 10.0359C23.7116 10.404 23.9137 12.0664 23.4522 13.2221Z" fill="#FF9900"/>
<path d="M21.8032 19.606C21.5921 18.6596 21.0889 17.806 20.5324 17.0149C19.2284 15.1615 17.1397 13.29 14.762 13.29C12.3941 13.29 10.296 15.1611 8.99155 17.0149C8.43482 17.806 7.93166 18.6594 7.72074 19.606C7.5096 20.5527 7.62515 21.6111 8.2115 22.38C8.79785 23.1489 9.90857 23.5328 10.7771 23.1166C11.2935 22.8691 11.7113 22.3701 12.2811 22.322C12.804 22.2779 13.2662 22.6302 13.7025 22.9248C14.0178 23.1376 14.3979 23.3313 14.762 23.3338C15.126 23.3313 15.5061 23.1376 15.8214 22.9248C16.2576 22.6302 16.7197 22.2781 17.2429 22.322C17.8126 22.3699 18.2305 22.8691 18.7469 23.1166C19.6154 23.5328 20.7261 23.1489 21.3124 22.38C21.8988 21.6111 22.0143 20.5527 21.8032 19.606ZM16.8332 18.4659C16.5649 18.956 16.1416 19.388 15.784 19.7239C15.5918 19.9046 15.3899 20.0735 15.1796 20.2298C15.1792 20.23 15.1788 20.2304 15.1784 20.2306C14.9313 20.4126 14.5926 20.4126 14.3456 20.2306C14.3452 20.2302 14.3447 20.23 14.3443 20.2298C14.134 20.0737 13.9321 19.9046 13.7399 19.7239C13.3823 19.388 12.959 18.956 12.6907 18.4659C12.4691 18.0611 12.3533 17.6163 12.468 17.1529C12.5779 16.7088 12.9285 16.3186 13.3584 16.264C13.8554 16.201 14.434 16.5508 14.762 16.9525C15.0897 16.5508 15.6685 16.201 16.1655 16.264C16.5954 16.3184 16.946 16.7088 17.0559 17.1529C17.1706 17.6163 17.0548 18.0611 16.8332 18.4659Z" fill="#FF9900"/>
</svg>
