<svg width="100" height="100" viewBox="0 0 100 100" fill="none" xmlns="http://www.w3.org/2000/svg">
<path d="M48.6067 58.5921C54.7767 51.4417 53.982 40.6434 46.8316 34.4734C39.6812 28.3033 28.8829 29.098 22.7129 36.2484C16.5428 43.3988 17.3375 54.1971 24.4879 60.3672C31.6383 66.5372 42.4366 65.7425 48.6067 58.5921Z" fill="#FAAF40"/>
<path d="M35.6641 25.6889C34.4735 25.6889 33.5088 24.7242 33.5088 23.5336V14.1553C33.5088 12.9647 34.4735 12 35.6641 12C36.8548 12 37.8194 12.9647 37.8194 14.1553V23.5336C37.8194 24.7242 36.8548 25.6889 35.6641 25.6889Z" fill="#FAAF40"/>
<path d="M11.5336 49.8165H2.15533C0.964674 49.8165 0 48.8518 0 47.6612C0 46.4705 0.964674 45.5059 2.15533 45.5059H11.5336C12.7242 45.5059 13.6889 46.4705 13.6889 47.6612C13.6889 48.8518 12.7242 49.8165 11.5336 49.8165Z" fill="#FAAF40"/>
<path d="M18.6006 32.7546C18.0491 32.7546 17.4975 32.544 17.077 32.1229L10.4457 25.4916C9.60404 24.6505 9.60404 23.2854 10.4457 22.4437C11.2879 21.6021 12.6513 21.6021 13.4935 22.4437L20.1249 29.075C20.9665 29.9161 20.9665 31.2813 20.1249 32.1229C19.7032 32.544 19.1516 32.7546 18.6006 32.7546Z" fill="#FAAF40"/>
<path d="M11.9694 73.5124C11.4178 73.5124 10.8662 73.3018 10.4457 72.8807C9.60404 72.0397 9.60404 70.6745 10.4457 69.8329L17.077 63.2015C17.9186 62.3599 19.2827 62.3599 20.1249 63.2015C20.9665 64.0426 20.9665 65.4078 20.1249 66.2494L13.4936 72.8807C13.0725 73.3024 12.5209 73.5124 11.9694 73.5124Z" fill="#FAAF40"/>
<path d="M52.7242 32.7546C52.1726 32.7546 51.6211 32.544 51.2006 32.1229C50.3589 31.2819 50.3589 29.9173 51.2006 29.075L57.8313 22.4437C58.6718 21.6021 60.037 21.6021 60.8792 22.4437C61.7208 23.2848 61.7208 24.6494 60.8792 25.4916L54.2484 32.1229C53.8279 32.544 53.2758 32.7546 52.7242 32.7546Z" fill="#FAAF40"/>
<path d="M83.2713 54.0756C83.2639 54.0756 83.257 54.0767 83.2496 54.0767C83.2524 53.932 83.2713 53.7912 83.2713 53.6459C83.2713 42.1896 73.984 32.9023 62.5277 32.9023C51.0714 32.9023 41.7842 42.1896 41.7842 53.6459C41.7842 53.6596 41.7864 53.6722 41.7864 53.686C32.8001 54.1031 25.6367 61.4993 25.6367 70.5892C25.6367 79.9468 33.2224 87.5325 42.58 87.5325H83.2713C92.5105 87.5325 100 80.043 100 70.8038C100 61.5651 92.5105 54.0756 83.2713 54.0756Z" fill="#42BFEC"/>
</svg>
