<svg width="36" height="36" viewBox="0 0 36 36" fill="none" xmlns="http://www.w3.org/2000/svg">
<g clip-path="url(#clip0_2_2971)">
<circle cx="18" cy="18" r="18" fill="#E4E4E4"/>
<path d="M17.3601 8C17.1501 8 16.8701 8.12 16.5701 8.32C16.0001 8.7 14.8501 9.9 14.4001 11.1C14.0601 12 14.0501 12.82 14.1901 13.43C13.6301 13.53 13.2201 13.71 13.0601 13.78C12.5501 14 11.4701 14.96 11.3701 16.45C11.3401 16.97 11.4101 17.5 11.5701 18C10.9101 18.19 10.5301 18.43 10.5001 18.44C10.1801 18.56 9.6501 18.93 9.5001 19.13C9.1501 19.53 8.9201 20 8.7901 20.5C8.5001 21.59 8.6001 22.83 9.1301 23.83C9.4201 24.39 9.8201 25 10.2601 25.43C11.7001 26.91 14.1801 27.47 16.1401 27.79C18.5301 28.19 21.0301 28.05 23.2601 27.13C26.6101 25.74 27.5001 23.5 27.6401 22.89C27.9301 21.5 27.5701 20.19 27.4201 19.87C27.2001 19.41 26.8401 18.94 26.2501 18.64C25.8501 18.39 25.5001 18.26 25.2401 18.2C25.5001 17.25 25.1301 16.5 24.6201 15.94C23.8501 15.12 23.0601 15 23.0601 15C23.3201 14.5 23.4201 13.9 23.2801 13.32C23.1201 12.61 22.7301 12.16 22.2201 11.86C21.7001 11.55 21.0601 11.4 20.4001 11.28C20.0801 11.22 18.7501 11.03 18.2001 10.27C17.7501 9.65 17.7401 8.53 17.6201 8.2C17.5701 8.07 17.5001 8 17.3601 8ZM22.0001 15.61C22.0701 15.61 22.1301 15.62 22.1901 15.62C23.6201 15.78 24.6401 17.16 24.4701 18.69C24.3001 20.22 23.0001 21.34 21.5701 21.18C20.1401 21 19.1201 19.65 19.2901 18.11C19.4501 16.66 20.6401 15.56 22.0001 15.61ZM14.6201 15.61C15.9501 15.65 17.0601 16.78 17.1601 18.21C17.2801 19.75 16.2101 21.08 14.7801 21.19H14.7701C13.3401 21.3 12.0801 20.14 11.9601 18.6C11.8501 17.06 12.9201 15.73 14.3501 15.62C14.4401 15.61 14.5301 15.61 14.6201 15.61ZM14.6401 17.31C14.6001 17.31 14.5701 17.31 14.5301 17.32C13.9701 17.39 13.5701 17.9 13.6401 18.45C13.6561 18.5818 13.6982 18.709 13.7639 18.8244C13.8296 18.9397 13.9176 19.0409 14.0228 19.1218C14.1279 19.2028 14.2482 19.262 14.3765 19.2961C14.5048 19.3301 14.6386 19.3382 14.7701 19.32C15.3301 19.25 15.7301 18.74 15.6701 18.19C15.638 17.9418 15.5148 17.7143 15.3245 17.5517C15.1342 17.3891 14.8903 17.303 14.6401 17.31ZM21.9401 17.33C21.4201 17.35 21.0001 17.75 20.9601 18.28C20.952 18.4122 20.9702 18.5446 21.0137 18.6697C21.0573 18.7948 21.1252 18.91 21.2135 19.0086C21.3019 19.1072 21.409 19.1873 21.5286 19.2442C21.6482 19.301 21.7778 19.3336 21.9101 19.34C22.0446 19.3539 22.1805 19.3406 22.3098 19.3009C22.439 19.2612 22.559 19.1959 22.6625 19.1089C22.766 19.0219 22.8509 18.9149 22.9122 18.7944C22.9735 18.6739 23.0099 18.5423 23.0193 18.4074C23.0287 18.2725 23.0109 18.1371 22.9669 18.0092C22.9229 17.8814 22.8536 17.7637 22.7632 17.6632C22.6727 17.5627 22.563 17.4814 22.4405 17.4241C22.318 17.3669 22.1852 17.3349 22.0501 17.33H21.9401ZM14.7101 22.15C15.0001 22.14 15.2601 22.23 15.5001 22.28C16.6801 22.5 17.7001 22.53 18.1901 22.53C18.6801 22.53 19.6901 22.5 20.8601 22.28C21.2701 22.2 21.7401 22.03 22.1101 22.28C22.5901 22.6 22.2401 23.75 21.5001 24.53C21.0714 24.9732 20.5566 25.3242 19.9875 25.5615C19.4183 25.7988 18.8067 25.9174 18.1901 25.91C16.4101 25.91 15.3301 25 14.8801 24.53C14.1401 23.75 13.7901 22.6 14.2601 22.28C14.4001 22.19 14.5501 22.15 14.7101 22.15Z" fill="#222222"/>
</g>
<defs>
<clipPath id="clip0_2_2971">
<rect width="36" height="36" fill="white"/>
</clipPath>
</defs>
</svg>
