<svg width="80" height="80" viewBox="0 0 80 80" fill="none" xmlns="http://www.w3.org/2000/svg">
<path d="M40 27C42.7614 27 45 24.7614 45 22C45 19.2386 42.7614 17 40 17C37.2386 17 35 19.2386 35 22C35 24.7614 37.2386 27 40 27Z" fill="#E4E4E4"/>
<path d="M40.0002 29.5C34.9902 29.5 30.9102 32.86 30.9102 37C30.9102 37.28 31.1302 37.5 31.4102 37.5H48.5902C48.8702 37.5 49.0902 37.28 49.0902 37C49.0902 32.86 45.0102 29.5 40.0002 29.5Z" fill="#E4E4E4"/>
<path d="M16.3955 48.6289V56.5859H10.667V48.6289H16.3955ZM11.9385 49.6543V55.5332H15.1104V49.6543H11.9385ZM19.7451 47.4121V52.2109H21.7139V53.3047H19.7451V59.6621H18.4463V47.4121H19.7451ZM32.4463 47.4121V59.6895H31.1475V47.4121H32.4463ZM25.8975 48.3281C27.7158 48.3281 29.0557 49.9961 29.0557 52.6211C29.0557 55.2598 27.7158 56.9277 25.8975 56.9277C24.0518 56.9277 22.7256 55.2598 22.7256 52.6211C22.7256 49.9961 24.0518 48.3281 25.8975 48.3281ZM25.8975 49.4902C24.7627 49.4902 23.9834 50.6934 23.9834 52.6211C23.9834 54.5625 24.7627 55.7656 25.8975 55.7656C27.0186 55.7656 27.7979 54.5625 27.7979 52.6211C27.7979 50.6934 27.0186 49.4902 25.8975 49.4902ZM44.9971 47.4121V59.6621H43.7529V47.4121H44.9971ZM42.5771 47.6855V59.0332H41.3467V53.168H39.8154V52.0059H41.3467V47.6855H42.5771ZM40.1436 48.916V49.9824H39.2002V55.4512C39.6172 55.4238 40.0205 55.376 40.3896 55.3281L40.4854 56.2715C38.5439 56.6543 36.001 56.709 34.415 56.709L34.2646 55.6152C34.6201 55.6152 35.0303 55.6152 35.4678 55.6016V49.9824H34.5244V48.916H40.1436ZM36.6436 55.5879C37.0879 55.5742 37.5459 55.5605 37.9971 55.5332V49.9824H36.6436V55.5879ZM56.6455 47.4121V59.6895H55.3467V47.4121H56.6455ZM50.0967 48.3281C51.915 48.3281 53.2549 49.9961 53.2549 52.6211C53.2549 55.2598 51.915 56.9277 50.0967 56.9277C48.251 56.9277 46.9248 55.2598 46.9248 52.6211C46.9248 49.9961 48.251 48.3281 50.0967 48.3281ZM50.0967 49.4902C48.9619 49.4902 48.1826 50.6934 48.1826 52.6211C48.1826 54.5625 48.9619 55.7656 50.0967 55.7656C51.2178 55.7656 51.9971 54.5625 51.9971 52.6211C51.9971 50.6934 51.2178 49.4902 50.0967 49.4902ZM63.1123 51.0215C63.1123 53.0723 64.4521 55.1914 66.3389 55.998L65.6279 57.0098C64.1855 56.374 63.0371 55.0273 62.4697 53.3867C61.9023 55.1367 60.7471 56.627 59.3252 57.3242L58.5732 56.2988C60.4189 55.4375 61.7861 53.127 61.7998 51.0215V49.7227H58.9971V48.6426H65.9014V49.7227H63.1123V51.0215ZM68.7451 47.4121V59.6621H67.4463V47.4121H68.7451Z" fill="#999999"/>
</svg>
