<svg width="70" height="60" viewBox="0 0 70 60" fill="none" xmlns="http://www.w3.org/2000/svg">
<path d="M34.5 20C37.2614 20 39.5 17.7614 39.5 15C39.5 12.2386 37.2614 10 34.5 10C31.7386 10 29.5 12.2386 29.5 15C29.5 17.7614 31.7386 20 34.5 20Z" fill="#FF9900"/>
<path d="M34.5002 22.5C29.4902 22.5 25.4102 25.86 25.4102 30C25.4102 30.28 25.6302 30.5 25.9102 30.5H43.0902C43.3702 30.5 43.5902 30.28 43.5902 30C43.5902 25.86 39.5102 22.5 34.5002 22.5Z" fill="#FF9900"/>
<path d="M14.133 46.67C14.133 46.726 14.1096 46.7727 14.063 46.81C14.0256 46.8473 13.9836 46.866 13.937 46.866H12.033V53.53C12.033 53.6513 11.9723 53.712 11.851 53.712H10.605C10.4836 53.712 10.423 53.6513 10.423 53.53V40.608C10.423 40.4867 10.4836 40.426 10.605 40.426H11.851C11.9723 40.426 12.033 40.4867 12.033 40.608V45.522H13.937C13.9836 45.522 14.0256 45.5407 14.063 45.578C14.1096 45.606 14.133 45.6433 14.133 45.69V46.67ZM8.71496 48.812C8.71496 49.176 8.64029 49.4327 8.49096 49.582C8.34163 49.722 8.08963 49.792 7.73496 49.792H3.33896C2.94696 49.792 2.67629 49.722 2.52696 49.582C2.37763 49.4327 2.30296 49.176 2.30296 48.812V42.4C2.30296 42.0453 2.37296 41.8027 2.51296 41.672C2.66229 41.532 2.91429 41.462 3.26896 41.462H7.73496C8.08963 41.462 8.34163 41.5273 8.49096 41.658C8.64029 41.7793 8.71496 42.0267 8.71496 42.4V48.812ZM7.10496 42.96C7.10496 42.8853 7.09096 42.8387 7.06296 42.82C7.04429 42.792 6.99763 42.778 6.92296 42.778H4.08096C4.00629 42.778 3.95496 42.7873 3.92696 42.806C3.90829 42.8247 3.89896 42.8713 3.89896 42.946V48.294C3.89896 48.378 3.90829 48.4293 3.92696 48.448C3.95496 48.4667 4.00629 48.476 4.08096 48.476H6.92296C6.99763 48.476 7.04429 48.4667 7.06296 48.448C7.09096 48.4293 7.10496 48.378 7.10496 48.294V42.96ZM25.787 53.53C25.787 53.6513 25.7263 53.712 25.605 53.712H24.359C24.2376 53.712 24.177 53.6513 24.177 53.53V40.608C24.177 40.4867 24.2376 40.426 24.359 40.426H25.605C25.7263 40.426 25.787 40.4867 25.787 40.608V53.53ZM20.733 45.872C20.733 45.4427 20.691 45.0367 20.607 44.654C20.523 44.262 20.4016 43.9213 20.243 43.632C20.0843 43.3427 19.8883 43.114 19.655 42.946C19.431 42.778 19.1696 42.694 18.871 42.694C18.5723 42.694 18.3063 42.778 18.073 42.946C17.849 43.114 17.6576 43.3427 17.499 43.632C17.3403 43.9213 17.219 44.262 17.135 44.654C17.051 45.0367 17.009 45.4427 17.009 45.872C17.009 46.292 17.051 46.698 17.135 47.09C17.219 47.4727 17.3403 47.8133 17.499 48.112C17.6576 48.4013 17.849 48.6347 18.073 48.812C18.3063 48.98 18.5723 49.064 18.871 49.064C19.1696 49.064 19.431 48.98 19.655 48.812C19.8883 48.6347 20.0843 48.4013 20.243 48.112C20.4016 47.8133 20.523 47.4727 20.607 47.09C20.691 46.698 20.733 46.292 20.733 45.872ZM18.871 50.492C18.339 50.492 17.8583 50.38 17.429 50.156C16.9996 49.932 16.6356 49.6193 16.337 49.218C16.0476 48.8073 15.8236 48.3173 15.665 47.748C15.5063 47.1787 15.427 46.5533 15.427 45.872C15.427 45.172 15.5063 44.5373 15.665 43.968C15.8236 43.3987 16.0476 42.918 16.337 42.526C16.6356 42.1247 16.9996 41.8167 17.429 41.602C17.8583 41.378 18.339 41.266 18.871 41.266C19.4123 41.266 19.893 41.378 20.313 41.602C20.7423 41.8167 21.1016 42.1247 21.391 42.526C21.6896 42.918 21.9183 43.3987 22.077 43.968C22.2356 44.5373 22.315 45.172 22.315 45.872C22.315 46.572 22.2356 47.2067 22.077 47.776C21.9183 48.3453 21.6896 48.8307 21.391 49.232C21.1016 49.6333 20.7423 49.946 20.313 50.17C19.893 50.3847 19.4123 50.492 18.871 50.492ZM27.739 48.784C27.739 48.6533 27.8043 48.588 27.935 48.588H28.915V42.932H28.047C28.0003 42.932 27.949 42.9087 27.893 42.862C27.8463 42.8153 27.823 42.764 27.823 42.708V41.84C27.823 41.7933 27.8463 41.7467 27.893 41.7C27.949 41.644 28.0003 41.616 28.047 41.616H34.067C34.123 41.616 34.1697 41.6393 34.207 41.686C34.2537 41.7233 34.277 41.7747 34.277 41.84V42.722C34.2583 42.7593 34.235 42.7967 34.207 42.834C34.1603 42.8993 34.1137 42.932 34.067 42.932H33.171V48.448C33.3857 48.4293 33.5863 48.406 33.773 48.378C33.969 48.35 34.1557 48.322 34.333 48.294C34.3797 48.2847 34.4263 48.294 34.473 48.322C34.529 48.3407 34.5617 48.3733 34.571 48.42L34.697 49.288C34.7157 49.3627 34.7017 49.4233 34.655 49.47C34.6177 49.5073 34.5757 49.5307 34.529 49.54C34.109 49.624 33.633 49.694 33.101 49.75C32.5783 49.7967 32.0277 49.834 31.449 49.862C30.8703 49.89 30.2823 49.9087 29.685 49.918C29.0877 49.918 28.5043 49.9087 27.935 49.89C27.879 49.89 27.8323 49.8713 27.795 49.834C27.7577 49.7873 27.739 49.736 27.739 49.68V48.784ZM35.495 40.846C35.495 40.7247 35.5603 40.664 35.691 40.664H36.825C36.9557 40.664 37.021 40.7247 37.021 40.846V53.068C37.021 53.1987 36.9557 53.264 36.825 53.264H35.691C35.5603 53.264 35.495 53.1987 35.495 53.068V46.25H34.109C34.053 46.25 34.0017 46.2313 33.955 46.194C33.9177 46.1567 33.899 46.1147 33.899 46.068V45.102C33.899 45.0553 33.9177 45.018 33.955 44.99C34.0017 44.9527 34.053 44.934 34.109 44.934H35.495V40.846ZM39.555 53.558C39.555 53.6793 39.4943 53.74 39.373 53.74H38.155C38.0337 53.74 37.973 53.6793 37.973 53.558V40.608C37.973 40.4867 38.0383 40.426 38.169 40.426H39.373C39.4943 40.426 39.555 40.4867 39.555 40.608V53.558ZM30.385 48.574C30.6183 48.5647 30.8423 48.56 31.057 48.56C31.2717 48.56 31.4863 48.5507 31.701 48.532V42.932H30.385V48.574ZM52.119 53.53C52.119 53.6513 52.0583 53.712 51.937 53.712H50.691C50.5697 53.712 50.509 53.6513 50.509 53.53V40.608C50.509 40.4867 50.5697 40.426 50.691 40.426H51.937C52.0583 40.426 52.119 40.4867 52.119 40.608V53.53ZM47.065 45.872C47.065 45.4427 47.023 45.0367 46.939 44.654C46.855 44.262 46.7337 43.9213 46.575 43.632C46.4163 43.3427 46.2203 43.114 45.987 42.946C45.763 42.778 45.5017 42.694 45.203 42.694C44.9043 42.694 44.6383 42.778 44.405 42.946C44.181 43.114 43.9897 43.3427 43.831 43.632C43.6723 43.9213 43.551 44.262 43.467 44.654C43.383 45.0367 43.341 45.4427 43.341 45.872C43.341 46.292 43.383 46.698 43.467 47.09C43.551 47.4727 43.6723 47.8133 43.831 48.112C43.9897 48.4013 44.181 48.6347 44.405 48.812C44.6383 48.98 44.9043 49.064 45.203 49.064C45.5017 49.064 45.763 48.98 45.987 48.812C46.2203 48.6347 46.4163 48.4013 46.575 48.112C46.7337 47.8133 46.855 47.4727 46.939 47.09C47.023 46.698 47.065 46.292 47.065 45.872ZM45.203 50.492C44.671 50.492 44.1903 50.38 43.761 50.156C43.3317 49.932 42.9677 49.6193 42.669 49.218C42.3797 48.8073 42.1557 48.3173 41.997 47.748C41.8383 47.1787 41.759 46.5533 41.759 45.872C41.759 45.172 41.8383 44.5373 41.997 43.968C42.1557 43.3987 42.3797 42.918 42.669 42.526C42.9677 42.1247 43.3317 41.8167 43.761 41.602C44.1903 41.378 44.671 41.266 45.203 41.266C45.7443 41.266 46.225 41.378 46.645 41.602C47.0743 41.8167 47.4337 42.1247 47.723 42.526C48.0217 42.918 48.2503 43.3987 48.409 43.968C48.5677 44.5373 48.647 45.172 48.647 45.872C48.647 46.572 48.5677 47.2067 48.409 47.776C48.2503 48.3453 48.0217 48.8307 47.723 49.232C47.4337 49.6333 47.0743 49.946 46.645 50.17C46.225 50.3847 45.7443 50.492 45.203 50.492ZM55.317 50.338C55.2424 50.3847 55.163 50.4033 55.079 50.394C54.995 50.3847 54.9297 50.3427 54.883 50.268L54.337 49.54C54.2717 49.456 54.2577 49.3767 54.295 49.302C54.3417 49.2273 54.3977 49.1713 54.463 49.134C55.051 48.77 55.611 48.35 56.143 47.874C56.675 47.398 57.151 46.8987 57.571 46.376C58.0004 45.8533 58.3644 45.3213 58.663 44.78C58.9617 44.2293 59.1764 43.702 59.307 43.198C59.3444 43.0393 59.349 42.9367 59.321 42.89C59.293 42.8433 59.1997 42.82 59.041 42.82H55.429C55.373 42.82 55.3264 42.8013 55.289 42.764C55.261 42.7173 55.247 42.666 55.247 42.61V41.672C55.247 41.5413 55.3124 41.476 55.443 41.476H60.007C60.371 41.476 60.6557 41.546 60.861 41.686C61.0664 41.826 61.169 42.008 61.169 42.232C61.169 42.3533 61.1597 42.4793 61.141 42.61C61.1224 42.7313 61.099 42.8433 61.071 42.946C60.9404 43.4407 60.763 43.94 60.539 44.444C60.3244 44.9387 60.0584 45.438 59.741 45.942C59.9184 46.1847 60.1237 46.4413 60.357 46.712C60.5904 46.9733 60.833 47.23 61.085 47.482C61.337 47.734 61.5844 47.972 61.827 48.196C62.0697 48.4107 62.289 48.588 62.485 48.728C62.5504 48.7747 62.5924 48.8353 62.611 48.91C62.639 48.9847 62.625 49.0593 62.569 49.134L61.967 49.82C61.8457 49.9507 61.6917 49.96 61.505 49.848C61.337 49.736 61.1364 49.582 60.903 49.386C60.679 49.1807 60.4457 48.9567 60.203 48.714C59.9604 48.4713 59.7224 48.2147 59.489 47.944C59.2557 47.6733 59.0457 47.4167 58.859 47.174C58.383 47.762 57.851 48.3267 57.263 48.868C56.675 49.4 56.0264 49.89 55.317 50.338ZM65.299 53.53C65.299 53.6513 65.2337 53.712 65.103 53.712H63.871C63.8244 53.712 63.7777 53.6933 63.731 53.656C63.6937 53.628 63.675 53.586 63.675 53.53V40.608C63.675 40.5613 63.6937 40.5193 63.731 40.482C63.7777 40.4447 63.8244 40.426 63.871 40.426H65.103C65.2337 40.426 65.299 40.4867 65.299 40.608V53.53Z" fill="#222222"/>
</svg>
