<svg width="80" height="80" viewBox="0 0 80 80" fill="none" xmlns="http://www.w3.org/2000/svg">
<path d="M43.0697 16.5C44.3741 16.5 45.4314 18.4843 45.4314 20.1653C45.4314 21.8463 44.3741 23.2095 43.0697 23.2095C41.7653 23.2095 40.708 21.8466 40.708 20.1653C40.708 18.484 41.7653 16.5 43.0697 16.5Z" fill="#FF9900"/>
<path d="M36.3597 16.5C37.6641 16.5 38.7214 18.4843 38.7214 20.1653C38.7214 21.8463 37.6641 23.2095 36.3597 23.2095C35.0554 23.2095 33.998 21.8466 33.998 20.1653C33.998 18.484 35.0554 16.5 36.3597 16.5Z" fill="#FF9900"/>
<path d="M29.2862 25.3653C28.7323 23.9785 28.9748 21.9836 30.0805 21.5419C31.1862 21.1003 32.7364 22.3789 33.2903 23.7657C33.8442 25.1525 33.3969 26.6349 32.2912 27.0766C31.1855 27.5183 29.84 26.7521 29.2862 25.3653Z" fill="#FF9900"/>
<path d="M50.1423 25.3653C49.5884 26.7521 48.243 27.5183 47.1372 27.0766C46.0315 26.6349 45.584 25.1525 46.1381 23.7657C46.692 22.3789 48.2422 21.1003 49.3479 21.5419C50.4536 21.9836 50.6962 23.9785 50.1423 25.3653Z" fill="#FF9900"/>
<path d="M48.1639 33.0265C47.9106 31.8908 47.3068 30.8665 46.639 29.917C45.0742 27.693 42.5677 25.4473 39.7145 25.4473C36.873 25.4473 34.3553 27.6925 32.79 29.917C32.1219 30.8665 31.5181 31.8905 31.265 33.0265C31.0116 34.1624 31.1503 35.4325 31.8539 36.3552C32.5575 37.2779 33.8904 37.7385 34.9326 37.2391C35.5522 36.9421 36.0537 36.3434 36.7374 36.2857C37.3649 36.2327 37.9195 36.6555 38.4431 37.0089C38.8215 37.2643 39.2776 37.4968 39.7145 37.4998C40.1513 37.4968 40.6074 37.2643 40.9858 37.0089C41.5092 36.6555 42.0638 36.233 42.6915 36.2857C43.3752 36.3431 43.8767 36.9421 44.4963 37.2391C45.5385 37.7385 46.8714 37.2779 47.575 36.3552C48.2786 35.4325 48.4173 34.1624 48.1639 33.0265ZM42.1999 31.6583C41.878 32.2465 41.37 32.7648 40.9409 33.1679C40.7103 33.3847 40.468 33.5874 40.2156 33.775C40.2151 33.7752 40.2146 33.7757 40.2141 33.776C39.9176 33.9943 39.5113 33.9943 39.2148 33.776C39.2143 33.7755 39.2138 33.7752 39.2133 33.775C38.9609 33.5877 38.7186 33.3847 38.488 33.1679C38.0589 32.7648 37.5509 32.2465 37.229 31.6583C36.963 31.1725 36.8241 30.6388 36.9617 30.0827C37.0936 29.5497 37.5144 29.0816 38.0302 29.016C38.6266 28.9404 39.3209 29.3601 39.7145 29.8422C40.1077 29.3601 40.8023 28.9404 41.3987 29.016C41.9146 29.0813 42.3353 29.5497 42.4672 30.0827C42.6048 30.6388 42.4659 31.1725 42.1999 31.6583Z" fill="#FF9900"/>
<path d="M32.2031 49.6543C32.2031 51.2949 33.3516 52.8398 35.2109 53.4688L34.541 54.4941C33.167 54.0088 32.1484 53.0312 31.6016 51.8008C31.0684 53.1748 30.0156 54.248 28.5801 54.7812L27.8555 53.7559C29.7969 53.0859 30.918 51.4453 30.918 49.6133V48.1641H32.2031V49.6543ZM37.5762 47.3984V51.0898H39.3535V52.1973H37.5762V56.4355H36.2773V47.3984H37.5762ZM38.1094 58.3496V59.4023H29.8242V55.5605H31.1504V58.3496H38.1094ZM43.7559 50.1055C43.7559 51.4863 44.6309 52.8262 46.1895 53.3867L45.5742 54.3711C44.4189 53.9199 43.6123 53.0791 43.168 52.0469C42.7441 53.1748 41.9238 54.0977 40.7344 54.5762L40.1191 53.6191C41.6641 52.9902 42.5254 51.582 42.5254 50.1055V49.9961H40.3926V48.957H42.5254V47.5488H43.7559V48.957H45.8613V49.9961H43.7559V50.1055ZM50.4961 47.4258V54.918H49.2656V51.6914H47.8711V54.8633H46.627V47.6309H47.8711V50.625H49.2656V47.4258H50.4961ZM50.4961 55.5332V59.6621H49.2109V56.5859H42.1699V55.5332H50.4961Z" fill="#222222"/>
</svg>
