<svg width="16" height="16" viewBox="0 0 16 16" fill="none" xmlns="http://www.w3.org/2000/svg">
<g id="Frame 5058">
<g id="Group 1687">
<circle id="Ellipse 111" cx="1.5" cy="2.5" r="1.5" fill="#222222"/>
<circle id="Ellipse 112" cx="14.5" cy="2.5" r="1.5" fill="#222222"/>
<path id="Rectangle 14847" d="M4.67385 8.32288C4.31184 7.71208 4.77657 7 5.48659 7H10.5134C11.2234 7 11.6882 7.71208 11.3261 8.32288C10.6358 9.48772 9.4586 11 8 11C6.5414 11 5.36423 9.48772 4.67385 8.32288Z" fill="#222222"/>
<path id="Vector 39" d="M14.7484 14.6576C15.0152 14.5861 15.1735 14.3119 15.102 14.0452C15.0305 13.7785 14.7564 13.6202 14.4896 13.6917L14.7484 14.6576ZM7.26058 9.1111C7.38685 10.307 7.89988 12.0298 9.06588 13.295C9.65508 13.9343 10.414 14.4591 11.3698 14.7293C12.3252 14.9994 13.4467 15.0064 14.7484 14.6576L14.4896 13.6917C13.3325 14.0017 12.3967 13.9804 11.6418 13.767C10.8873 13.5537 10.2829 13.1399 9.80122 12.6173C8.82554 11.5586 8.36681 10.0646 8.25505 9.00609L7.26058 9.1111Z" fill="#222222"/>
<path id="Vector 40" d="M1.3707 14.6576C1.10397 14.5861 0.945678 14.3119 1.01715 14.0452C1.08862 13.7785 1.36279 13.6202 1.62952 13.6917L1.3707 14.6576ZM8.85856 9.1111C8.73229 10.307 8.21926 12.0298 7.05326 13.295C6.46406 13.9343 5.70514 14.4591 4.74937 14.7293C3.79396 14.9994 2.67245 15.0064 1.3707 14.6576L1.62952 13.6917C2.78662 14.0017 3.72243 13.9804 4.47734 13.767C5.23189 13.5537 5.83628 13.1399 6.31792 12.6173C7.2936 11.5586 7.75233 10.0646 7.86409 9.00609L8.85856 9.1111Z" fill="#222222"/>
</g>
</g>
</svg>
