<svg width="36" height="36" viewBox="0 0 36 36" fill="none" xmlns="http://www.w3.org/2000/svg">
<g id="ic / touch">
<path id="Vector" d="M28.125 15.75C28.5938 15.75 29.0332 15.8379 29.4434 16.0137C29.8535 16.1895 30.2109 16.4297 30.5156 16.7344C30.8203 17.0391 31.0605 17.3965 31.2363 17.8066C31.4121 18.2168 31.5 18.6562 31.5 19.125V25.875C31.5 27.2695 31.2363 28.582 30.709 29.8125C30.1816 31.043 29.4551 32.1152 28.5293 33.0293C27.6035 33.9434 26.5312 34.6641 25.3125 35.1914C24.0938 35.7188 22.7812 35.9883 21.375 36C19.6875 36 18.1172 35.6777 16.6641 35.0332C15.2109 34.3887 13.8867 33.4746 12.6914 32.291L4.39453 23.9941C4.06641 23.666 3.81445 23.2852 3.63867 22.8516C3.46289 22.418 3.375 21.9727 3.375 21.5156C3.375 21.0234 3.46875 20.5664 3.65625 20.1445C3.84375 19.7227 4.0957 19.3477 4.41211 19.0195C4.72852 18.6914 5.09766 18.4453 5.51953 18.2812C5.94141 18.1172 6.39844 18.0234 6.89062 18C7.85156 18 8.67773 18.3457 9.36914 19.0371L11.25 20.9004V14.9941C10.5586 14.666 9.9375 14.2559 9.38672 13.7637C8.83594 13.2715 8.36719 12.7148 7.98047 12.0938C7.59375 11.4727 7.28906 10.8047 7.06641 10.0898C6.84375 9.375 6.73828 8.63672 6.75 7.875C6.75 6.78516 6.95508 5.76562 7.36523 4.81641C7.77539 3.86719 8.33789 3.0293 9.05273 2.30273C9.76758 1.57617 10.5996 1.01367 11.5488 0.615234C12.498 0.216797 13.5234 0.0117188 14.625 0C15.7148 0 16.7344 0.205078 17.6836 0.615234C18.6328 1.02539 19.4707 1.58789 20.1973 2.30273C20.9238 3.01758 21.4863 3.84961 21.8848 4.79883C22.2832 5.74805 22.4883 6.77344 22.5 7.875C22.5 8.96484 22.2832 10.0078 21.8496 11.0039C21.416 12 20.8008 12.873 20.0039 13.623C20.4141 13.7285 20.7832 13.9043 21.1113 14.1504C21.4395 14.3965 21.7266 14.7012 21.9727 15.0645C22.5 14.7715 23.0508 14.625 23.625 14.625C24.2109 14.625 24.7559 14.7598 25.2598 15.0293C25.7637 15.2988 26.168 15.6855 26.4727 16.1895C27 15.8965 27.5508 15.75 28.125 15.75ZM9 7.875C9 8.75391 9.19922 9.5918 9.59766 10.3887C9.99609 11.1855 10.5469 11.8477 11.25 12.375V7.875C11.25 7.40625 11.3379 6.9668 11.5137 6.55664C11.6895 6.14648 11.9297 5.78906 12.2344 5.48438C12.5391 5.17969 12.8965 4.93945 13.3066 4.76367C13.7168 4.58789 14.1562 4.5 14.625 4.5C15.0938 4.5 15.5332 4.58789 15.9434 4.76367C16.3535 4.93945 16.7109 5.17969 17.0156 5.48438C17.3203 5.78906 17.5605 6.14648 17.7363 6.55664C17.9121 6.9668 18 7.40625 18 7.875V12.375C18.7031 11.8477 19.2539 11.1855 19.6523 10.3887C20.0508 9.5918 20.25 8.75391 20.25 7.875C20.25 7.10156 20.1035 6.375 19.8105 5.69531C19.5176 5.01562 19.1133 4.42383 18.5977 3.91992C18.082 3.41602 17.4844 3.01172 16.8047 2.70703C16.125 2.40234 15.3984 2.25 14.625 2.25C13.8516 2.25 13.125 2.39648 12.4453 2.68945C11.7656 2.98242 11.168 3.38672 10.6523 3.90234C10.1367 4.41797 9.73242 5.01562 9.43945 5.69531C9.14648 6.375 9 7.10156 9 7.875ZM29.25 19.125C29.25 18.8203 29.1387 18.5566 28.916 18.334C28.6934 18.1113 28.4297 18 28.125 18C27.7266 18 27.4512 18.1113 27.2988 18.334C27.1465 18.5566 27.0527 18.832 27.0176 19.1602C26.9824 19.4883 26.9766 19.8516 27 20.25C27.0234 20.6484 27.0234 21.0059 27 21.3223C26.9766 21.6387 26.8828 21.9199 26.7188 22.166C26.5547 22.4121 26.2734 22.5234 25.875 22.5C25.4414 22.5 25.1484 22.3652 24.9961 22.0957C24.8438 21.8262 24.75 21.4746 24.7148 21.041C24.6797 20.6074 24.6914 20.1562 24.75 19.6875C24.8086 19.2188 24.8203 18.7676 24.7852 18.334C24.75 17.9004 24.6621 17.5547 24.5215 17.2969C24.3809 17.0391 24.082 16.8984 23.625 16.875C23.2266 16.875 22.9512 16.9863 22.7988 17.209C22.6465 17.4316 22.5527 17.707 22.5176 18.0352C22.4824 18.3633 22.4766 18.7266 22.5 19.125C22.5234 19.5234 22.5234 19.8809 22.5 20.1973C22.4766 20.5137 22.3828 20.7949 22.2188 21.041C22.0547 21.2871 21.7734 21.3984 21.375 21.375C20.9414 21.375 20.6484 21.2402 20.4961 20.9707C20.3438 20.7012 20.25 20.3496 20.2148 19.916C20.1797 19.4824 20.1914 19.0312 20.25 18.5625C20.3086 18.0938 20.3203 17.6426 20.2852 17.209C20.25 16.7754 20.1621 16.4297 20.0215 16.1719C19.8809 15.9141 19.582 15.7734 19.125 15.75C18.7266 15.75 18.4512 15.8613 18.2988 16.084C18.1465 16.3066 18.0527 16.582 18.0176 16.9102C17.9824 17.2383 17.9766 17.6016 18 18C18.0234 18.3984 18.0234 18.7559 18 19.0723C17.9766 19.3887 17.8828 19.6699 17.7188 19.916C17.5547 20.1621 17.2734 20.2734 16.875 20.25C16.5703 20.25 16.3066 20.1387 16.084 19.916C15.8613 19.6934 15.75 19.4297 15.75 19.125V7.875C15.75 7.57031 15.6387 7.30664 15.416 7.08398C15.1934 6.86133 14.9297 6.75 14.625 6.75C14.3203 6.75 14.0566 6.86133 13.834 7.08398C13.6113 7.30664 13.5 7.57031 13.5 7.875V21.709C13.5 21.9785 13.4531 22.2246 13.3594 22.4473C13.2656 22.6699 13.1309 22.875 12.9551 23.0625C12.7793 23.25 12.5742 23.3848 12.3398 23.4668C12.1055 23.5488 11.8594 23.6016 11.6016 23.625C11.3438 23.625 11.0977 23.5781 10.8633 23.4844C10.6289 23.3906 10.4121 23.25 10.2129 23.0625L7.76953 20.6191C7.52344 20.373 7.23047 20.25 6.89062 20.25C6.55078 20.25 6.25781 20.373 6.01172 20.6191C5.76562 20.8652 5.63672 21.1641 5.625 21.5156C5.625 21.8555 5.74805 22.1484 5.99414 22.3945L14.291 30.709C15.2754 31.6934 16.3535 32.4434 17.5254 32.959C18.6973 33.4746 19.9805 33.7383 21.375 33.75C22.4648 33.75 23.4844 33.5449 24.4336 33.1348C25.3828 32.7246 26.2148 32.1621 26.9297 31.4473C27.6445 30.7324 28.207 29.9004 28.6172 28.9512C29.0273 28.002 29.2383 26.9766 29.25 25.875V19.125Z" fill="#FF9900"/>
</g>
</svg>
