<svg width="25" height="24" viewBox="0 0 25 24" fill="none" xmlns="http://www.w3.org/2000/svg">
<g id="ic / walk">
<g id="Group">
<path id="Vector" d="M15.5695 1C16.8738 1 17.9312 2.9843 17.9312 4.66532C17.9312 6.34634 16.8738 7.70946 15.5695 7.70946C14.2651 7.70946 13.2078 6.34659 13.2078 4.66532C13.2078 2.98405 14.2651 1 15.5695 1Z" fill="#E4E4E4"/>
<path id="Vector_2" d="M8.8595 1C10.1639 1 11.2212 2.9843 11.2212 4.66532C11.2212 6.34634 10.1639 7.70946 8.8595 7.70946C7.55512 7.70946 6.4978 6.34659 6.4978 4.66532C6.4978 2.98405 7.55512 1 8.8595 1Z" fill="#E4E4E4"/>
<path id="Vector_3" d="M1.78615 9.8663C1.23228 8.47948 1.4748 6.4846 2.58053 6.04291C3.68625 5.60123 5.23643 6.87989 5.7903 8.26671C6.34416 9.65352 5.89693 11.1359 4.79121 11.5776C3.68549 12.0193 2.34002 11.2531 1.78615 9.8663Z" fill="#E4E4E4"/>
<path id="Vector_4" d="M22.6428 9.8663C22.0889 11.2531 20.7434 12.0193 19.6377 11.5776C18.532 11.1359 18.0845 9.65352 18.6386 8.26671C19.1925 6.87989 20.7427 5.60123 21.8484 6.04291C22.9541 6.4846 23.1967 8.47948 22.6428 9.8663Z" fill="#E4E4E4"/>
<path id="Vector_5" d="M20.6639 17.527C20.4106 16.3912 19.8068 15.3669 19.139 14.4175C17.5742 12.1935 15.0677 9.94775 12.2145 9.94775C9.373 9.94775 6.85526 12.193 5.28995 14.4175C4.62188 15.3669 4.0181 16.391 3.76498 17.527C3.51162 18.6629 3.65028 19.933 4.3539 20.8557C5.05751 21.7784 6.39038 22.239 7.43257 21.7396C8.05224 21.4426 8.55367 20.8439 9.23737 20.7861C9.86486 20.7332 10.4195 21.156 10.9431 21.5094C11.3215 21.7648 11.7776 21.9972 12.2145 22.0003C12.6513 21.9972 13.1074 21.7648 13.4858 21.5094C14.0092 21.156 14.5638 20.7335 15.1915 20.7861C15.8752 20.8436 16.3767 21.4426 16.9963 21.7396C18.0385 22.239 19.3714 21.7784 20.075 20.8557C20.7786 19.933 20.9173 18.6629 20.6639 17.527ZM14.6999 16.1588C14.378 16.747 13.87 17.2653 13.4409 17.6684C13.2103 17.8852 12.968 18.0879 12.7156 18.2755C12.7151 18.2757 12.7146 18.2762 12.7141 18.2765C12.4176 18.4948 12.0113 18.4948 11.7148 18.2765C11.7143 18.276 11.7138 18.2757 11.7133 18.2755C11.4609 18.0881 11.2186 17.8852 10.988 17.6684C10.5589 17.2653 10.0509 16.747 9.72897 16.1588C9.46301 15.673 9.3241 15.1393 9.46175 14.5832C9.5936 14.0502 10.0144 13.5821 10.5302 13.5165C11.1266 13.4409 11.8209 13.8606 12.2145 14.3427C12.6077 13.8606 13.3023 13.4409 13.8987 13.5165C14.4146 13.5818 14.8353 14.0502 14.9672 14.5832C15.1048 15.1393 14.9659 15.673 14.6999 16.1588Z" fill="#E4E4E4"/>
</g>
</g>
</svg>
