<svg width="100" height="100" viewBox="0 0 100 100" fill="none" xmlns="http://www.w3.org/2000/svg">
<path d="M70.975 54.7257C73.7481 43.1362 66.601 31.4929 55.0115 28.7198C43.422 25.9467 31.7787 33.0937 29.0056 44.6833C26.2325 56.2728 33.3795 67.916 44.9691 70.6892C56.5586 73.4623 68.2018 66.3152 70.975 54.7257Z" fill="#FAAF40"/>
<path d="M50.0009 22.273C48.4985 22.273 47.2812 21.0558 47.2812 19.5534V7.71964C47.2812 6.21723 48.4985 5 50.0009 5C51.5033 5 52.7205 6.21723 52.7205 7.71964V19.5534C52.7205 21.0558 51.5033 22.273 50.0009 22.273Z" fill="#FAAF40"/>
<path d="M50.0009 94.9996C48.4985 94.9996 47.2812 93.7823 47.2812 92.2799V80.4462C47.2812 78.9438 48.4985 77.7266 50.0009 77.7266C51.5033 77.7266 52.7205 78.9438 52.7205 80.4462V92.2799C52.7205 93.7823 51.5033 94.9996 50.0009 94.9996Z" fill="#FAAF40"/>
<path d="M92.2799 52.7186H80.4462C78.9438 52.7186 77.7266 51.5013 77.7266 49.9989C77.7266 48.4965 78.9438 47.2793 80.4462 47.2793H92.2799C93.7823 47.2793 94.9996 48.4965 94.9996 49.9989C94.9996 51.5013 93.7823 52.7186 92.2799 52.7186Z" fill="#FAAF40"/>
<path d="M7.71964 52.7186H19.5534C21.0558 52.7186 22.273 51.5013 22.273 49.9989C22.273 48.4965 21.0558 47.2793 19.5534 47.2793H7.71964C6.21723 47.2793 5 48.4965 5 49.9989C5 51.5013 6.21723 52.7186 7.71964 52.7186Z" fill="#FAAF40"/>
<path d="M28.4714 31.1918C27.7755 31.1918 27.0795 30.9261 26.5488 30.3948L18.1813 22.0272C17.1193 20.9659 17.1193 19.2433 18.1813 18.1813C19.2433 17.1193 20.9644 17.1193 22.0272 18.1813L30.3947 26.5489C31.4568 27.6101 31.4568 29.3328 30.3947 30.3948C29.8627 30.9261 29.1667 31.1918 28.4714 31.1918Z" fill="#FAAF40"/>
<path d="M79.8965 82.6156C79.2005 82.6156 78.5046 82.3499 77.9739 81.8186L69.6071 73.451C68.545 72.389 68.545 70.6671 69.6071 69.6051C70.6691 68.5431 72.3902 68.5431 73.453 69.6051L81.8198 77.9727C82.8818 79.0347 82.8818 80.7566 81.8198 81.8186C81.2877 82.3499 80.5925 82.6156 79.8965 82.6156Z" fill="#FAAF40"/>
<path d="M20.1039 82.6156C19.4079 82.6156 18.7119 82.3499 18.1813 81.8186C17.1193 80.7573 17.1193 79.0347 18.1813 77.9727L26.5488 69.6051C27.6109 68.5431 29.332 68.5431 30.3947 69.6051C31.4568 70.6664 31.4568 72.389 30.3947 73.451L22.0272 81.8186C21.4951 82.3499 20.7991 82.6156 20.1039 82.6156Z" fill="#FAAF40"/>
<path d="M71.5296 31.1918C70.8337 31.1918 70.1377 30.9261 69.6071 30.3948C68.545 29.3335 68.545 27.6116 69.6071 26.5489L77.9739 18.1813C79.0345 17.1193 80.7571 17.1193 81.8198 18.1813C82.8818 19.2426 82.8818 20.9645 81.8198 22.0272L73.453 30.3948C72.9223 30.9261 72.2256 31.1918 71.5296 31.1918Z" fill="#FAAF40"/>
</svg>
