<svg width="100" height="100" viewBox="0 0 100 100" fill="none" xmlns="http://www.w3.org/2000/svg">
<path d="M72.0032 33.7782C71.9952 33.7782 71.9878 33.7794 71.9798 33.7794C71.9829 33.6237 72.0032 33.4723 72.0032 33.3159C72.0032 20.9912 62.012 11 49.6873 11C37.3626 11 27.3714 20.9912 27.3714 33.3159C27.3714 33.3307 27.3738 33.3442 27.3738 33.359C17.7064 33.8077 10 41.7646 10 51.5435C10 61.6104 18.1606 69.7711 28.2276 69.7711H72.0032C81.9427 69.7711 90 61.7138 90 51.7743C89.9994 41.8354 81.9421 33.7782 72.0032 33.7782Z" fill="#42BFEC"/>
<path d="M18.2953 89.969C17.8755 89.969 17.4508 89.8558 17.0686 89.6163C15.9822 88.938 15.6529 87.5075 16.3312 86.4217L34.3464 57.5966C35.026 56.5096 36.4558 56.1797 37.5416 56.8592C38.628 57.5375 38.9573 58.968 38.279 60.0538L20.2638 88.8789C19.8237 89.5837 19.0678 89.969 18.2953 89.969Z" fill="#ADE0F3"/>
<path d="M55.6438 89.9689C55.224 89.9689 54.7993 89.8551 54.4171 89.6162C53.3313 88.9379 53.0014 87.5074 53.6797 86.4216L66.4482 65.9923C67.1277 64.9041 68.5594 64.5778 69.6428 65.2549C70.7279 65.9332 71.0585 67.3637 70.3808 68.4501L57.6117 88.8795C57.1722 89.5836 56.4169 89.9689 55.6438 89.9689Z" fill="#ADE0F3"/>
<path d="M36.3104 89.9669C35.8955 89.9669 35.4739 89.8555 35.0947 89.621C34.0059 88.9483 33.6673 87.5196 34.3401 86.4295L59.5619 45.5709C60.2353 44.4826 61.6614 44.1441 62.7528 44.8162C63.8416 45.4884 64.1802 46.9176 63.5074 48.0071L38.2856 88.8652C37.8473 89.5761 37.0878 89.9669 36.3104 89.9669Z" fill="#ADE0F3"/>
</svg>
