<svg width="100" height="100" viewBox="0 0 100 100" fill="none" xmlns="http://www.w3.org/2000/svg">
<path d="M87.8046 67.5019L81.5251 63.8746C82.6615 62.7042 83.9647 61.7084 85.3926 60.9195C86.326 60.3933 87.0138 59.5195 87.3061 58.4886C87.5985 57.4576 87.4717 56.3529 86.9534 55.415C86.4351 54.477 85.5673 53.7818 84.5388 53.4807C83.5104 53.1795 82.4047 53.2969 81.4623 53.8071C78.7361 55.3161 76.3202 57.3277 74.3425 59.7357L58.0695 50.3257L74.3388 40.9323C76.316 43.3408 78.732 45.3525 81.4587 46.8609C81.926 47.1244 82.4409 47.2927 82.9736 47.3562C83.5064 47.4196 84.0464 47.3769 84.5626 47.2306C85.0787 47.0842 85.5608 46.8371 85.981 46.5034C86.4011 46.1698 86.751 45.7563 87.0105 45.2867C87.27 44.8171 87.4339 44.3008 87.4928 43.7675C87.5517 43.2342 87.5044 42.6946 87.3536 42.1797C87.2029 41.6648 86.9516 41.1849 86.6144 40.7676C86.2772 40.3503 85.8606 40.0039 85.3889 39.7485C83.9613 38.9591 82.6581 37.9634 81.5214 36.7934L87.8009 33.1661C88.2812 32.9093 88.705 32.5586 89.0471 32.1347C89.3892 31.7109 89.6425 31.2226 89.7921 30.6988C89.9417 30.1751 89.9845 29.6267 89.9179 29.0861C89.8513 28.5455 89.6767 28.0238 89.4044 27.5521C89.1322 27.0803 88.7679 26.6681 88.3332 26.34C87.8985 26.0118 87.4023 25.7744 86.874 25.6419C86.3457 25.5093 85.7961 25.4843 85.258 25.5684C84.7199 25.6525 84.2041 25.8439 83.7414 26.1313L77.462 29.7567C77.0147 28.1867 76.8019 26.5593 76.8303 24.9271C76.8421 24.3925 76.7482 23.8609 76.5541 23.3628C76.36 22.8646 76.0695 22.4096 75.6993 22.0239C75.329 21.6382 74.8863 21.3293 74.3964 21.1151C73.9066 20.9008 73.3793 20.7853 72.8447 20.7752H72.769C71.7043 20.775 70.6822 21.1927 69.9223 21.9384C69.1624 22.6841 68.7256 23.6983 68.7058 24.7627C68.6486 27.8764 69.1812 30.9727 70.2756 33.8883L54.0063 43.2872V24.5023C57.0803 23.9942 60.0301 22.9082 62.6996 21.3016C63.6227 20.7454 64.2871 19.8453 64.5465 18.7993C64.8059 17.7533 64.6392 16.647 64.083 15.724C63.5268 14.8009 62.6267 14.1365 61.5806 13.8771C60.5346 13.6177 59.4284 13.7844 58.5053 14.3406C57.106 15.1816 55.5899 15.8109 54.0063 16.2078V10.0632C54.0063 8.98556 53.5782 7.95208 52.8162 7.19008C52.0542 6.42808 51.0207 6 49.9431 6C48.8654 6 47.832 6.42808 47.07 7.19008C46.308 7.95208 45.8799 8.98556 45.8799 10.0632V16.2078C44.2963 15.8109 42.7801 15.1816 41.3808 14.3406C40.4577 13.7844 39.3515 13.6177 38.3055 13.8771C37.2595 14.1365 36.3594 14.8009 35.8032 15.724C35.247 16.647 35.0802 17.7533 35.3397 18.7993C35.5991 19.8453 36.2634 20.7454 37.1865 21.3016C39.856 22.9082 42.8059 23.9942 45.8799 24.5023V43.2872L29.6105 33.8883C30.7067 30.9718 31.2406 27.8741 31.1841 24.759C31.1642 23.6946 30.7274 22.6804 29.9675 21.9347C29.2077 21.189 28.1855 20.7714 27.1209 20.7715H27.0415C26.5078 20.7814 25.9814 20.8963 25.4922 21.1096C25.003 21.323 24.5606 21.6306 24.1903 22.015C23.82 22.3993 23.5291 22.8529 23.3341 23.3497C23.1391 23.8465 23.044 24.3768 23.054 24.9105C23.0838 26.545 22.8715 28.175 22.4242 29.7475L16.1447 26.1313C15.6823 25.8554 15.1697 25.6742 14.6366 25.5983C14.1036 25.5223 13.5607 25.553 13.0397 25.6886C12.5186 25.8242 12.0297 26.0621 11.6013 26.3883C11.173 26.7146 10.8137 27.1227 10.5445 27.589C10.2752 28.0553 10.1014 28.5704 10.0329 29.1045C9.96452 29.6386 10.0029 30.1809 10.1459 30.7C10.289 31.2191 10.5337 31.7046 10.866 32.1283C11.1983 32.552 11.6115 32.9054 12.0815 33.168L18.361 36.7953C17.2243 37.9652 15.9211 38.961 14.4936 39.7503C14.0218 40.0058 13.6053 40.3522 13.2681 40.7694C12.9308 41.1867 12.6796 41.6667 12.5288 42.1815C12.3781 42.6964 12.3308 43.2361 12.3897 43.7693C12.4485 44.3026 12.6125 44.8189 12.872 45.2885C13.1314 45.7581 13.4813 46.1717 13.9015 46.5053C14.3216 46.8389 14.8037 47.0861 15.3199 47.2324C15.836 47.3788 16.3761 47.4215 16.9088 47.358C17.4416 47.2946 17.9565 47.1262 18.4238 46.8628C21.1501 45.3538 23.5659 43.3422 25.5436 40.9342L41.8167 50.3257L25.5473 59.7191C23.5696 57.3111 21.1538 55.2995 18.4275 53.7905C17.9602 53.527 17.4452 53.3587 16.9125 53.2952C16.3798 53.2318 15.8397 53.2745 15.3236 53.4208C14.8074 53.5672 14.3253 53.8143 13.9052 54.148C13.485 54.4816 13.1351 54.8951 12.8756 55.3647C12.6162 55.8343 12.4522 56.3506 12.3934 56.8839C12.3345 57.4172 12.3818 57.9568 12.5325 58.4717C12.6833 58.9866 12.9345 59.4665 13.2718 59.8838C13.609 60.3011 14.0255 60.6475 14.4973 60.9029C15.9248 61.6923 17.228 62.688 18.3647 63.858L12.0815 67.5019C11.6115 67.7645 11.1983 68.1179 10.866 68.5416C10.5337 68.9653 10.289 69.4508 10.1459 69.9699C10.0029 70.489 9.96452 71.0313 10.0329 71.5654C10.1014 72.0995 10.2752 72.6146 10.5445 73.0809C10.8137 73.5472 11.173 73.9553 11.6013 74.2815C12.0297 74.6078 12.5186 74.8456 13.0397 74.9813C13.5607 75.1169 14.1036 75.1476 14.6366 75.0716C15.1697 74.9956 15.6823 74.8145 16.1447 74.5386L22.4242 70.9131C22.8714 72.4831 23.0843 74.1106 23.0558 75.7428C23.0371 76.8192 23.4462 77.8591 24.1935 78.6341C24.9408 79.409 25.9651 79.8558 27.0415 79.8762H27.1172C28.1818 79.8764 29.204 79.4587 29.9638 78.713C30.7237 77.9673 31.1605 76.9532 31.1804 75.8887C31.2376 72.775 30.7049 69.6787 29.6105 66.7632L45.8799 57.3643V76.1491C42.8059 76.6572 39.856 77.7432 37.1865 79.3498C36.2634 79.906 35.5991 80.8061 35.3397 81.8521C35.0802 82.8981 35.247 84.0044 35.8032 84.9275C36.3594 85.8505 37.2595 86.5149 38.3055 86.7743C39.3515 87.0337 40.4577 86.867 41.3808 86.3108C42.7801 85.4698 44.2963 84.8405 45.8799 84.4436V90.5882C45.8799 91.6658 46.308 92.6993 47.07 93.4613C47.832 94.2233 48.8654 94.6514 49.9431 94.6514C51.0207 94.6514 52.0542 94.2233 52.8162 93.4613C53.5782 92.6993 54.0063 91.6658 54.0063 90.5882V84.4436C55.5899 84.8405 57.106 85.4698 58.5053 86.3108C59.4284 86.867 60.5346 87.0337 61.5806 86.7743C62.6267 86.5149 63.5268 85.8505 64.083 84.9275C64.6392 84.0044 64.8059 82.8981 64.5465 81.8521C64.2871 80.8061 63.6227 79.906 62.6996 79.3498C60.0301 77.7432 57.0803 76.6572 54.0063 76.1491V57.3643L70.2756 66.7632C69.1795 69.6796 68.6456 72.7773 68.7021 75.8924C68.7219 76.9568 69.1588 77.971 69.9186 78.7167C70.6785 79.4624 71.7006 79.8801 72.7653 79.8799H72.8447C73.3783 79.87 73.9047 79.7551 74.394 79.5418C74.8832 79.3284 75.3255 79.0208 75.6958 78.6364C76.0661 78.2521 76.3571 77.7986 76.552 77.3017C76.747 76.8049 76.8422 76.2746 76.8322 75.741C76.8024 74.1064 77.0146 72.4764 77.462 70.9039L83.7414 74.5294C84.2038 74.8263 84.7216 75.0263 85.2636 75.1174C85.8055 75.2084 86.3602 75.1886 86.8943 75.0591C87.4283 74.9296 87.9305 74.6932 88.3706 74.364C88.8106 74.0349 89.1793 73.6199 89.4544 73.1441C89.7294 72.6684 89.9051 72.1419 89.9708 71.5963C90.0366 71.0507 89.9909 70.4975 89.8367 69.9701C89.6825 69.4426 89.4229 68.952 89.0736 68.5277C88.7243 68.1035 88.2926 67.7545 87.8046 67.5019Z" fill="#ADE0F3"/>
</svg>
